<?xml version="1.0" encoding="utf-8"?>
<!-- Generator: Adobe Illustrator 16.0.0, SVG Export Plug-In . SVG Version: 6.00 Build 0)  -->
<!DOCTYPE svg PUBLIC "-//W3C//DTD SVG 1.1//EN" "http://www.w3.org/Graphics/SVG/1.1/DTD/svg11.dtd">
<svg version="1.1" id="Layer_1" xmlns="http://www.w3.org/2000/svg" xmlns:xlink="http://www.w3.org/1999/xlink" x="0px" y="0px"
	 width="800px" height="800px" viewBox="0 0 800 800" enable-background="new 0 0 800 800" xml:space="preserve">
<g>
	<path fill="#EDC300" d="M757.586,221.332c16.188,53.606,20.18,104.758,11.982,153.461c-7.918,46.596-26.207,87.136-54.867,121.611
		c-28.592,34.338-64.784,59.317-108.578,74.943c-45.545,16.256-95.299,20.812-149.255,13.665l85.033-118.88
		c55.147,1.821,99.815-19.656,134.016-64.433c25.784-33.636,42.884-75.328,51.292-125.08c3.852-22.634,7.254-39.837,10.197-51.61
		c3.293-13.384,6.34-21.127,9.143-23.229c1.754-1.331,3.678,0.174,5.781,4.519C753.732,209.314,755.482,214.326,757.586,221.332"/>
	<path fill="#C6A400" d="M727.209,437.229c19.689-33.774,35.037-76.169,46.039-127.183c2.033,43.234-4.416,83.352-19.342,120.353
		c-14.508,36.153-36.053,66.882-64.643,92.179c-28.869,25.647-62.818,43.9-101.852,54.762c-40.571,11.28-84.089,13.84-130.545,7.675
		l85.033-118.88c9.739,0.352,17.204,0.21,22.389-0.424l9.985-1.679c8.407,21.581,21.266,35.771,38.573,42.568
		c17.52,6.797,36.158,4.66,55.919-6.413C690.282,488.135,709.762,467.148,727.209,437.229"/>
	<path fill="#A4725D" d="M747.496,318.559c13.805,3.994,22.246,13.172,25.33,27.539l-1.262,13.034
		c-1.051,9.459-1.963,16.188-2.734,20.18c-1.75-8.97-6.76-16.816-15.029-23.544c-12.332-10.161-28.238-12.051-47.719-5.677
		c2.035-4.694,4.098-10.405,6.203-17.131l2.625-8.619C723.74,316.632,734.602,314.704,747.496,318.559"/>
	<path fill="#815847" d="M772.826,348.305l-1.262,11.877l-2.734,19.129c-0.281-1.473-1.154-3.537-2.627-6.202
		c-1.893-3.503-4.201-6.761-6.938-9.774c3.574-9.109,6.338-18.78,8.305-29.009C769.744,337.897,771.496,342.559,772.826,348.305"/>
	<path fill="#EDC300" d="M277.026,538.974c-2.804-3.438-5.43-12.158-7.884-26.172c-2.664-15.065-2.314-24.315,1.051-27.75
		c5.326-5.323,24.49,1.58,57.496,20.707c7.288,4.136,14.049,9.496,20.286,16.08c9.319,10.091,13.068,19.553,11.248,28.381
		c-1.962,9.321-8.549,14.822-19.76,16.502l-12.824-0.42c-4.063-0.908-6.937-2.311-8.618-4.202
		c-2.313-2.731-9.426-6.867-21.334-12.402C284.908,544.227,278.357,540.656,277.026,538.974"/>
	<path fill="#C6A400" d="M277.026,538.974c-1.683-2.104-3.61-7.465-5.781-16.082c-2.243-9.179-3.503-17.308-3.784-24.384
		c10.442,5.113,20.076,8.406,28.906,9.878c11.49,1.894,21.266,0.634,29.322-3.783l1.998,1.156
		c7.288,4.136,14.049,9.496,20.286,16.08c9.319,10.091,13.068,19.553,11.248,28.381c-1.962,9.321-8.549,14.822-19.76,16.502
		l-12.824-0.42c-4.062-0.908-6.937-2.311-8.618-4.202c-2.313-2.731-9.425-6.867-21.334-12.402
		C284.908,544.227,278.357,540.656,277.026,538.974"/>
	<path fill="#EDC300" d="M237.607,468.549c6.098-13.524,13.209-20.846,21.339-21.968c10.371-1.401,17.728,11.073,22.071,37.418
		c5.046,30.763,7.008,53.219,5.886,67.376c-0.981,12.545-4.66,20.253-11.037,23.125c-5.115,2.313-10.653,2.381-16.607,0.21
		l-14.085-7.147c-10.371-1.821-18.15-2.383-23.335-1.682c-11.001,1.401-20.952,7.041-29.851,16.921
		c-4.905,5.467-9.285,7.708-13.139,6.73c-3.433-0.843-6.095-4.173-7.987-9.985c-4.135-12.613-3.61-27.82,1.577-45.621
		c5.255-18.007,13.279-32.827,24.069-44.459C208.424,476.573,222.123,469.602,237.607,468.549"/>
	<path fill="#C6A400" d="M220.058,521.631l19.13-3.26c6.658-1.684,12.403-4.59,17.238-8.723c4.134-3.505,6.729-7.291,7.778-11.353
		c0.419-1.682,0.631-5.148,0.631-10.404c3.153,2.521,6.271,2.484,9.354-0.107c2.453-2.03,4.415-5.114,5.885-9.248l0.947,5.464
		c5.184,31.465,6.937,54.8,5.255,70.006c-1.332,11.773-4.8,18.917-10.405,21.443c-5.466,2.449-15.696-0.177-30.691-7.885
		c-8.269-1.474-16.258-1.576-23.966-0.314c-11.913,2.032-21.653,7.218-29.221,15.555c-8.41,9.321-14.889,9.566-19.444,0.734
		c-4.273-8.267-5.291-20.215-3.048-35.838C184.983,533.402,201.836,524.715,220.058,521.631"/>
	<path fill="#EDC300" d="M122.726,401.7c5.397,2.241,12.578,5.43,21.546,9.564c4.277,1.684,9.005,7.358,14.19,17.026l11.877,21.022
		c4.695,6.026,7.883,11.808,9.564,17.346c2.804,9.25,3.891,22.352,3.259,39.309c-0.63,19.062,1.192,36.229,5.465,51.504
		c2.664,9.672,6.727,19.374,12.194,29.116c2.452,4.486,1.996,10.197-1.367,17.132c-2.453,5.046-7.358,12.229-14.716,21.549
		c-2.521,3.151-8.232,6.553-17.131,10.195c-9.95,3.996-19.165,6.099-27.644,6.308c-3.923,0.066-5.78-1.227-5.569-3.891
		c0.21-2.241,1.365-4.17,3.468-5.78c3.503-2.732,6.449-5.466,8.83-8.198c2.873-3.434,4.275-6.271,4.204-8.514
		c-10.721-6.378-21.478-20.813-32.27-43.307c-8.41-17.448-15.8-37.383-22.178-59.808c-3.223-2.662-9.424-9.915-18.604-21.756
		c-9.18-11.704-14.4-19.024-15.66-21.97c-0.771-1.748-2.98-3.78-6.623-6.095c-3.504-2.313-7.392-4.237-11.667-5.779
		c-5.046-1.896-9.285-4.661-12.719-8.305c-3.713-3.926-3.573-6.415,0.421-7.467c4.415-1.118,12.087-1.188,23.02-0.208
		c11.141,1.053,19.094,2.662,23.86,4.836c3.293,1.472,8.41,5.289,15.346,11.456c7.637,6.867,13.595,11.528,17.868,13.979
		l9.881-3.993c4.345-2.662,6.972-6.765,7.884-12.301c-0.982-6.165-4.8-13.732-11.458-22.702c-4.273-5.815-9.285-11.631-15.03-17.446
		c-5.396-5.469-8.198-9.882-8.408-13.245c-0.209-3.224,2.032-5.011,6.727-5.362C105.695,395.639,112.845,397.565,122.726,401.7"/>
	<path fill="#C6A400" d="M30.649,443.535l0.841-1.682c0.42-0.843,0.91-1.332,1.473-1.472c4.413-1.121,11.876-1.089,22.387,0.104
		c10.58,1.19,18.288,2.871,23.124,5.044c3.293,1.472,8.128,5.01,14.504,10.616c7.428,6.655,12.928,11.142,16.503,13.453
		c-2.172,1.19-4.134,3.364-5.887,6.519c-1.471,2.662-2.627,5.64-3.466,8.933c-2.103-6.306-6.833-13.277-14.191-20.917
		c-6.797-7.075-12.299-11.351-16.503-12.821c-4.064-1.401-9.67-2.838-16.818-4.311C44.769,445.322,37.445,444.164,30.649,443.535"/>
	<path fill="#C6A400" d="M139.124,420.726c-5.816-6.797-14.715-14.294-26.698-22.495c4.413,0.982,10.125,3.083,17.132,6.307
		l14.715,6.728c4.277,1.684,9.005,7.358,14.19,17.026l11.877,21.022c4.975,6.517,8.198,11.914,9.669,16.188
		c2.382,6.867,3.364,16.744,2.943,29.643c-0.771,22.912,0.736,42.043,4.519,57.389c2.593,10.583,7.218,21.933,13.875,34.056
		c2.453,4.416,1.893,10.126-1.682,17.132c-2.382,4.694-7.358,11.879-14.927,21.548c-1.82,2.384-6.2,5.223-13.138,8.514
		c-8.197,3.927-16.957,6.903-26.277,8.934c16.117-9.597,26.418-20.108,30.903-31.53c4.204-10.721,1.961-17.482-6.727-20.286
		c-1.261-14.436-5.115-39.521-11.562-75.258c-5.115-28.03-7.113-47.438-5.991-58.229
		C153.277,444.586,149.002,432.357,139.124,420.726"/>
	<path fill="#C6A400" d="M497.125,562.202c-5.676-2.592-13.419-0.143-23.229,7.356l-11.457,9.46
		c-4.273,3.503-7.604,5.817-9.983,6.937c-5.396,2.454-10.72,2.701-15.979,0.738c-4.346-1.613-7.394-3.994-9.144-7.146l14.817-6.833
		l42.042-33.215L497.125,562.202"/>
	<path fill="#EDC300" d="M391.278,575.654c1.963,1.545,2.942,3.223,2.942,5.046c0,2.032-1.26,3.68-3.783,4.939
		c-3.363,1.82-7.534,1.856-12.508,0.105c-4.905-1.753-8.268-4.312-10.089-7.675l8.303-3.993c3.154-1.332,6.096-1.752,8.829-1.262
		C387.496,573.239,389.596,574.186,391.278,575.654"/>
	<path fill="#EDC300" d="M477.576,526.361c0-6.098,5.146-15.838,15.45-29.223c10.44-13.521,19.374-21.897,26.803-25.118
		c6.864-2.943,14.154-2.665,21.86,0.837c6.026,2.732,11.422,6.797,16.188,12.192l12.088,14.927
		c4.766,6.795,9.037,14.504,12.822,23.125c2.103,4.764,1.96,13.17-0.422,25.226c-2.243,11.562-5.887,23.159-10.931,34.79
		c-5.396,12.399-10.971,21.408-16.713,27.014c-6.589,6.376-12.406,7.042-17.449,1.997c-9.6-9.599-22.281-26.206-38.048-49.818
		C484.791,540.656,477.576,528.674,477.576,526.361"/>
	<path fill="#C6A400" d="M477.576,526.361c0-6.098,5.146-15.838,15.45-29.223c10.44-13.521,19.374-21.897,26.803-25.118
		c5.885-2.526,12.577-2.385,20.075,0.419c7.426,2.733,13.91,7.391,19.444,13.978c-7.779,2.593-13.313,8.232-16.605,16.925
		c-2.944,7.918-3.786,17.518-2.524,28.8c1.265,10.862,4.237,21.654,8.935,32.372c4.907,11.073,10.896,20.321,17.977,27.75
		c-5.05,9.601-10.021,16.293-14.926,20.076c-5.605,4.204-10.582,4.135-14.927-0.211c-9.6-9.599-22.281-26.206-38.047-49.818
		C484.791,540.656,477.576,528.674,477.576,526.361"/>
	<path fill="#EDC300" d="M632.085,407.376c9.317-1.121,14.296,0.246,14.925,4.1c0.49,2.87-2.767,8.408-9.773,16.606
		c-5.744,6.866-10.581,11.879-14.505,15.032c-2.807,2.172-4.659,5.326-5.571,9.459c-0.984,4.275-1.191,10.406-0.631,18.395
		c3.574,5.888,7.009,10.546,10.299,13.98l3.786,3.363l11.035-12.929c8.268-9.039,14.646-14.718,19.133-17.025
		c4.693-2.314,12.084-3.785,22.177-4.415c6.938-0.419,13.138-0.458,18.604-0.104c7.358,0.421,10.687,2.557,9.985,6.408
		c-0.701,3.503-3.818,6.483-9.355,8.935c-6.165,2.595-10.58,4.556-13.242,5.885c-4.486,2.175-8.061,4.592-10.722,7.254
		c-5.396,5.467-14.014,17.237-25.858,35.315c-14.572,22.215-27.257,44.289-38.048,66.221c-8.969,18.219-18.044,31.566-27.222,40.047
		c-8.831,6.237-14.856,11.072-18.078,14.507c0.068,1.891,1.363,7.147,3.889,15.765c1.751,6.028,1.611,9.602-0.421,10.724
		c-8.618-0.072-16.437-2.733-23.438-7.988c-10.022-7.642-17.416-20.079-22.18-37.313c-1.472-4.482-0.807-9.949,1.999-16.396
		c2.311-5.256,5.884-10.756,10.718-16.502c8.549-10.231,15.73-29.992,21.549-59.283l6.098-31.429
		c2.241-11.068,4.205-19.233,5.885-24.488c3.295-9.95,6.937-19.235,10.932-27.854c5.539-12.19,10.338-19.655,14.403-22.39
		C610.362,413.333,621.576,408.706,632.085,407.376"/>
	<path fill="#C6A400" d="M638.076,415.786c4.695-2.102,7.111-2.559,7.25-1.369c0.492,2.872-2.451,7.921-8.827,15.138
		c-4.975,5.678-9.563,10.196-13.771,13.561c-2.806,2.172-4.658,5.326-5.57,9.459c-0.984,4.275-1.192,10.406-0.632,18.396
		c0.911,3.503,3.396,6.973,7.464,10.403l7.566,6.202c0.212,4.347,1.228,8.796,3.051,13.351c1.892,4.693,3.606,6.729,5.148,6.099
		c0.561-0.209,3.539-5.644,8.936-16.292c5.466-10.86,9.913-17.134,13.349-18.816c4.556-2.313,10.405-4.448,17.554-6.411
		c6.727-1.893,13.172-3.259,19.34-4.101c6.166-0.839,9.496-0.314,9.986,1.577c0.559,1.894-1.682,3.959-6.729,6.2
		c-6.165,2.594-10.58,4.556-13.242,5.885c-4.486,2.175-8.06,4.592-10.722,7.254c-6.656,6.729-16.115,19.654-28.381,38.785
		c-13.313,20.813-25.156,41.729-35.526,62.75c-9.32,18.852-18.711,32.832-28.17,41.94c-3.155,3.013-6.69,5.779-10.613,8.303
		c-3.926,2.38-6.693,4.135-8.305,5.255c-0.35-12.402-0.842-20.95-1.473-25.646c-1.051-7.849-3.642-11.949-7.777-12.299
		c10.089-14.575,16.991-31.461,20.708-50.663l5.043-29.221c2.384-13.385,5.222-26.104,8.515-38.154
		c3.714-16.956,6.062-26.802,7.041-29.534c4.066-11.981,10.055-20.602,17.978-25.857
		C625.885,422.232,632.821,418.167,638.076,415.786"/>
	<path fill="#EDC300" d="M398.321,339.58c4.485-5.254,11.493-9.53,21.021-12.823c9.038-3.153,18.852-4.941,29.433-5.36
		c10.86-0.42,20.496,0.667,28.903,3.259c9.247,2.802,15.732,7.076,19.445,12.824c6.585,10.089,11.385,23.964,14.399,41.622
		c2.313,13.805,4.379,36.124,6.202,66.956c0.771,13.382-1.574,27.082-7.043,41.098c-5.114,13.244-12.508,25.438-22.178,36.578
		c-9.532,11.07-20.111,19.831-31.742,26.275c-12.124,6.658-24.003,9.986-35.635,9.986c-11.84,0-23.474-2.489-34.895-7.463
		c-11.212-4.904-20.673-11.492-28.38-19.761c-8.059-8.688-13.035-18.082-14.926-28.17c-2.102-11.07-0.28-21.933,5.466-32.581
		c7.707-14.439,16.711-39.349,27.013-74.736C384.378,366.242,392.015,347.008,398.321,339.58"/>
	<path fill="#C6A400" d="M398.321,339.58c4.485-5.254,11.493-9.53,21.021-12.823c9.038-3.153,18.852-4.941,29.433-5.36
		c10.86-0.42,20.496,0.667,28.903,3.259c9.247,2.802,15.732,7.076,19.445,12.824c6.585,10.089,11.385,23.964,14.399,41.622
		c2.313,13.805,4.379,36.124,6.202,66.956c1.47,24.945-6.764,49.015-24.699,72.209c-17.59,22.7-37.63,36.227-60.123,40.573
		c3.712-15.767,5.64-34.021,5.779-54.762c0.141-21.653-1.752-41.519-5.676-59.598c-4.483-20.181-10.967-35.282-19.445-45.304
		c-9.74-11.492-21.512-15.45-35.315-11.878c3.573-11.982,6.69-21.337,9.354-28.063C391.104,350.477,394.679,343.925,398.321,339.58"
		/>
	<path fill="#A4725D" d="M398.321,339.58c4.485-5.254,11.493-9.53,21.021-12.823c9.038-3.153,18.852-4.941,29.433-5.36
		c10.86-0.42,20.496,0.667,28.903,3.259c9.247,2.802,15.732,7.076,19.445,12.824c6.585,10.089,11.385,23.964,14.399,41.622
		c2.313,13.805,4.379,36.124,6.202,66.956c0.49,9.107-0.458,18.465-2.839,28.063c-35.528-24.388-62.188-39.066-79.985-44.044
		c-23.897-6.727-48.178-2.977-72.843,11.249l17.868-59.177C386.516,360.427,392.646,346.236,398.321,339.58"/>
	<path fill="#815847" d="M398.321,339.58c4.485-5.254,11.493-9.53,21.021-12.823c9.038-3.153,18.852-4.941,29.433-5.36
		c10.86-0.42,20.496,0.667,28.903,3.259c9.247,2.802,15.732,7.076,19.445,12.824c6.585,10.089,11.385,23.964,14.399,41.622
		c2.313,13.805,4.379,36.124,6.202,66.956c0.49,9.107-0.458,18.465-2.839,28.063c-19.689-13.525-35.178-23.404-46.457-29.641
		c-14.857-8.199-28.207-13.524-40.048-15.979c-9.179-28.801-24.279-47.581-45.3-56.338
		C388.267,356.257,393.346,345.396,398.321,339.58"/>
	<path fill="#0D131A" d="M398.321,339.58c4.485-5.254,11.493-9.53,21.021-12.823c9.038-3.153,18.852-4.941,29.433-5.36
		c10.86-0.42,20.496,0.667,28.903,3.259c9.247,2.802,15.732,7.076,19.445,12.824c5.817,9.038,9.426,16.572,10.824,22.597
		c1.188,5.115,2.56,18.43,4.102,39.942l-11.038,12.93c-4.904,4.273-10.303,5.883-16.188,4.835
		c-8.337-1.402-14.537-7.709-18.604-18.921c-4.345-12.263-8.375-18.884-12.086-19.865c-5.397-1.331-13.068-2.208-23.021-2.626
		c-10.514-0.421-17.237,0.069-20.183,1.469c-1.4,0.703-4.029,4.802-7.884,12.299c-3.923,7.708-7.953,12.791-12.087,15.242
		c-3.012,1.823-6.166,3.118-9.461,3.89l-9.459,1.26c1.682-9.036,5.781-23.088,12.299-42.147c2.312-6.728,4.204-11.737,5.677-15.032
		C392.471,347.743,395.239,343.155,398.321,339.58"/>
	<path fill="#EDC300" d="M367.523,390.244c2.944,3.434,3.786,6.832,2.524,10.196l-7.568,18.184c-2.873,6.938-5.43,14.61-7.673,23.02
		c-1.26,4.835-4.415,8.131-9.459,9.882l-15.135,0.524c-5.467-1.19-9.846-3.329-13.141-6.412c-3.504-3.362-4.625-6.974-3.362-10.824
		c3.224-9.603,5.991-17.38,8.303-23.335c3.224-8.197,6.938-16.606,11.142-25.228c1.611-3.293,4.766-5.184,9.462-5.675
		c4.203-0.422,8.723,0.315,13.559,2.206C361.079,384.673,364.862,387.161,367.523,390.244"/>
	<path fill="#C6A400" d="M367.841,390.453c2.802,3.294,3.538,6.622,2.207,9.986l-7.568,18.183
		c-2.873,6.938-5.43,14.611-7.673,23.021c-1.331,5.255-4.765,8.653-10.3,10.196c1.262-19.621-4.73-37.631-17.974-54.028
		c1.821-3.785,4.027-7.639,6.621-11.562c2.104-3.083,5.5-4.835,10.196-5.256c4.344-0.35,8.865,0.386,13.561,2.207
		C361.674,385.022,365.317,387.439,367.841,390.453"/>
	<path fill="#A4725D" d="M394.328,381.834c0,1.752-0.701,3.958-2.104,6.622c-2.803,5.326-7.672,10.406-14.607,15.242
		c-5.817,4.064-14.085,4.202-24.808,0.418c-9.109-3.153-17.482-8.022-25.121-14.61c-3.363-2.873-9.109-4.134-17.238-3.784
		c-6.308,0.281-11.772,1.192-16.396,2.733c-4.274,1.471-7.007,0.875-8.198-1.788c-1.613-3.574,0.035-10.58,4.939-21.022
		c4.416-9.319,10.932-16.642,19.551-21.967c8.198-4.975,17.624-7.778,28.273-8.41L394.328,381.834"/>
	<path fill="#815847" d="M394.328,381.834c0,1.752-0.701,3.958-2.104,6.622c-2.803,5.326-7.672,10.406-14.607,15.242
		c-7.85,5.465-17.484,5.5-28.906,0.105c-6.167-2.874-13.173-7.641-21.022-14.297c-2.593-2.242-6.588-3.468-11.983-3.679
		c2.732-2.593,6.588-4.135,11.563-4.624l12.193-1.158c8.828-2.242,12.856-13.559,12.087-33.95L394.328,381.834"/>
	<path fill="#EDC300" d="M402.209,522.471c0.771,9.811-0.944,20.391-5.148,31.742c-3.995,10.582-12.929,17.098-26.804,19.551
		c-13.174,2.381-22.808,0.387-28.904-5.991c-4.766-4.976-8.374-10.439-10.827-16.396c-3.083-7.218-4.834-15.767-5.255-25.646
		c-0.49-9.041-3.083-19.974-7.777-32.794c-4.556-12.403-8.76-20.462-12.614-24.178c-4.204-4.063-6.271-8.793-6.202-14.188
		c0-4.765,1.751-10.615,5.254-17.553c3.503-7.075,9.04-12.264,16.607-15.557c8.269-3.715,16.502-3.782,24.701-0.21
		c7.287,3.224,12.264,9.354,14.925,18.396c1.473,5.043,2.943,12.225,4.416,21.545c2.242,7.357,5.815,14.189,10.719,20.498
		c3.644,4.765,9.391,10.79,17.238,18.078C398.146,504.953,401.37,512.52,402.209,522.471"/>
	<path fill="#C6A400" d="M391.911,499.45c5.677,5.256,9.005,12.86,9.983,22.81c0.981,10.091-0.63,20.744-4.833,31.955
		c-2.313,6.096-6.48,11.035-12.509,14.818c-5.396,3.364-11.456,5.396-18.184,6.097c0.489-2.381,0.735-5.709,0.735-9.981
		c2.032-12.195,1.438-27.12-1.786-44.778c-2.873-16.048-7.463-31.989-13.771-47.823c-6.097-15.557-12.508-27.751-19.235-36.576
		c-7.218-9.461-13.349-13.141-18.394-11.038c4.554-3.292,9.563-5.256,15.03-5.889c5.606-0.696,11.142,0.178,16.606,2.629
		c7.216,3.154,12.123,9.216,14.715,18.187c1.402,4.974,2.839,12.085,4.312,21.336c1.681,5.325,5.255,11.772,10.719,19.342
		C380.558,487.749,386.093,494.057,391.911,499.45"/>
	<path fill="#C6A400" d="M394.749,507.755c4.063,2.172,6.2,8.235,6.41,18.184c0.212,9.599-0.771,14.611-2.942,15.028
		c-3.363,0.494-8.442-0.558-15.242-3.152c-8.337-3.223-12.472-7.427-12.401-12.611c0.139-7.22,3.153-12.612,9.039-16.185
		C385.079,505.724,390.124,505.302,394.749,507.755"/>
	<path fill="#EDC300" d="M353.966,581.754c-4.834-4.694-5.816-9.672-2.944-14.927c2.594-4.693,5.922-7.042,9.986-7.042
		c2.873,0,6.274,2.943,10.196,8.831l9.25,15.659c2.452,4.134-0.21,5.816-7.989,5.046
		C364.617,588.618,358.451,586.098,353.966,581.754"/>
	<path fill="#EDC300" d="M371.729,533.298c6.236,0.351,12.72,5.253,19.446,14.715c6.446,8.898,8.794,14.506,7.042,16.816
		c-2.243,2.943-6.693,4.767-13.349,5.467c-8.689,0.911-16.362-1.82-23.019-8.198c-7.008-6.729-8.55-13.454-4.624-20.182
		C360.728,535.818,365.562,532.947,371.729,533.298"/>
	<path fill="#C6A400" d="M371.729,533.298c6.236,0.351,12.72,5.253,19.446,14.715c6.446,8.898,8.794,14.506,7.042,16.816
		c-0.981,1.261-2.944,2.489-5.885,3.679c-3.646,1.4-7.429,2.067-11.354,1.998c-0.84-12.541-4.59-24.914-11.246-37.104
		L371.729,533.298"/>
	<path fill="#EDC300" d="M398.426,512.802l-7.251,25.017c-22.145-3.014-32.479-5.991-31.008-8.936
		c1.893-3.783,8.059-7.566,18.5-11.35C388.126,514.027,394.712,512.451,398.426,512.802"/>
	<path fill="#C6A400" d="M393.802,528.674l-2.627,9.144c-21.583-2.871-31.919-5.817-31.008-8.831
		C372.851,532.001,384.063,531.896,393.802,528.674"/>
	<path fill="#C6A400" d="M401.581,570.925l27.222,7.465c-15.767,14.786-33.109,19.551-52.029,14.296
		c0.63-1.753,3.995-5.223,10.09-10.407C392.051,577.863,396.956,574.079,401.581,570.925"/>
	<path fill="#EDC300" d="M359.328,575.235c-3.364-1.542-4.94-3.014-4.731-4.413c0.21-0.981,1.682-2.416,4.415-4.31l15.662-9.881
		c8.337-5.115,13.629-8.198,15.872-9.25l10.72,27.854c-7.007,3.438-15.03,4.837-24.07,4.204
		C370.188,578.949,364.23,577.548,359.328,575.235"/>
	<path fill="#C6A400" d="M359.328,575.235c-4.486-2.031-5.92-4.099-4.312-6.202c12.612,1.542,25.753-2.313,39.417-11.563
		l6.831,17.763c-7.007,3.438-15.03,4.837-24.07,4.203C370.188,578.949,364.23,577.548,359.328,575.235"/>
	<path fill="#EDC300" d="M497.755,399.387l38.576-13.769c1.121,44.287,0.489,68.112-1.895,71.476
		c-2.1,2.941-8.652,2.663-19.653-0.841c-11.353-3.645-17.311-8.34-17.87-14.087c-0.418-4.834-0.418-13.42,0-25.75L497.755,399.387"
		/>
	<path fill="#C6A400" d="M522.982,422.62c-6.52-7.081-15.137-10.093-25.857-9.041l0.63-14.192l38.576-13.769l0.522,27.225
		c0.073,16.89-0.242,29.081-0.94,36.577C532.477,437.229,528.165,428.292,522.982,422.62"/>
	<path fill="#A4725D" d="M537.381,317.507c7.639,3.083,16.223,8.899,25.753,17.448c10.23,9.179,17.237,21.163,21.021,35.947
		c3.573,13.525,3.397,24.07-0.525,31.637c-3.082,6.027-10.896,10.125-23.438,12.299c-10.231,1.752-17.901,1.929-23.019,0.525
		l0.631-29.745l-31.534,14.295c-5.885,2.873-13.594,1.613-23.122-3.784c-10.792-6.097-17.729-15.101-20.813-27.014
		c-4.063-16.048-2.805-28.1,3.781-36.159c5.537-6.657,16.677-12.298,33.427-16.922C513.138,312.321,525.748,312.813,537.381,317.507
		"/>
	<path fill="#815847" d="M542.318,319.715c6.379,3.293,13.314,8.374,20.814,15.242c9.948,8.899,16.816,20.846,20.6,35.841
		c3.573,14.016,3.33,25.052-0.734,33.112c-3.085,5.955-10.793,9.809-23.124,11.561c-9.881,1.403-17.449,1.367-22.702-0.104
		l0.631-29.745l-31.534,14.295c-3.923,1.894-8.967,1.648-15.134-0.736c-6.661-2.663-12.369-7.147-17.135-13.454
		c9.109,3.434,19.552,3.574,31.324,0.422c7.217-1.962,18.919-6.727,35.104-14.295c11.564-5.396,16.784-13.454,15.663-24.176
		C555.249,339.264,550.661,329.946,542.318,319.715"/>
	<path fill="#EDC300" d="M391.596,537.396c0.561-9.6,2.277-16.957,5.149-22.071c2.031-3.644,7.042-7.041,15.032-10.198
		c10.999-4.412,17.9-7.496,20.706-9.249c6.864-4.272,14.433-10.511,22.704-18.71c8.826-8.827,15.623-17.201,20.388-25.119
		c7.989-13.244,15.593-20.008,22.811-20.286c13.453-0.702,24.49,3.714,33.109,13.242c7.076,7.778,11.248,16.961,12.508,27.54
		c0.771,6.795-2.277,13.418-9.145,19.864c-9.739,7.639-17.344,14.014-22.81,19.127c-11.212,11.704-21.409,21.865-30.588,30.482
		c-17.519,16.538-32.061,27.608-43.617,33.214c-10.513,5.187-19.588,6.2-27.227,3.049c-6.447-2.663-11.631-8.058-15.556-16.188
		C392.121,555.93,390.964,547.697,391.596,537.396"/>
	<path fill="#C6A400" d="M410.306,538.658l16.186-4.942c6.87-2.308,12.789-5.042,17.762-8.196
		c16.61-10.442,32.866-24.703,48.774-42.781c19.689-22.493,26.137-38.924,19.34-49.295c9.743,3.014,17.552,8.199,23.438,15.556
		c5.322,6.657,8.479,14.261,9.457,22.812c0.704,6.026-3.326,13.243-12.085,21.652l-21.126,18.076
		c-11.424,11.635-21.829,21.76-31.22,30.378c-17.867,16.395-32.582,27.435-44.146,33.108c-19.061,9.392-32.933,5.081-41.622-12.928
		c-0.842-1.821-1.646-4.345-2.418-7.566C393.416,547.452,399.303,542.161,410.306,538.658"/>
	<path fill="#EDC300" d="M349.657,163.207l-49.613,66.64c-6.307-9.812-12.262-24.947-17.869-45.408
		c-5.955-21.864-7.604-36.823-4.939-44.882c6.446-4.345,19.234-2.664,38.365,5.045C332.066,151.259,343.421,157.459,349.657,163.207
		"/>
	<path fill="#C6A400" d="M290.269,137.561c9.18,0.98,20.707,4.694,34.581,11.14c12.192,5.676,20.462,10.511,24.807,14.506
		l-10.092,13.453c-5.677-8.479-12.964-16.222-21.862-23.229C309.015,146.564,299.87,141.272,290.269,137.561"/>
	<path fill="#FFFAC6" d="M283.228,148.281c9.881,9.668,16.888,17.273,21.021,22.809c5.466,7.287,10.267,16.222,14.4,26.802
		l-12.508,25.856c-5.396-10.721-10.229-22.563-14.504-35.525C286.591,172.597,283.787,159.283,283.228,148.281"/>
	<path fill="#EDC300" d="M550.836,186.015c-6.937,21.374-14.398,37.069-22.39,47.09l-66.641-70.738
		c13.876-7.358,32.305-13.42,55.287-18.184c22.777-4.696,36.614-5.43,41.521-2.207C560.295,150.313,557.706,164.993,550.836,186.015
		"/>
	<path fill="#FFFAC6" d="M500.906,206.827c7.777-14.155,14.471-24.49,20.078-31.007c8.196-9.671,18.532-17.59,31.009-23.755
		c-3.786,30.481-14.052,55.987-30.799,76.52L500.906,206.827"/>
	<path fill="#DCD8AC" d="M551.993,152.064c-1.754,13.943-4.835,26.803-9.25,38.575c-17.381,1.541-30.692,7.604-39.942,18.184
		l-1.895-1.998c7.777-14.155,14.471-24.49,20.078-31.007C529.182,166.15,539.518,158.229,551.993,152.064"/>
	<path fill="#EDC300" d="M459.285,152.485c5.957,2.103,10.125,4.029,12.507,5.781l16.189,13.138
		c8.758,7.849,16.395,16.012,22.912,24.491c10.091,12.262,17.831,27.503,23.229,45.722c4.417,14.855,6.869,29.887,7.36,45.094
		c0.349,11.352-4.175,19.339-13.562,23.964c-3.436,1.752-8.408,3.434-14.925,5.045l-17.868,4.31
		c-9.181,2.522-20.566,7.287-34.159,14.295c-14.927,7.707-25.229,14.608-30.902,20.706c-9.529,10.16-16.05,16.537-19.551,19.129
		c-8.128,6.097-16.433,8.513-24.913,7.251c-7.217-0.98-13.104-3.749-17.658-8.303c-3.153-3.153-7.357-9.389-12.611-18.709
		c-6.167-11.071-13.384-19.303-21.653-24.699c-12.822-7.008-25.086-14.436-36.787-22.283c-7.567-5.044-9.88-18.569-6.937-40.572
		c3.154-23.405,11.314-46.002,24.49-67.795c4.346-6.727,10.125-13.805,17.344-21.231c7.848-7.989,14.469-13.315,19.864-15.977
		c27.049-13.103,54.236-18.149,81.565-15.137C442.539,147.756,451.226,149.682,459.285,152.485"/>
	<path fill="#FFFAC6" d="M381.293,332.327c8.76-1.542,18.044,0.841,27.854,7.147l13.872,8.304c4.978,2.874,7.924,4.696,8.829,5.466
		l-1.783,1.788c-9.529,10.16-16.051,16.537-19.552,19.129c-8.127,6.097-16.432,8.513-24.912,7.252
		c-6.023-0.84-11.561-3.466-16.606-7.883c-4.834-4.345-8.969-10.125-12.402-17.343C362.34,342.173,370.574,334.22,381.293,332.327"
		/>
	<path fill="#C6A400" d="M541.689,278.723l-0.104,12.087c-1.399,8.618-5.291,14.47-11.669,17.553
		c-8.406,4.063-17.693,7.707-27.854,10.932l-24.068,7.253c-17.938,5.745-33.32,14.644-46.146,26.697l-9.879-6.096l2.103-2.732
		c6.656-8.199,16.995-15.452,31.01-21.757c7.987-3.645,20.878-8.338,38.681-14.085c16.256-5.186,27.36-9.354,33.318-12.509
		C536.611,291.091,541.482,285.309,541.689,278.723"/>
	<path fill="#DCD8AC" d="M430.065,355.032l-17.028,17.237c-7.076,5.745-14.083,8.864-21.022,9.354h-0.63
		c4.625-2.102,9.773-6.727,15.449-13.875l15.138-20.601l9.878,6.096L430.065,355.032"/>
	<path fill="#0D131A" d="M457.182,583.015c19.903,2.661,39.17,3.68,57.813,3.048c0.07,0.701,0.523,1.473,1.364,2.312l1.893,1.999
		c-19.761,0.771-41.763-0.458-66.008-3.679L457.182,583.015"/>
	<path fill="#0D131A" d="M543.688,463.294c10.861,0.354,22.178-0.522,33.947-2.629l-1.154,2.842l-0.84,3.153l-15.24,1.574
		l-16.293-0.104L543.688,463.294"/>
	<path fill="#0D131A" d="M755.799,221.857c-2.242-7.639-4.482-12.754-6.729-15.346c-2.172-2.453-3.713-2.031-4.623,1.261
		c-1.754,5.957-3.75,14.61-5.992,25.962l-9.355,46.879c-8.27,40.151-20.355,74.066-36.263,101.746
		c-19.411,33.707-44.291,57.636-74.631,71.792l2.104-6.098c10.09-5.256,19.862-11.947,29.324-20.077
		c9.459-8.199,18.041-17.343,25.752-27.434c14.365-18.78,26.102-41.519,35.211-68.216c4.414-12.894,9.32-31.567,14.717-56.023
		l9.248-43.621c3.436-16.607,5.57-25.961,6.412-28.064c2.242-5.465,5.08-7.043,8.514-4.73c3.781,2.522,7.148,9.004,10.09,19.445
		c15.137,53.747,19.131,104.865,11.982,153.354c-7.357,50.523-26.275,93.722-56.762,129.598
		c-11.771,13.804-25.713,26.524-41.832,38.155c-15.768,11.28-32.339,20.636-49.716,28.063c1.541-3.433,2.558-6.197,3.047-8.303
		c34.826-16.116,63.242-37.173,85.245-63.17c29.359-34.475,47.824-76.661,55.393-126.551
		C774.299,322.133,770.586,272.592,755.799,221.857"/>
	<path fill="#0D131A" d="M706.396,349.249c15.139-7.566,29.957-6.691,44.463,2.627c5.957,3.785,10.686,8.444,14.188,13.981
		c3.436,5.465,4.906,10.65,4.414,15.555l-1.576,3.469c-0.701-15.065-8.512-26.137-23.438-33.214
		c-6.518-3.083-13.281-4.554-20.287-4.414c-7.289,0.141-13.734,2.067-19.342,5.78L706.396,349.249"/>
	<path fill="#0D131A" d="M716.594,322.448c4.133-3.573,9.072-5.746,14.82-6.517c5.676-0.771,11.631-0.141,17.869,1.893
		c6.729,2.242,12.088,5.745,16.082,10.51c3.854,4.554,6.551,10.439,8.094,17.659l-1.053,4.098
		c-1.471-6.866-4.273-12.894-8.408-18.078c-4.344-5.396-9.67-9.145-15.977-11.248c-5.885-1.961-11.912-2.522-18.078-1.681
		c-6.166,0.84-11.178,2.907-15.033,6.2L716.594,322.448"/>
	<path fill="#0D131A" d="M319.279,497.98c1.753,2.242,2.383,4.377,1.893,6.41c-18.43-10.302-31.777-16.433-40.046-18.395
		c-0.489-1.261-0.596-2.732-0.316-4.414c3.434,0.771,9.215,2.77,17.343,5.991C307.963,491.496,315.005,494.967,319.279,497.98"/>
	<path fill="#0D131A" d="M287.537,547.591v-4.309l11.248,4.729c7.567,3.574,14.469,7.85,20.707,12.824
		c2.452,1.96,4.975,3.257,7.565,3.89c3.225,0.77,7.288,0.807,12.194,0.104c2.172,1.401,3.363,2.769,3.573,4.102l-16.082,0.421
		c-3.854-0.981-7.497-2.981-10.932-5.991c-2.94-2.662-7.427-5.644-13.453-8.936C296.892,551.48,291.951,549.202,287.537,547.591"/>
	<path fill="#0D131A" d="M279.127,484.315c-3.714-22.845-9.6-34.791-17.659-35.841c-3.642-0.488-7.567,1.398-11.771,5.676
		c-3.784,3.854-7.042,8.76-9.774,14.714l-2.208-0.421l-1.472,0.21c3.573-8.268,7.778-14.681,12.614-19.233
		c4.625-4.414,9.004-6.306,13.139-5.676c9.81,1.474,16.783,14.786,20.917,39.943c2.872,17.517,4.728,31.671,5.569,42.462
		c0.771,11.281,0.596,21.303-0.524,30.063c-0.632,4.834-2.349,9.598-5.151,14.293c-2.874,4.834-5.78,7.674-8.725,8.514
		c-4.204,1.264-9.741,0.105-16.606-3.469c-8.549-4.483-14.681-6.973-18.396-7.463c-6.866-0.912-13.946-0.248-21.232,1.998
		c-7.848,2.381-14.681,6.27-20.496,11.668c-0.91-2.805-1.647-4.416-2.206-4.837c5.395-4.974,12.928-8.654,22.597-11.036
		c8.97-2.173,16.572-2.559,22.81-1.155c3.434,0.77,9.741,3.154,18.92,7.146c6.026,2.662,10.686,3.225,13.979,1.681
		c5.605-2.521,9.179-8.408,10.721-17.658C286.486,542.513,284.805,518.653,279.127,484.315"/>
	<path fill="#0D131A" d="M183.688,512.907l-0.419-7.568c6.656-10.651,13.313-18.885,19.971-24.702
		c9.317-8.196,19.445-12.683,30.375-13.452c7.427-0.561,14.471,1.575,21.128,6.412c8.687,6.306,13.839,15.976,15.451,29.007
		c0.351,2.454,0.21,3.75-0.42,3.893c-0.631,0.069-1.227-1.156-1.788-3.679c-4.484-19.271-15.066-29.43-31.743-30.482
		c-10.862-0.631-21.302,3.609-31.324,12.719C197.422,491.778,190.346,501.063,183.688,512.907"/>
	<path fill="#0D131A" d="M32.962,438.385c7.357-0.914,15.731-0.983,25.12-0.211c10.371,0.91,18.498,2.662,24.385,5.256
		c1.822,0.843,6.656,4.941,14.505,12.298c8.127,7.641,13.139,12.018,15.03,13.139l0.63-0.313l-4.412,2.522l-15.347-12.614
		c-8.198-6.937-13.139-10.79-14.82-11.563c-4.485-1.962-11.877-3.469-22.178-4.52c-10.091-1.119-17.378-1.189-21.862-0.212
		c-2.243,0.491-2.873,1.963-1.892,4.415c1.19,2.942,5.324,5.675,12.402,8.199c6.167,2.243,10.44,4.204,12.824,5.885
		c1.822,1.333,4.03,3.716,6.622,7.148l26.908,34.581l7.042,9.46l3.154,8.722c6.377,20.391,13.91,38.999,22.599,55.817
		c9.669,18.565,18.779,30.795,27.329,36.68c0,1.334-0.42,2.663-1.262,3.996c-10.582-5.679-20.847-18.288-30.797-37.841
		c-8.059-15.695-15.311-34.65-21.756-56.863c-1.121-3.995-2.208-6.901-3.259-8.723c-1.121-2.034-3.4-5.048-6.833-9.041
		c-9.809-11.632-18.253-22.354-25.329-32.162c-3.154-4.276-5.467-7.077-6.937-8.41c-2.103-1.822-5.468-3.574-10.093-5.256
		c-10.301-3.643-16.607-7.777-18.919-12.403C23.573,441.886,25.956,439.225,32.962,438.385"/>
	<path fill="#0D131A" d="M156.78,430.5c-4.764-8.831-9.18-14.645-13.244-17.448c-5.115-3.433-11.598-6.656-19.445-9.669
		c-6.586-2.523-12.332-4.241-17.238-5.152c-4.834-0.84-7.707,0.035-8.618,2.629c-1.052,2.872,0.98,6.972,6.096,12.298
		c7.428,7.707,13.595,15.065,18.499,22.074c3.574,5.185,5.957,9.423,7.147,12.718c0.562,1.331,0.981,5.604,1.262,12.824
		c0.21,6.025-0.034,9.142-0.736,9.354c-0.701,0.209-1.507-2.662-2.417-8.617l-1.156-7.467c-0.49-2.801-1.19-5.186-2.101-7.146
		c-1.192-2.733-3.889-6.831-8.093-12.296c-4.975-6.661-10.545-13.106-16.711-19.343c-5.466-5.605-7.849-10.896-7.148-15.874
		c0.771-5.324,5.081-7.427,12.929-6.306c5.184,0.701,12.331,2.767,21.44,6.2c9.18,3.576,16.118,6.905,20.812,9.988
		c3.365,2.172,7.115,7.566,11.248,16.187c5.327,11.001,9.495,18.534,12.509,22.597l5.362,6.623c2.171,2.732,3.713,5.256,4.625,7.567
		c1.681,4.346,2.766,9.951,3.258,16.818c0.35,5.604,0.385,13.837,0.104,24.697c-0.491,22.705,2.032,42.5,7.569,59.386
		c1.891,5.819,5.325,13.28,10.3,22.391c2.804,5.047,1.822,12.51-2.944,22.388c-3.924,8.061-8.83,15.104-14.716,21.128
		c-2.662,2.732-8.162,5.677-16.503,8.83c-8.268,3.223-15.555,5.22-21.862,5.992c-7.216,0.911-11.946,0-14.188-2.732
		c-2.454-3.152-0.281-7.463,6.516-12.93c3.643-2.941,6.376-6.096,8.198-9.459c1.331-2.454,2.487-5.604,3.468-9.46
		c1.612-6.729,4.063-11.878,7.358-15.452c5.045-5.466,11.386-6.129,19.023-1.998c2.454,1.333,3.889,2.77,4.311,4.312
		c0.491,1.541-0.175,1.682-1.998,0.422c-4.555-3.294-9.038-4.029-13.454-2.207c-4.905,2.03-8.444,6.832-10.616,14.399
		c-1.752,6.234-3.188,10.302-4.309,12.194c-1.961,3.152-6.061,7.248-12.297,12.294c-1.962,1.612-2.664,3.12-2.103,4.521
		c0.701,1.47,2.733,2.103,6.097,1.894c6.867-0.493,14.679-2.558,23.438-6.204c7.918-3.225,13.491-6.34,16.712-9.353
		c4.204-3.856,8.269-9.638,12.192-17.346c4.625-9.179,5.782-15.836,3.469-19.971c-5.677-10.161-9.741-19.2-12.192-27.118
		c-4.554-14.507-6.517-30.693-5.885-48.561c0.77-21.724-0.527-37.558-3.889-47.512c-1.334-3.993-4.031-8.373-8.095-13.141
		C166.379,447.739,162.386,441.08,156.78,430.5"/>
	<path fill="#0D131A" d="M107.903,475.276c-3.153,3.435-5.5,7.674-7.042,12.719c-0.701,2.382-1.297,3.328-1.788,2.838
		c-0.489-0.49-0.63-2.102-0.42-4.836c0.49-5.113,2.347-9.424,5.57-12.929c1.331-1.329,3.329-2.486,5.991-3.468l6.622-2.522
		c4.065-1.962,7.113-4.625,9.145-7.986c1.402-2.314,1.998-3.893,1.788-4.731c1.333,2.313,1.856,4.238,1.577,5.781
		c0.141,1.823-0.947,3.89-3.259,6.202l-5.782,4.1l-6.62,1.679C111.164,472.826,109.235,473.877,107.903,475.276"/>
	<path fill="#0D131A" d="M464.96,574.395c7.22-6.098,12.72-10.125,16.503-12.085c6.309-3.365,11.772-3.999,16.397-1.895l1.052,3.678
		c-5.398-1.962-10.971-1.332-16.714,1.894c-2.522,1.401-7.431,5.187-14.715,11.351l-7.148,6.518
		c-2.661,2.385-4.834,3.958-6.515,4.731c-6.028,2.73-12.019,2.837-17.977,0.313c-4.902-2.032-8.303-4.837-10.194-8.41l3.468-1.892
		c1.401,2.732,4.063,4.834,7.99,6.308c4.764,1.75,9.599,1.506,14.503-0.736C454.206,583.048,458.655,579.791,464.96,574.395"/>
	<path fill="#0D131A" d="M544.845,472.121c6.726,3.717,12.018,7.674,15.874,11.878c1.821,1.896,3.957,4.802,6.41,8.726
		c-0.562,3.014-1.228,4.976-1.997,5.888c-1.332-3.155-3.785-6.903-7.358-11.247c-4.413-5.396-8.441-8.762-12.087-10.092
		l-0.313-2.522L544.845,472.121"/>
	<path fill="#0D131A" d="M483.041,539.708l2.734-3.259c17.376,28.592,32.057,50.103,44.04,64.539
		c-0.771,2.101-1.298,3.852-1.578,5.254c-7.778-8.55-16.256-19.934-25.437-34.16L483.041,539.708"/>
	<path fill="#0D131A" d="M627.146,405.38c9.109-1.894,15.521-1.542,19.232,1.052c5.676,3.854,0.104,14.364-16.713,31.53
		c-2.944,3.017-5.08,5.504-6.41,7.467c-2.103,3.083-3.364,6.271-3.785,9.563l-1.262,9.039l-0.735,5.782
		c1.684,3.712,3.469,6.688,5.362,8.935c1.753,1.96,3.958,3.643,6.62,5.043c2.033,1.121,3.575,2.941,4.625,5.468
		c0.913,2.17,1.614,5.466,2.104,9.879c0.42,3.224,0.313,4.692-0.316,4.415c-0.631-0.21-1.296-1.437-1.997-3.681l-3.259-9.038
		c-1.121-2.029-2.734-3.678-4.836-4.938c-4.555-2.734-7.674-6.343-9.354-10.831c-0.912,3.854-2.069,7.045-3.47,9.568
		c-1.333,2.452-1.855,2.416-1.575-0.105l3.783-33.846c0.35-2.805,6.062-9.809,17.133-21.021
		c9.949-10.093,13.734-16.397,11.351-18.921c-1.89-2.103-6.904-2.276-15.029-0.525c-9.459,2.104-18.953,6.309-28.482,12.613
		c-4.486,3.017-9.392,10.475-14.72,22.391l-11.455,28.693c-1.539,3.993-3.292,11.279-5.255,21.862l-5.677,32.058
		c-5.604,29.783-14.294,51.646-26.066,65.591c-4.767,5.673-7.568,11.771-8.408,18.288c-0.561,4.626-0.179,8.934,1.153,12.928
		c3.506,10.438,8.271,18.78,14.297,25.017c4.694,4.693,10.617,8.443,17.765,11.247c4.905,1.821,8.061,2.347,9.459,1.576
		c1.615-0.981,1.474-3.96-0.423-8.936c-2.45-6.307-3.92-10.722-4.411-13.245c-0.98-4.273-1.544-10.44-1.684-18.498l-0.21-8.514
		c-0.348-3.573-1.364-6.167-3.047-7.778c-2.803-2.664-7.04-3.328-12.718-1.996l-3.26-0.104c-0.351-0.563,0.524-1.297,2.627-2.208
		c6.659-2.803,11.912-2.664,15.77,0.421c3.643,2.871,5.323,9.426,5.044,19.656c-0.142,7.076,0.034,12.052,0.527,14.923
		c0.486,3.363,1.925,8.584,4.307,15.664c4.835,14.224,0.844,18.848-11.98,13.874c-8.688-3.507-15.45-7.778-20.284-12.823
		c-4.138-4.414-8.027-9.881-11.668-16.396c-3.436-6.309-5.537-11.527-6.309-15.662c-1.755-9.88,1.227-19.764,8.936-29.642
		c7.074-8.969,12.228-17.133,15.448-24.492c4.136-9.245,7.92-22.456,11.354-39.625c2.523-12.262,4.837-25.121,6.936-38.573
		c1.054-6.445,2.418-11.914,4.103-16.397c3.784-10.722,7.185-19.828,10.196-27.326c5.815-14.228,10.615-22.599,14.401-25.121
		C605.737,412.246,616.495,407.482,627.146,405.38"/>
	<path fill="#0D131A" d="M701.983,471.18c-7.429,3.432-11.913,5.568-13.456,6.411c-3.361,1.75-5.953,3.537-7.776,5.359
		c-6.8,6.795-16.536,20.392-29.22,40.782c-13.105,21.022-24.913,42.182-35.426,63.484c-8.267,16.748-15.521,28.414-21.758,35.002
		c-4.131,4.344-12.54,10.44-25.225,18.29c-0.142-0.562-0.176-1.334-0.104-2.312v-2.526c9.108-5.533,16.503-11.56,22.179-18.077
		c7.075-8.13,14.188-19.657,21.336-34.58c10.159-21.021,22.211-42.256,36.158-63.696c12.4-19.198,22.106-32.304,29.113-39.311
		c1.896-1.894,4.627-3.679,8.199-5.36c2.175-1.054,5.992-2.734,11.457-5.046c9.182-4.135,13.105-7.637,11.773-10.51
		c-1.119-2.455-4.766-3.681-10.932-3.681c-18.71,0-31.288,1.613-37.735,4.834c-3.854,1.895-8.969,6.379-15.346,13.456
		c-5.047,5.677-9.11,10.792-12.19,15.348l-3.681-3.262c4.063-5.745,8.863-11.528,14.399-17.344
		c6.519-6.728,11.842-11.141,15.977-13.242c4.417-2.172,10.688-3.435,18.815-3.785c4.693-0.209,11.877-0.313,21.546-0.313
		c7.223-0.209,11.527,1.999,12.93,6.623C714.563,462.561,710.881,467.044,701.983,471.18"/>
	<path fill="#0D131A" d="M366.158,422.62l5.466-16.505l3.363-0.734c-5.887,20.111-10.161,33.776-12.823,40.992l-2.104-7.25
		L366.158,422.62"/>
	<path fill="#0D131A" d="M478.415,449.946l-1.999,2.417c-20.599-15.347-43.304-22.812-68.109-22.389
		c-20.39,0.351-35.666,4.938-45.826,13.77l0.315-3.995c10.721-9.317,26.941-13.906,48.666-13.768
		C436.966,426.191,459.285,434.18,478.415,449.946"/>
	<path fill="#0D131A" d="M331.577,392.975l-11.563,27.856l-5.256,3.046c1.402-2.73,3.784-8.267,7.149-16.606l6.937-17.027
		L331.577,392.975"/>
	<path fill="#0D131A" d="M367.421,407.376l2.311-0.422l-4.729,10.511c-3.436,7.852-5.782,13.981-7.045,18.395
		c-0.562-0.769-0.875-1.786-0.945-3.044l-0.421-3.786l5.045-13.454l3.364-8.092L367.421,407.376"/>
	<path fill="#0D131A" d="M376.564,402.12c3.572-1.332,6.831-3.958,9.775-7.883c2.731-3.645,4.764-7.777,6.096-12.403l4.52-0.315
		c-3.224,13.315-9.286,21.722-18.185,25.229l-22.072,0.63c-8.899-2.452-18.988-7.92-30.271-16.397
		c-2.872-2.173-6.796-3.434-11.773-3.783c-5.955-0.35-12.613,0.701-19.971,3.154l-9.459-0.212
		c-2.453-1.752-3.223-5.396-2.311-10.931c2.242-12.964,7.743-23.298,16.501-31.007c4.272-3.784,9.706-6.971,16.291-9.565
		c6.518-2.521,13.561-4.274,21.129-5.255l3.573,3.784c-7.219,0.211-14.541,2.032-21.969,5.465
		c-6.166,2.802-11.212,6.061-15.135,9.776c-3.505,3.363-6.588,7.428-9.25,12.191c-2.732,4.905-4.449,9.566-5.15,13.979
		c-2.032,7.08-0.525,9.776,4.52,8.095c14.995-5.045,27.294-4.274,36.894,2.313c10.09,6.867,18.252,11.317,24.488,13.349
		C362.374,404.783,369.627,404.714,376.564,402.12"/>
	<path fill="#0D131A" d="M375.199,477.905c3.642,4.765,9.317,10.721,17.025,17.869c1.892,1.75,3.609,4.134,5.152,7.146
		c1.399,2.803,2.382,5.604,2.942,8.407l-5.255-3.468c-0.07-1.263-0.734-2.908-1.998-4.939c-1.119-1.753-2.276-3.153-3.469-4.204
		c-8.338-7.428-14.68-14.332-19.024-20.709c-3.364-4.974-5.957-10.37-7.778-16.187l-2.629-13.138
		c-1.121-6.026-2.732-11.216-4.834-15.558c-2.944-6.024-8.41-9.914-16.396-11.667c-7.288-1.542-13.665-0.91-19.13,1.893
		c-3.505,1.822-7.394,5.502-11.669,11.034c-4.625,6.167-7.288,11.704-7.987,16.61c-0.49,3.222-0.142,6.166,1.053,8.83
		c0.908,2.031,2.837,4.8,5.779,8.304c3.995,4.766,8.059,13.21,12.194,25.331c4.063,11.91,6.621,22.771,7.672,32.585
		c1.331,12.261,3.923,22.071,7.778,29.431c3.503,6.447,8.268,11.419,14.294,14.925l0.523,4.938
		c-7.216-3.223-12.753-7.742-16.606-13.559c-5.396-8.268-9.003-20.566-10.826-36.894c-0.979-9.46-3.399-19.899-7.253-31.323
		c-3.854-11.489-7.567-19.269-11.14-23.335c-3.645-4.204-6.131-7.881-7.465-11.034c-1.681-3.995-1.961-8.062-0.839-12.192
		c1.051-3.925,3.853-8.896,8.409-14.925c5.115-6.658,9.984-11.038,14.61-13.14c6.657-2.941,13.875-3.54,21.651-1.788
		c8.899,2.033,15.206,6.691,18.92,13.981c1.962,3.782,3.399,8.757,4.31,14.924l2.417,13.349
		C367.665,466.063,370.854,472.229,375.199,477.905"/>
	<path fill="#0D131A" d="M380.35,509.854c-3.645,1.964-6.167,5.152-7.567,9.568c-0.911,0.488-1.857,1.087-2.838,1.787
		c1.472-7.78,4.381-12.685,8.724-14.715c6.307-2.804,11.525-3.014,15.661-0.632c2.383,1.333,4.169,3.328,5.36,5.993l-1.788,1.472
		c-0.84-1.893-2.593-3.4-5.255-4.521C388.862,507.195,384.762,507.547,380.35,509.854"/>
	<path fill="#0D131A" d="M353.756,583.538c-4.835-4.622-7.148-8.512-6.938-11.665c0.771-7.499,4.554-12.088,11.352-13.771
		l1.471,3.048c-1.542,0.424-3.083,1.262-4.625,2.523c-1.612,1.473-2.802,3.118-3.574,4.941c-1.681,4.344-0.56,8.442,3.363,12.295
		c3.226,3.155,8.585,5.26,16.083,6.308c7.426,0.981,10.301,0.212,8.618-2.311l-3.783-6.621l2.943,0.525l3.259,4.623
		c1.331,2.103,1.016,3.996-0.947,5.677c-2.381,1.895-6.551,2.313-12.507,1.264C362.164,589.251,357.259,586.976,353.756,583.538"/>
	<path fill="#0D131A" d="M380.77,536.87c4.975,3.644,8.338,6.553,10.089,8.722c-0.63,0.635-0.946,1.51-0.946,2.631
		c-2.522-3.436-5.466-6.235-8.829-8.408s-6.622-3.328-9.773-3.469c-2.733-0.143-5.257,0.385-7.567,1.575
		c-2.803,1.333-4.801,3.436-5.992,6.306c-2.592,5.749-0.946,11.425,4.94,17.028l2.837,2.526l-1.787,0.836l-1.473,0.107
		c-5.045-3.994-8.059-8.268-9.04-12.823c-0.63-2.941-0.35-5.853,0.842-8.725c2.173-4.905,6.167-8.059,11.982-9.462
		C369.416,535.188,374.321,536.242,380.77,536.87"/>
	<path fill="#0D131A" d="M360.482,575.972l1.156,0.314l1.682-0.42c-1.12,1.398-1.891,3.152-2.313,5.256
		c-0.351,1.753-0.351,3.153,0,4.203l-2.207,0.735c-0.35-1.19-0.384-2.697-0.104-4.519
		C358.976,579.507,359.57,577.654,360.482,575.972"/>
	<path fill="#0D131A" d="M385.92,542.229c-4.065,0.354-7.604,1.967-10.617,4.838c-3.713,3.573-5.396,8.096-5.045,13.561
		l-1.892,0.524c-0.842,0.279-1.437,0.523-1.786,0.734c-1.121-6.517,0.908-12.018,6.096-16.503c3.924-3.433,7.708-5.29,11.352-5.57
		L385.92,542.229"/>
	<path fill="#0D131A" d="M375.303,516.898c11.422-4.765,19.689-6.902,24.806-6.411l-1.788,3.468
		c-3.854-0.352-10.931,1.402-21.231,5.258c-10.721,4.063-16.01,7.426-15.872,10.088c0.07,1.894,4.45,3.678,13.139,5.36l16.818,1.998
		l0.421,3.891c-5.816,0-12.58-1.122-20.286-3.363c-8.97-2.524-13.455-5.325-13.455-8.409
		C357.924,525.695,363.74,521.733,375.303,516.898"/>
	<path fill="#0D131A" d="M378.141,535.715c-1.753-2.243-2.664-5.396-2.732-9.459c-0.071-5.255,1.962-9.041,6.095-11.353l2.628-0.105
		c-3.713,2.523-5.535,6.517-5.465,11.982c0.068,4.344,0.913,7.603,2.523,9.773L378.141,535.715"/>
	<path fill="#0D131A" d="M390.019,578.073l6.728-0.525c-12.684,8.971-18.851,13.944-18.499,14.925
		c19.2,3.224,35.809-1.752,49.822-14.925l4.414,0.208c-9.321,9.32-20.393,15.244-33.215,17.762
		c-9.671,1.826-17.343,1.686-23.019-0.416c-2.594-0.983-1.998-3.399,1.786-7.252C380.696,585.046,384.692,581.785,390.019,578.073"
		/>
	<path fill="#0D131A" d="M388.546,582.49l1.786-1.474c1.612,2.873,4.73,5.044,9.355,6.518c5.045,1.61,10.09,1.717,15.133,0.314
		l-0.839,2.31l-15.871-0.42C393.416,588.061,390.229,585.643,388.546,582.49"/>
	<path fill="#0D131A" d="M392.015,543.703l-0.63,4.627c-0.981,0.42-6.237,3.538-15.768,9.352l-16.187,9.988
		c-1.682,1.12-2.454,2.24-2.313,3.363c0.069,1.05,0.84,1.926,2.313,2.627c5.115,2.381,11.176,3.854,18.185,4.413
		c8.828,0.63,16.535-0.63,23.123-3.782l4.205,1.472c-8.831,4.204-17.765,6.062-26.804,5.57c-7.218-0.49-13.979-2.348-20.286-5.57
		c-2.592-1.262-3.925-2.73-3.995-4.413c-0.142-1.896,1.473-3.959,4.835-6.201l16.818-10.934
		C385.604,547.629,391.104,544.124,392.015,543.703"/>
	<path fill="#0D131A" d="M386.55,580.072c-3.646,0.141-7.146-2.35-10.511-7.463c-3.713-5.677-3.748-11.106-0.105-16.295l3.153-1.681
		c-3.503,4.136-3.643,9.287-0.419,15.453c3.083,5.953,6.798,9.004,11.141,9.144L386.55,580.072"/>
	<path fill="#0D131A" d="M498.49,431.972c-0.63-0.209-1.472-0.031-2.521,0.524l-2.206,1.264c0-5.536,0.387-12.647,1.153-21.337
		l1.053-11.983l3.78-0.946l-0.628,11.247L498.49,431.972"/>
	<path fill="#0D131A" d="M534.964,414.524l-0.526-28.906l4.52-1.681c0.279,1.612,0.422,10.86,0.422,27.75
		c-0.07,19.688-0.666,33.25-1.787,40.678c-0.913-2.453-2.032-4.274-3.365-5.467C534.719,439.469,534.964,428.679,534.964,414.524"/>
	<path fill="#0D131A" d="M466.539,331.381l6.725-1.681c-10.58,8.758-13.839,20.566-9.773,35.422
		c3.995,14.575,12.893,25.086,26.698,31.532c3.013,1.471,5.922,2.138,8.725,1.996c3.152-0.208,6.69-1.365,10.613-3.467
		c21.652-11.703,35.844-17.028,42.568-15.977c7.289,1.052,14.263,5.149,20.918,12.299c6.307,6.867,8.305,11.456,5.994,13.771
		c-1.191,1.332-2.698,2.279-4.521,2.837c-2.103,0.634-2.066,0.352,0.107-0.841c2.8-1.54,1.749-5.29-3.154-11.246
		c-5.188-6.377-11.667-10.546-19.445-12.51c-3.366-0.841-9.039,0.456-17.029,3.889c-3.505,1.542-12.787,6.097-27.854,13.666
		c-3.084,1.542-6.099,2.348-9.041,2.417c-3.155,0.141-6.409-0.559-9.774-2.103c-14.575-6.798-24.281-17.658-29.116-32.585
		C454.206,353.666,456.654,341.192,466.539,331.381"/>
	<path fill="#0D131A" d="M547.995,320.347c8.199,4.483,14.892,9.39,20.077,14.715c8.131,8.268,14.088,19.935,17.868,35.001
		c3.995,15.978,3.223,28.029-2.313,36.159c-2.804,4.136-9.037,7.318-18.71,9.565c-9.179,2.031-18.287,2.592-27.328,1.68l0.104-3.888
		c7.639,0.909,15.56,0.384,23.756-1.579c8.269-1.961,14.472-4.834,18.604-8.616c4.696-4.345,5.434-13.839,2.21-28.486
		c-3.435-15.416-9.599-27.329-18.5-35.737c-15.695-14.925-30.586-22.879-44.669-23.86l2.941-1.576l2.418-1.893
		C531.459,312.813,539.308,315.649,547.995,320.347"/>
	<path fill="#0D131A" d="M517.83,437.229c-6.445-2.731-12.893-3.927-19.342-3.574c-4.063,0.211-7.252,1.295-9.563,3.261
		c-3.153,2.662-7.395,8.337-12.719,17.027c-4.907,8.127-11.178,16.116-18.816,23.964c-7.708,7.989-15.657,14.539-23.857,19.655
		c-2.031,1.261-8.517,3.893-19.447,7.881c-8.548,3.084-13.769,6.272-15.66,9.565c-4.485,8.058-5.921,18.605-4.312,31.64
		c1.544,12.682,5.152,21.758,10.828,27.223c2.311,2.245,6.235,3.608,11.771,4.098c6.589,0.494,12.964-0.768,19.13-3.778
		c9.95-4.906,24.42-16.361,43.41-34.373c23.965-22.774,39.629-36.998,46.982-42.675c6.519-5.044,10.759-8.937,12.718-11.667
		c2.245-3.153,3.436-7.252,3.574-12.299c0.069-3.716-0.91-8.096-2.942-13.14c-2.173-5.324-5.009-9.95-8.514-13.875
		C527.852,442.589,523.438,439.609,517.83,437.229 M498.912,430.077c6.656-0.207,13.557,1.017,20.707,3.681
		c6.234,2.312,10.685,4.87,13.35,7.672c3.78,3.855,6.971,8.516,9.563,13.98c3.296,6.729,4.8,13.033,4.521,18.919
		c-0.142,4.763-1.438,8.795-3.892,12.087c-2.733,3.854-8.582,9.356-17.554,16.505c-7.007,5.604-22.637,20.391-46.877,44.355
		c-17.45,17.236-31.604,28.1-42.467,32.584c-5.114,2.104-11.18,2.804-18.183,2.104c-6.657-0.632-11.598-2.281-14.822-4.94
		c-6.376-5.258-10.651-14.82-12.822-28.694c-2.243-14.363-0.843-25.962,4.204-34.793c2.172-3.856,7.498-7.287,15.976-10.301
		c11.215-3.993,17.977-6.729,20.284-8.198c7.149-4.485,13.666-9.671,19.554-15.556c9.248-9.182,18.5-21.234,27.749-36.159
		c2.803-4.481,5.885-7.777,9.25-9.88C490.749,431.343,494.568,430.221,498.912,430.077"/>
	<path fill="#0D131A" d="M307.296,139.243c20.252,7.006,35.106,14.785,44.566,23.333l-3.573,1.998
		c-8.198-7.499-21.582-14.189-40.151-20.076c-18.008-5.745-27.89-6.973-29.64-3.678c-2.242,4.133-0.911,16.291,3.994,36.474
		c5.187,21.442,11.422,37.838,18.711,49.191l-2.417,3.364c-7.219-8.901-14.227-26.211-21.022-51.928
		c-6.729-25.368-8.41-39.978-5.047-43.831C275.87,130.587,287.396,132.305,307.296,139.243"/>
	<path fill="#0D131A" d="M476.84,155.953l-6.938,2.418c-20.04-8.41-41.307-11.738-63.804-9.986
		c-23.823,1.891-45.196,9.25-64.115,22.073c-2.941,1.962-4.624,2.521-5.045,1.68c-0.42-0.91,0.981-2.486,4.204-4.731
		c18.499-13.242,40.012-20.987,64.534-23.228C430.835,141.799,454.555,145.725,476.84,155.953"/>
	<path fill="#0D131A" d="M562.397,137.979c2.943,2.943,1.264,15.66-5.047,38.156c-6.799,24.595-15.417,43.409-25.854,56.444
		l-1.998-4.31c8.479-10.582,15.941-27.156,22.389-49.717c6.098-21.232,7.775-32.794,5.045-34.687
		c-3.154-2.242-14.784-1.472-34.896,2.314c-21.861,4.133-41.591,9.915-59.176,17.342c-4.136,1.752-6.166,2.032-6.098,0.84
		c0.142-1.19,1.542-2.417,4.206-3.679c16.955-8.337,37.628-15.031,62.015-20.075C546.107,135.772,559.246,134.896,562.397,137.979"
		/>
	<path fill="#0D131A" d="M547.053,152.694c4.692-2.382,7.568-3.469,8.619-3.259c1.118,0.21-0.982,1.857-6.309,4.94
		c-6.796,3.996-13.451,9.181-19.973,15.557c-6.728,6.655-11.7,13.032-14.925,19.129c-0.842,1.472-1.262,2.663-1.262,3.574
		c0,0.84,0.387,1.82,1.156,2.943c19.622,27.89,29.991,57.074,31.111,87.557c0.422,9.11-1.684,16.188-6.308,21.231
		c-5.184,5.606-14.643,10.268-28.379,13.979c-20.671,5.607-37.278,11.598-49.82,17.974c-12.614,6.447-23.478,14.504-32.586,24.176
		c-9.669,10.299-16.956,16.887-21.863,19.761c-5.323,3.083-12.155,4.449-20.494,4.098c-13.174-0.628-23.403-9.67-30.691-27.118
		c-2.593-6.167-7.604-12.333-15.03-18.499c-9.81-8.058-25.367-17.728-46.668-29.009c-3.014-1.612-5.221-4.135-6.622-7.569
		c-1.332-3.291-2.068-7.812-2.207-13.559c-0.141-7.077,1.051-16.888,3.573-29.432c2.594-12.683,5.606-23.475,9.039-32.374
		c1.261-3.364,3.225-7.533,5.887-12.508c2.872-5.255,5.885-10.196,9.038-14.82c1.189-1.751,1.823-3.014,1.892-3.784
		c0.141-0.979-0.246-2.487-1.155-4.519c-3.154-7.638-8.516-16.258-16.082-25.854c-6.588-8.34-12.369-14.542-17.343-18.608
		c-4.625-3.783-6.376-5.815-5.255-6.095c1.121-0.281,4.311,1.681,9.566,5.885c13.242,10.581,23.859,24.523,31.847,41.833
		c1.542,3.433,2.35,5.675,2.417,6.728c0.071,1.331-0.734,3.258-2.417,5.781c-6.097,9.179-10.859,18.29-14.293,27.329
		c-3.644,9.601-6.48,20.041-8.515,31.323c-1.961,11.142-2.697,20.706-2.208,28.694c0.281,5.466,0.912,9.319,1.893,11.563
		c1.051,2.592,3.119,4.729,6.201,6.413c19.622,10.93,33.707,19.864,42.254,26.802c7.988,6.517,13.804,13.629,17.446,21.337
		c3.854,8.127,7.673,14.085,11.458,17.869c4.414,4.345,9.705,6.796,15.872,7.358c7.567,0.63,13.839-0.42,18.813-3.153
		c5.396-2.944,12.335-9.355,20.812-19.236c9.672-11.282,24.633-21.162,44.883-29.641c10.58-4.415,24.807-9.075,42.674-13.979
		c9.952-2.803,16.992-6.762,21.126-11.877c3.783-4.695,5.505-10.86,5.15-18.499c-1.19-31.113-10.369-59.142-27.539-84.088
		c-1.895-2.732-2.838-4.765-2.838-6.097c0.071-1.4,1.226-4.063,3.47-7.988c3.854-6.517,9.109-12.789,15.767-18.814
		C534.473,160.403,540.746,155.918,547.053,152.694"/>
	<path fill="#0D131A" d="M321.487,284.924c-4.203-3.434-6.199-5.606-5.991-6.517c0.209-0.912,2.557,0.071,7.043,2.943
		c15.417,9.81,25.751,21.725,31.006,35.737c1.331,3.364,1.578,5.115,0.735,5.257c-0.841,0.069-2.172-1.473-3.993-4.626
		C343.209,305.666,333.608,294.733,321.487,284.924"/>
	<path fill="#0D131A" d="M437.21,297.852c-5.113,6.027-9.459,12.402-13.03,19.13c-2.104,3.923-3.507,5.535-4.207,4.834
		c-0.699-0.699-0.209-3.083,1.474-7.146c3.082-7.638,7.46-14.715,13.138-21.231c5.396-6.166,11.737-11.527,19.025-16.082
		c7.639-4.764,11.771-6.587,12.402-5.465c0.629,1.19-2.768,4.274-10.194,9.25C449.229,285.554,443.029,291.125,437.21,297.852"/>
	<path fill="#0D131A" d="M370.677,360.707c-0.069-1.051,0.036-1.611,0.315-1.681l1.473,1.05c1.542,1.892,2.416,3.75,2.628,5.57
		c0.141,1.051-0.176,1.577-0.946,1.577c-0.771,0.069-1.4-0.246-1.892-0.947C371.272,364.667,370.748,362.81,370.677,360.707"/>
	<path fill="#0D131A" d="M402.525,360.707c1.33-1.542,2.242-2.207,2.733-1.997c0.417,0.209,0.454,1.226,0.104,3.047
		c-0.42,1.962-1.017,3.539-1.785,4.729c-0.771,1.192-1.647,1.683-2.629,1.473c-0.979-0.14-1.332-0.877-1.051-2.208
		C400.388,363.86,401.265,362.179,402.525,360.707"/>
</g>
</svg>
