<?xml version="1.0" encoding="utf-8"?>
<!-- Generator: Adobe Illustrator 16.0.0, SVG Export Plug-In . SVG Version: 6.00 Build 0)  -->
<!DOCTYPE svg PUBLIC "-//W3C//DTD SVG 1.1//EN" "http://www.w3.org/Graphics/SVG/1.1/DTD/svg11.dtd">
<svg version="1.1" id="Layer_1" xmlns="http://www.w3.org/2000/svg" xmlns:xlink="http://www.w3.org/1999/xlink" x="0px" y="0px"
	 width="800px" height="800px" viewBox="0 0 800 800" enable-background="new 0 0 800 800" xml:space="preserve">
<g>
	<path fill="#D7A400" d="M295.206,311.234l27.574,17.245c-6.696,3.916-16.646,13.015-29.849,27.291l-22.836,25.299
		c-1.642,1.644-3.6,0.854-5.875-2.368c-2.023-2.843-3.79-6.822-5.306-11.939c-1.58-5.181-2.306-9.664-2.18-13.455
		c0.188-4.295,1.484-6.538,3.884-6.728c4.484-0.379,11.339-5.844,20.563-16.395C289.141,321.024,293.816,314.709,295.206,311.234"/>
	<path fill="#B08600" d="M322.78,328.479c-6.254,3.602-15.665,12.098-28.237,25.489c2.843-7.581,4.233-14.148,4.17-19.709
		c0-7.012-2.149-13.107-6.444-18.288l2.937-4.737L322.78,328.479"/>
	<path fill="#D7A400" d="M410.904,505.485c-7.327,6.885-14.371,5.086-21.13-5.4c-2.086-3.35-4.044-7.328-5.876-11.94l-2.084-5.969
		c3.854,0,10.36-1.96,19.52-5.876c10.298-4.357,17.185-8.78,20.658-13.266c2.212-2.843,4.483-4.676,6.82-5.495l9.57,0.379
		c4.929,1.643,9.92,5.307,14.973,10.992c5.687,6.442,7.139,11.779,4.358,16.014c-0.757,1.138-2.905,2.21-6.442,3.222l-11.75,2.938
		C427.204,494.304,417.663,499.104,410.904,505.485"/>
	<path fill="#D7A400" d="M582.415,501.884c-9.728-10.484-20.088-18.065-31.079-22.741c-7.834-3.347-13.868-4.675-18.099-3.979
		l22.457-33.639c2.652,6.633,7.644,12.382,14.972,17.244c11.055,7.267,26.185,11.276,45.388,12.035
		c10.234,0.442,15.731,3.442,16.488,9.002c0.695,4.928-2.084,10.358-8.338,16.299c-6.255,5.938-13.203,9.729-20.847,11.37
		C594.576,509.37,587.597,507.507,582.415,501.884"/>
	<path fill="#B08600" d="M442.174,460.477c4.992,2.464,9.256,5.812,12.793,10.044c4.611,5.497,5.527,10.298,2.748,14.403
		c-0.757,1.138-2.905,2.21-6.441,3.222l-11.75,2.938c-12.318,3.221-21.859,8.021-28.618,14.402
		c-4.168,3.979-8.339,5.022-12.507,3.128c-3.223-1.519-6.349-4.801-9.382-9.855c13.708-4.549,24.479-9.507,32.313-14.878
		c9.729-6.633,12.825-12.759,9.286-18.381c-3.41-5.434-3.316-8.245,0.285-8.434C433.552,456.938,437.311,458.075,442.174,460.477"/>
	<path fill="#B08600" d="M555.694,441.524c1.136,2.843,3.82,6.317,8.054,10.424c4.864,4.737,10.235,8.622,16.109,11.655
		c-4.802,7.707-3.442,14.845,4.074,21.414c6.063,5.307,17.086,10.865,33.068,16.678c-6.126,3.854-12.128,5.971-18.004,6.348
		c-6.821,0.444-12.348-1.609-16.582-6.159c-9.729-10.484-20.088-18.065-31.079-22.741c-7.834-3.347-13.868-4.675-18.099-3.979
		L555.694,441.524"/>
	<path fill="#D7A400" d="M424.55,451.854c-1.264-2.59-0.283-7.612,2.938-15.066c3.222-7.518,6.568-12.57,10.045-15.161
		l101.769-19.805l8.244,3.79c5.56,2.778,8.562,4.958,9.002,6.538l5.021,16.108c2.212,9.097,1.675,14.372-1.61,15.823
		c-3.728,1.644-8.369,10.486-13.929,26.532c-5.748,16.616-10.867,26.469-15.353,29.564c-8.591,5.874-22.174,8.687-40.745,8.435
		c-19.015-0.316-28.743-3.98-29.185-10.993c-0.316-5.874-6.13-14.688-17.436-26.436C431.688,460.065,425.435,453.621,424.55,451.854
		"/>
	<path fill="#B08600" d="M479.13,451.474c-1.199-5.495-1.042-8.021,0.474-7.579c3.223,1.072,12.764-1.581,28.617-7.961
		c13.709-5.494,23.312-9.885,28.808-13.172c3.031-1.832,3.854-4.483,2.464-7.958c-2.654-6.887-4.075-10.96-4.266-12.224l4.074-0.759
		l8.244,3.79c5.559,2.778,8.562,4.958,9.002,6.538l5.021,16.108c2.212,9.097,1.675,14.372-1.61,15.823
		c-3.728,1.644-8.369,10.486-13.929,26.532c-5.748,16.616-10.867,26.469-15.353,29.564c-5.18,3.537-13.233,6.002-24.163,7.391
		c-10.611,1.392-20.308,1.392-29.09,0c8.086-3.916,10.107-16.075,6.065-36.481L479.13,451.474"/>
	<path fill="#A4725D" d="M339.647,237.797c9.728,18.951,17.025,35.533,21.889,49.747c15.541,45.673,3.759,59.571-35.343,41.693
		c-21.921-10.044-37.115-22.108-45.58-36.196c-7.264-12.067-9.097-24.607-5.495-37.62c3.159-11.624,9.855-21.509,20.088-29.658
		c10.044-8.023,20.468-12.034,31.27-12.034L339.647,237.797"/>
	<path fill="#A4725D" d="M388.827,385.429c-5.181-2.591-11.371-11.213-18.572-25.868c-10.931-22.236-5.781-42.829,15.444-61.781
		c19.017-16.993,45.138-28.49,78.365-34.491c33.604-6.065,61.621-4.011,84.049,6.158c25.521,11.561,36.419,31.489,32.69,59.792
		c-1.39,10.675-5.021,18.92-10.896,24.73c-6.508,4.611-10.676,7.834-12.508,9.666c-4.93,4.989-8.371,9.442-10.329,13.36
		c-4.169,8.086-6.225,18.32-6.159,30.702c-9.854,9.602-28.712,16.107-56.571,19.52l-29.184,1.327
		c-8.528-0.569-13.268-1.992-14.214-4.265c-2.907-6.823-7.93-13.772-15.066-20.848l-9.949-8.527
		C401.523,390.419,392.489,387.262,388.827,385.429"/>
	<path fill="#815847" d="M376.603,371.5c-2.463-4.296-4.578-8.275-6.348-11.939c-10.931-22.235-5.781-42.828,15.444-61.78
		c19.017-16.993,45.138-28.49,78.365-34.491c33.604-6.065,61.621-4.011,84.049,6.158c25.521,11.561,36.419,31.489,32.69,59.792
		c-1.39,10.675-5.021,18.92-10.896,24.73c-6.508,4.611-10.676,7.834-12.508,9.666c-4.93,4.989-8.371,9.442-10.329,13.36
		c-4.169,8.086-6.225,18.32-6.159,30.702l-3.603,3.22c-4.547,3.728-8.242,6.002-11.086,6.824
		c-8.401-12.95-15.255-22.554-20.563-28.807c-9.096-10.803-17.529-17.403-25.299-19.805c-13.581-4.107-32.439-6.506-56.569-7.201
		C395.869,361.044,380.142,364.235,376.603,371.5"/>
	<path fill="#A4725D" d="M595.871,227.28c6.822,5.306,11.845,12.002,15.066,20.087c2.777,6.824,3.76,13.013,2.938,18.572
		c-1.832,12.95-4.643,24.922-8.434,35.913c-5.117,14.907-11.022,24.512-17.72,28.807c-6.443,4.104-20.277,7.139-41.504,9.097
		l-38.377,1.896c-4.738,0-10.738-5.495-18.004-16.488c-6.063-9.223-9.698-16.109-10.896-20.656
		c-7.58-9.033-11.781-19.205-12.604-30.513c-1.578-22.551,14.563-39.45,48.423-50.695C550.261,211.487,577.3,212.811,595.871,227.28
		"/>
	<path fill="#815847" d="M514.76,223.298c9.854-3.22,19.016-5.432,27.479-6.633c-6.823,8.528-10.521,19.962-11.088,34.303
		c-0.188,6.254,0.602,10.897,2.368,13.93c2.087,3.41,5.148,4.2,9.192,2.368c2.717-1.2,7.548-4.011,14.497-8.434
		c7.075-4.484,12.698-7.707,16.867-9.665c14.401-6.695,26.975-6.507,37.713,0.568c2.021,6.002,2.717,11.401,2.085,16.203
		l-1.041,9.191c-0.442,4.107-1.011,7.581-1.707,10.424c-2.337,10.044-5.4,18.951-9.19,26.722
		c-4.359,9.033-9.099,15.161-14.214,18.383c-6.443,4.104-20.277,7.139-41.504,9.097l-38.377,1.896
		c-4.738,0-10.738-5.495-18.004-16.488c-6.063-9.223-9.698-16.109-10.896-20.656c-7.58-9.033-11.781-19.205-12.604-30.513
		C464.759,251.443,480.898,234.543,514.76,223.298"/>
	<path fill="#C8C9CA" d="M446.155,599.011c2.904,0.569,6.854,2.561,11.845,5.97c5.494,3.666,7.295,6.285,5.4,7.866
		c-2.906,2.272-7.517,3.693-13.834,4.265L446.155,599.011"/>
	<path fill="#D7A400" d="M329.793,616.731c10.739-8.782,16.456-14.563,17.15-17.343c0.695-2.777-0.6-10.803-3.885-24.067
		l-6.539-25.962c-0.693-3.916-0.757-7.268-0.188-10.046l1.042-2.938l11.656-5.494c9.41-4.17,18.066-7.519,25.964-10.046
		c25.268-8.084,38.438-6.442,39.513,4.928c1.391,14.53,2.748,24.639,4.075,30.322c1.642,6.76,4.327,12.191,8.055,16.298
		c2.589,2.907,8.559,8.593,17.907,17.057c7.771,7.58,11.183,12.571,10.234,14.973c-1.391,3.601-2.527,7.581-3.41,11.938
		c-0.885,3.031-2.908,5.435-6.065,7.201c-4.231,2.338-10.329,6.413-18.289,12.226c-8.401,6.253-13.834,10.803-16.297,13.645
		L399.25,670.27c-5.938,10.865-10.454,16.298-13.551,16.298l-17.436-1.61c-7.896-1.77-12.413-4.706-13.549-8.813
		c-1.076-3.918-1.265-8.243-0.568-12.981l1.421-5.971l-5.308,0.474c-3.854,0.568-6.696,1.55-8.528,2.938
		c-3.283,2.653-7.073,4.708-11.371,6.159c-5.685,2.021-9.664,1.705-11.938-0.947c-2.778-3.283-5.243-9.128-7.391-17.53
		c-2.274-8.717-2.401-14.088-0.379-16.108L329.793,616.731"/>
	<path fill="#D7A400" d="M677.362,519.984c2.146,2.21,4.579,7.421,7.296,15.635c2.78,8.402,5.243,18.161,7.392,29.278
		c2.21,11.497,4.958,19.361,8.243,23.595c3.665,4.55,10.109,7.896,19.331,10.044c9.918,2.212,16.867,4.298,20.847,6.256
		c4.484,2.21,8.182,5.589,11.086,10.139c2.779,4.423,3.634,11.37,2.561,20.848c-1.011,8.907-2.748,14.308-5.212,16.203
		c-2.337,1.959-5.435,3.474-9.287,4.549l-11.37,0.662c-8.212-2.274-15.413-4.106-21.604-5.494
		c-11.752-2.593-19.806-3.352-24.163-2.275l9.096,15.824c2.021,4.737,2.464,10.677,1.327,17.814
		c-1.391,8.653-4.014,14.435-7.865,17.339c-4.422,3.351-11.592,4.201-21.51,2.561c-9.412-1.578-16.806-5.369-22.173-11.371
		c-4.296-4.802-6.981-10.518-8.056-17.15c-0.759-4.801-4.96-12.509-12.604-23.12c-5.053-7.075-10.329-13.739-15.824-19.993
		c-2.274-2.591-3-11.908-2.18-27.953c1.013-19.143,1.168-30.83,0.474-35.062c-0.819-4.929-2.812-12.763-5.969-23.501
		c-2.402-8.085-3.286-12.886-2.653-14.401L677.362,519.984"/>
	<path fill="#B08600" d="M331.404,666.384c-5.245,2.021-9.161,2.179-11.75,0.476c1.516-1.327,3.79-5.749,6.821-13.268
		c2.654-6.633,5.78-10.613,9.382-11.939l20.847-6.635c8.971-2.463,12.792-2.809,11.465-1.041l-7.201,10.709l-7.58,12.602
		c-5.371,0.316-9.254,1.421-11.656,3.316C338.889,662.941,335.446,664.866,331.404,666.384"/>
	<path fill="#B08600" d="M336.236,541.305l1.137-4.929l11.656-5.494c9.41-4.17,18.066-7.519,25.964-10.046
		c25.268-8.084,38.438-6.442,39.513,4.928c1.391,14.53,2.748,24.639,4.075,30.322c1.642,6.76,4.327,12.191,8.055,16.298
		c2.589,2.907,8.559,8.593,17.907,17.058c7.771,7.579,11.183,12.57,10.234,14.972c-1.391,3.601-2.527,7.581-3.41,11.938
		c-0.885,3.031-2.908,5.435-6.065,7.201c-2.021,1.075-5.243,2.874-9.664,5.402c-5.497,3.221-9.099,5.4-10.803,6.537
		c1.39-6.948,1.547-12.098,0.474-15.444c-0.759-2.274-2.748-4.77-5.971-7.485c-9.033-7.707-15.666-18.572-19.898-32.598
		c-4.422-14.53-13.109-24.384-26.059-29.563c-12.064-4.804-24.32-4.455-36.765,1.042
		C335.795,548.537,335.669,545.158,336.236,541.305"/>
	<path fill="#B08600" d="M677.362,519.984c2.146,2.21,4.579,7.421,7.296,15.635c2.78,8.402,5.243,18.161,7.392,29.278
		c1.392,7.707,2.97,13.52,4.738,17.436c-8.148-2.524-15.035-7.201-20.658-14.021c-5.874-7.077-11.622-11.656-17.245-13.74
		c-12.761-6.886-22.394-10.739-28.899-11.563c-11.31-1.516-20.848,5.687-28.618,21.605l-4.168-18.383
		c-2.086-9.79-2.968-15.067-2.653-15.824L677.362,519.984"/>
	<path fill="#B08600" d="M680.015,623.553l28.808,1.422c11.371,1.326,17.057,3.41,17.057,6.254c0,6.634,0.79,11.309,2.369,14.024
		c3.348,5.812,10.328,7.96,20.94,6.444l-0.283,0.283c-2.337,1.959-5.435,3.474-9.287,4.549l-11.37,0.662
		c-8.212-2.274-15.413-4.106-21.604-5.494c-11.752-2.592-19.806-3.352-24.163-2.275l9.096,15.824
		c2.021,4.737,2.464,10.677,1.327,17.814c-0.885,5.686-3.381,6.442-7.486,2.274c-4.232-4.298-6.033-7.424-5.402-9.382
		c0.822-1.578,0.442-5.148-1.136-10.708l-4.737-16.488C670.351,633.913,672.309,625.513,680.015,623.553"/>
	<path fill="#EEEEEF" d="M324.107,648.569c4.737,8.652,6.002,13.834,3.79,15.54c-3.411,2.651-14.623,6.665-33.639,12.034
		c0.947-9.285,2.78-17.373,5.497-24.259c3.222-8.147,7.138-12.98,11.75-14.499C315.17,636.125,319.369,639.852,324.107,648.569"/>
	<path fill="#C8C9CA" d="M308.378,671.974c3.157-7.265,8.717-14.434,16.677-21.51c1.579,3.157,2.654,6,3.222,8.528
		c0.634,2.717,0.506,4.424-0.379,5.117C325.497,665.94,318.99,668.563,308.378,671.974"/>
	<path fill="#EEEEEF" d="M361.536,664.109c3.411-3.033,7.581-1.042,12.509,5.969c4.294,6.002,6.759,11.183,7.391,15.541
		c0.379,2.463-3.285,6.189-10.992,11.182l-16.677,10.424c-2.653-8.022-2.686-16.962-0.094-26.816
		C355.819,672.259,358.439,666.824,361.536,664.109"/>
	<path fill="#C8C9CA" d="M381.436,685.619c0.379,2.717-4.17,7.012-13.646,12.887c0.885-7.896,3.79-16.109,8.719-24.638
		C379.286,678.732,380.93,682.65,381.436,685.619"/>
	<path fill="#EEEEEF" d="M675.656,671.879c10.044,4.991,15.856,13.424,17.436,25.302c1.392,10.36-0.126,17.75-4.549,22.171
		c-2.338-2.334-6.759-5.621-13.266-9.853c-5.18-3.35-10.233-6.413-15.161-9.192c-1.831-1.011-2.526-3.316-2.084-6.917
		c0.379-3.222,1.578-6.759,3.602-10.612C666.561,673.301,671.235,669.667,675.656,671.879"/>
	<path fill="#C8C9CA" d="M681.059,675.29c5.813,4.549,9.603,10.708,11.371,18.478c1.517,6.57,1.421,12.793-0.285,18.668
		c-0.82-3.789-2.747-9.979-5.779-18.57C683.585,685.967,681.815,679.776,681.059,675.29"/>
	<path fill="#EEEEEF" d="M749.852,618.341c3.602,1.201,8.369,6.352,14.31,15.446c6.695,10.296,9.096,18.667,7.201,25.111
		c-3.79-1.518-8.023-2.813-12.698-3.886l-19.234-3.887c-7.706-1.516-8.845-7.644-3.411-18.382c2.021-4.044,4.453-7.551,7.297-10.52
		C746.219,619.194,748.399,617.898,749.852,618.341"/>
	<path fill="#A4725D" d="M322.78,505.392c0.885-7.771,6.222-16.646,16.015-26.627c10.297-10.423,20.184-16.233,29.659-17.436
		c2.652-0.316,5.843,2.938,9.57,9.759c5.18,9.413,8.622,15.067,10.329,16.962c4.609,5.243,9.476,9.477,14.592,12.698
		c5.496,3.476,10.106,5.021,13.835,4.644c2.651,3.79,3.441,8.086,2.369,12.888c-0.886,3.979-2.243,6.568-4.075,7.769
		c-1.391-0.947-3-1.735-4.832-2.368c-2.021-0.693-3.854-1.042-5.497-1.042c-5.432,0-12.822,2.622-22.172,7.865
		c-9.035,5.055-14.878,9.603-17.53,13.646l-5.876,9.38c-1.958,1.706-5.18,0.315-9.664-4.168
		c-7.834-7.834-13.805-14.625-17.909-20.373C324.96,519.637,322.023,511.77,322.78,505.392"/>
	<path fill="#815847" d="M416.78,505.392c2.651,3.79,3.441,8.087,2.369,12.888c-0.886,3.979-2.243,6.568-4.075,7.769
		c-1.391-0.947-3-1.734-4.832-2.368c-2.021-0.693-3.854-1.042-5.497-1.042c-5.432,0-12.822,2.622-22.172,7.865
		c-9.035,5.055-14.878,9.603-17.53,13.646c-1.326,1.958-2.653,3.095-3.98,3.411c-1.642,0.379-3-0.507-4.073-2.654
		c-1.265-2.589-2.307-6.477-3.128-11.654c-0.947-5.748-1.17-10.582-0.663-14.498c1.263-9.728,7.455-17.782,18.572-24.163
		c5.621-3.223,11.15-5.399,16.583-6.539c4.609,5.243,9.476,9.477,14.592,12.698C408.441,504.224,413.053,505.77,416.78,505.392"/>
	<path fill="#A4725D" d="M658.317,465.688c10.675,4.989,17.78,13.834,21.319,26.531c2.146,7.832,2.812,15.949,1.989,24.353
		c-0.442,4.737-3.854,12.792-10.234,24.163c-6.506,11.625-10.55,16.205-12.128,13.74c-2.212-3.283-8.906-7.581-20.09-12.888
		c-12.443-5.938-22.142-8.528-29.09-7.77c-7.138,0.757-13.708-2.687-19.71-10.329c-5.495-7.075-7.864-13.425-7.106-19.046
		c2.022-1.201,4.454-4.106,7.298-8.72l8.432-14.308c8.151-13.201,16.805-21.065,25.964-23.595c3.603-1.011,7.929-0.947,12.983,0.189
		C643.124,459.214,649.915,461.771,658.317,465.688"/>
	<path fill="#815847" d="M658.317,465.688c10.675,4.989,17.78,13.834,21.319,26.531c2.146,7.832,2.812,15.949,1.989,24.353
		c-0.442,4.737-3.854,12.792-10.234,24.163c-6.506,11.625-10.55,16.205-12.128,13.74c-1.581-2.337-6.256-5.623-14.024-9.854
		c-8.527-4.612-16.425-7.834-23.688-9.666c7.77-1.831,13.045-3.506,15.823-5.021c5.055-2.779,9.002-7.424,11.845-13.932
		c3.033-6.821,2.528-16.551-1.516-29.184c-4.232-13.203-10.393-23.09-18.479-29.66C635.606,456.78,645.303,459.623,658.317,465.688"
		/>
	<path fill="#B08600" d="M614.917,300.622c-1.01,1.77-2.717,6.159-5.117,13.17c-2.463,7.013-4.61,12.13-6.441,15.352
		c-6.256,10.93-14.372,11.243-24.354,0.948c-4.295-4.422-7.96-8.749-10.991-12.982c-3.79-5.433-5.306-9.128-4.549-11.086
		l6.633-17.057c5.37-10.929,10.486-15.287,15.353-13.077l21.794,9.854C615.328,290.482,617.886,295.44,614.917,300.622"/>
	<path fill="#A4725D" d="M161.41,332.554c7.328-3.348,13.36-3.854,18.098-1.516c4.738,2.337,14.34,3.854,28.807,4.547
		c11.876,0.57,23.562,0.508,35.06-0.188c7.77,0.252,14.339,2.874,19.708,7.864c4.738,4.358,8.088,10.014,10.046,16.96
		c1.769,6.57,2.021,12.919,0.757,19.049c-1.327,6.38-4.011,11.022-8.054,13.929c-4.044,2.021-13.423,4.927-28.142,8.716
		c-15.352,3.981-25.618,7.107-30.796,9.382c-11.813,5.243-21.416,8.183-28.807,8.813c-11.939,1.074-19.804-3.284-23.595-13.077
		l-5.97-63.866C150.48,339.186,154.777,335.649,161.41,332.554"/>
	<path fill="#815847" d="M148.522,343.167c0.758-1.579,2.148-3.221,4.17-4.927c2.021-1.771,4.327-3.349,6.917-4.738
		c12.381-2.273,21.604,6,27.669,24.826c2.147,6.759,3.601,14.024,4.358,21.794c0.695,6.759,0.695,11.593,0,14.499
		c-1.011,4.358-0.315,7.075,2.085,8.148c1.643,0.82,3.664,0.79,6.064-0.096c1.958-0.694,5.97-1.927,12.034-3.694
		c7.518-2.212,15.318-4.327,23.406-6.35l20.087-4.264c6.57-1.327,12.413-3.097,17.53-5.306c-1.581,4.483-3.916,7.862-7.012,10.138
		c-4.044,2.021-13.423,4.927-28.142,8.716c-15.352,3.981-25.618,7.107-30.796,9.382c-11.813,5.243-21.416,8.183-28.807,8.813
		c-11.939,1.074-19.804-3.284-23.595-13.077L148.522,343.167"/>
	<path fill="#D7A400" d="M127.959,320.804c3.096,1.96,7.359,6.823,12.792,14.594c2.969,4.357,7.739,8.75,14.309,13.172
		c6.57,4.421,11.561,6.633,14.972,6.633c4.928,1.704,8.275,8.371,10.044,19.993c1.706,11.371,0.947,19.109-2.273,23.216
		l-31.649,9.57c-12.381,3.664-19.583,5.904-21.604,6.727l-23.691-92.862C111.662,316.605,120.695,316.256,127.959,320.804"/>
	<path fill="#B08600" d="M143.69,376.427c3.853,2.718,8.244,4.042,13.17,3.979c4.802-0.063,9.098-1.453,12.888-4.17
		c3.98-2.844,6.57-6.664,7.771-11.465c2.084,5.621,3.158,11.938,3.221,18.95c0.126,7.075-0.853,11.972-2.937,14.688l-31.649,9.57
		c-12.381,3.664-19.583,5.904-21.604,6.727l-10.897-42.64c1.074,0.508,4.611-0.886,10.613-4.168
		c6.064-3.223,9.633-4.611,10.708-4.17C136.552,369.224,139.457,373.459,143.69,376.427"/>
	<path fill="#C6DCDB" d="M30.833,263.477c-4.043-14.972-4.011-29.027,0.095-42.168c4.043-12.887,10.739-20.878,20.089-23.973
		c11.118-3.664,22.457-0.885,34.017,8.338c10.55,8.465,17.215,18.509,19.995,30.133c3.916,16.362,4.043,30.798,0.378,43.305
		l-4.358,12.887c-1.453,4.549-2.022,8.654-1.706,12.318c0.821,10.233,5.148,30.922,12.981,62.064
		c7.581,30.008,13.013,48.706,16.298,56.098c2.085,4.737,5.37,9.821,9.855,15.256c3.791,4.611,5.97,8.18,6.538,10.708
		c0.759,3.474-3.474,5.464-12.697,5.969c-8.402,0.505-14.814-0.063-19.235-1.704c-3.032-1.139-5.086-5.749-6.159-13.836
		c-0.442-3.6-0.98-12.793-1.611-27.574c-0.38-9.539-4.075-26.688-11.087-51.452c-6.506-22.933-11.718-38.566-15.635-46.904
		c-1.453-3.097-4.485-6.223-9.096-9.381l-14.025-8.623C42.457,286.471,34.245,275.985,30.833,263.477"/>
	<path fill="#A7BAB9" d="M59.924,240.829c3.222-8.465,8.244-15.19,15.066-20.183c5.306-3.919,10.992-4.58,17.057-1.989
		c6.57,2.78,10.897,8.495,12.982,17.149c3.916,16.362,4.043,30.798,0.378,43.305l-4.358,12.887
		c-1.453,4.549-2.022,8.654-1.706,12.318c0.821,10.233,5.148,30.922,12.981,62.064c7.581,30.008,13.013,48.706,16.298,56.098
		c2.085,4.737,5.37,9.821,9.855,15.256c3.791,4.611,5.97,8.18,6.538,10.708c0.632,2.651-1.958,4.483-7.77,5.495
		c-9.603-11.117-19.773-16.771-30.512-16.962c-0.442-4.042-0.916-12.603-1.421-25.68c-0.317-7.391-2.78-19.961-7.391-37.712
		c-3.98-15.478-8.339-30.228-13.077-44.252c4.485-9.159,2.59-19.269-5.686-30.322l-10.802-13.455
		c-4.107-5.307-6.823-9.948-8.15-13.931C56.166,261.327,56.071,251.063,59.924,240.829"/>
	<path fill="#D7A400" d="M62.199,348.284c0.378-3.79,3.221-7.738,8.528-11.845c3.538-2.716,7.896-5.369,13.076-7.96l7.107,20.372
		l11.844,2.087c6.318,1.2,10.202,7.862,11.655,19.992c0.569,4.676,0.505,8.688-0.19,12.033c-0.758,3.413-1.989,4.801-3.695,4.17
		c-2.4-0.883-9.192-2.59-20.373-5.117c-11.623-2.651-18.636-4.391-21.036-5.212c-3.411-1.137-5.654-5.114-6.728-11.938
		C61.693,359.875,61.629,354.348,62.199,348.284"/>
	<path fill="#B08600" d="M90.152,382.017c-11.623-2.651-18.636-4.391-21.036-5.212c-1.832-0.567-3.379-2.114-4.644-4.642
		l12.698,0.188l12.413-0.567c8.97-1.77,14.656-8.119,17.056-19.045c4.738,3.664,7.423,10.675,8.055,21.035
		c0.252,4.104,0,7.485-0.758,10.138c-0.758,2.717-1.895,3.791-3.411,3.223C108.125,386.251,101.333,384.544,90.152,382.017"/>
	<path fill="#D7A400" d="M89.772,429.395c-3.221,0-5.654-1.643-7.296-4.927c-1.453-2.905-2.179-6.728-2.179-11.466
		c0-3.918,2.496-8.148,7.486-12.698c4.106-3.79,8.528-6.727,13.266-8.813l3.506,12.981c5.875-2.273,11.908-3.474,18.099-3.602
		c6.633-0.126,12.665,1.042,18.098,3.508c5.433,2.525,6.949,7.232,4.549,14.117c-2.464,6.823-6.57,10.456-12.318,10.896
		c-4.612,0.381-12.351,0.476-23.215,0.285L89.772,429.395"/>
	<path fill="#B08600" d="M89.772,429.395c-1.895,0-3.538-0.601-4.927-1.8c11.308-2.273,19.109-4.736,23.405-7.392
		c6.633-4.232,8.465-10.201,5.496-17.909l17.815-0.757c2.969,0.439,6.033,1.388,9.191,2.843c5.433,2.525,6.949,7.232,4.549,14.117
		c-2.464,6.823-6.57,10.456-12.318,10.896c-4.612,0.381-12.351,0.476-23.215,0.285L89.772,429.395"/>
	<path fill="#D7A400" d="M114.789,326.774l1.989-0.095c1.58,0,3.096,0.314,4.548,0.947c4.612,2.021,7.613,6.633,9.002,13.834
		l3.506,16.298c0.379,3.411-0.19,8.907-1.706,16.488c-1.453,7.329-5.022,11.845-10.708,13.551
		c-2.969,0.885-7.169,0.947-12.603,0.188c-2.59-0.379-4.264-4.706-5.023-12.98l-1.042-24.067
		c-0.442-7.646,0.063-12.857,1.516-15.637C105.597,332.713,109.104,329.871,114.789,326.774"/>
	<path fill="#B08600" d="M130.329,343.357l2.938,13.929c0.568,4.675,0.189,10.329-1.137,16.962
		c-1.453,7.329-5.022,11.845-10.708,13.551c-2.969,0.885-7.169,0.947-12.603,0.188c-2.464-0.314-4.075-4.104-4.833-11.37
		c5.433,3.979,10.929,2.117,16.488-5.592C125.655,363.824,128.939,354.6,130.329,343.357"/>
	<path fill="#E4EEEE" d="M46.753,252.01c-2.843-0.063-5.054-1.769-6.633-5.117c-1.707-3.535-2.275-8.054-1.707-13.549
		c0.506-4.99,1.738-9.256,3.696-12.792c2.211-4.044,4.77-5.876,7.675-5.497c3.349,0.314,5.718,2.559,7.106,6.729
		c1.137,3.285,1.611,7.518,1.421,12.698c-0.126,5.495-1.231,9.822-3.316,12.979C52.913,250.495,50.165,252.01,46.753,252.01"/>
	<path fill="#0D131A" d="M267.347,346.105l-1.705-1.706l-1.989-1.422c6-2.653,11.939-7.676,17.813-15.066
		c4.484-5.62,8.497-12.002,12.035-19.14l3.694,3.222c-0.948,2.525-4.547,7.644-10.801,15.35
		C279.066,336.439,272.718,342.693,267.347,346.105"/>
	<path fill="#0D131A" d="M325.908,328.291c-7.518,4.295-15.95,11.086-25.3,20.372c-8.591,8.466-16.868,17.91-24.828,28.333
		l-0.379-7.201c7.203-8.276,14.813-16.268,22.838-23.975c9.854-9.477,17.656-15.886,23.404-19.236L325.908,328.291"/>
	<path fill="#0D131A" d="M271.802,258.645c2.652-12.57,9.476-23.375,20.467-32.406c10.802-8.974,22.173-13.457,34.113-13.457
		l0.094,3.128c-10.865,0-21.129,4.295-30.796,12.887c-9.729,8.591-15.823,18.763-18.287,30.511
		c-2.78,13.457,0.157,26.121,8.811,37.999c8.656,11.813,22.269,21.794,40.84,29.943l-0.662,2.463
		c-21.92-8.591-37.523-19.993-46.811-34.207C271.737,283.566,269.148,271.277,271.802,258.645"/>
	<path fill="#0D131A" d="M380.014,686.093v-0.188c-0.379-2.908-2.021-6.791-4.927-11.656c-3.222-5.495-6.19-8.748-8.907-9.759
		c-1.327-0.507-2.558-0.285-3.696,0.662c-3.726,3.285-6.412,10.709-8.054,22.269c-1.642,11.056-1.548,16.896,0.285,17.529
		c1.516,0.38,6.094-2.242,13.739-7.865C376.16,691.462,380.014,687.799,380.014,686.093 M454.21,613.794l-0.285,1.137
		c3.854-0.567,6.697-1.644,8.528-3.223l0.189-0.379c-0.633-2.336-2.527-4.612-5.686-6.822l-0.19,0.759
		C455.885,607.538,455.029,610.381,454.21,613.794 M417.443,514.395c0-2.339-0.663-4.612-1.99-6.824
		c-4.486-0.063-9.19-1.484-14.119-4.265c-5.117-2.969-10.17-7.231-15.161-12.792c-1.327-1.516-2.777-3.819-4.358-6.916l-3.79-7.865
		l-4.738-8.337c-1.832-2.719-3.348-4.014-4.549-3.888c-9.031,1.139-18.54,6.823-28.521,17.057
		c-9.348,9.602-14.434,17.94-15.256,25.017c-1.01,8.274,3.349,18.479,13.077,30.607c3.728,4.737,7.484,8.653,11.275,11.75
		c3.79,3.095,6.444,4.483,7.96,4.168c1.012-0.188,2.115-1.168,3.316-2.938l3.79-6.063c6.761-10.106,16.394-17.086,28.901-20.941
		c5.054-1.578,9.603-2.24,13.646-1.989c4.041,0.188,6.633,1.232,7.77,3.128c1.139-1.518,1.958-3.539,2.466-6.063L417.443,514.395
		 M310.272,670.27c9.097-3.223,14.688-5.653,16.771-7.298c2.274-2.271,1.296-7.17-2.937-14.688
		c-4.296-7.645-8.338-10.834-12.128-9.57c-4.675,1.517-8.939,7.486-12.792,17.909c-3.727,9.855-4.801,15.698-3.222,17.53
		C296.533,674.722,301.303,673.428,310.272,670.27 M320.885,626.586c-3.6,2.526-6.096,4.516-7.484,5.969
		c-1.138,1.201-1.77,2.307-1.895,3.316c5.368-1.264,10.264,1.927,14.688,9.57c4.167,7.14,5.559,13.046,4.167,17.721l-1.421,2.748
		l4.455-2.465c3.222-1.832,5.558-3.346,7.012-4.547c2.906-2.338,7.296-3.603,13.17-3.791c1.518-5.75,4.675-11.402,9.476-16.963
		c2.274-2.526,4.013-3.916,5.212-4.168c1.264-0.316,0.254,1.675-3.031,5.97c-3.349,4.483-5.749,9.317-7.201,14.497
		c-1.201,4.297-1.896,9.476-2.086,15.54c1.644-3.223,3.19-5.527,4.644-6.916c1.895-1.706,4.075-2.117,6.538-1.232
		c3.157,1.137,6.539,4.549,10.139,10.234c3.159,5.053,5.308,9.759,6.444,14.116c1.011,0.254,2.243,0.034,3.695-0.662l3.6-2.938
		c2.021-2.589,5.435-9.129,10.235-19.615c4.295-9.413,8.243-15.824,11.844-19.233c2.969-2.844,7.992-6.762,15.067-11.751
		c6.633-4.676,11.971-8.117,16.015-10.328c2.021-1.074,3.41-2.306,4.167-3.696l1.612-5.115l1.609-5.401
		c0.76-2.652,0.979-4.61,0.664-5.874c-0.315-1.201-4.736-5.844-13.266-13.932l-14.311-13.55c-4.422-4.865-7.454-15.604-9.097-32.217
		c-0.757-7.96-2.589-13.234-5.495-15.826c-1.392-1.262-3.412-1.895-6.064-1.895c-6.063,0-13.107,2.306-21.131,6.918
		c-8.086,4.611-13.423,9.381-16.015,14.308c-3.22,6.002-6.222,9.192-9.002,9.57c-2.146,0.254-5.211-0.979-9.19-3.694
		c-3.916-2.717-7.392-5.97-10.423-9.761c-0.442,4.296,0.885,11.56,3.979,21.794c2.654,8.844,4.675,16.835,6.065,23.975
		c1.327,7.137,1.706,11.908,1.138,14.309C348.271,605.991,338.763,614.331,320.885,626.586 M323.254,520.932
		c-3.157-5.876-4.453-11.149-3.885-15.824c0.947-8.274,7.327-17.813,19.143-28.616c11.874-10.929,22.234-16.582,31.079-16.962
		c2.843-0.126,6.224,3.156,10.14,9.854l5.78,11.561c12.635-3.411,22.583-8.4,29.849-14.972l6.727-6.729
		c2.084-2.21,3.791-3.631,5.118-4.264l1.229,1.611l1.422,1.609l-6.159,6.159c-3.979,4.357-9.979,8.527-18.005,12.51
		c-6.82,3.41-13.011,5.748-18.57,7.01c2.463,4.486,5.75,8.371,9.854,11.656c4.169,3.285,8.875,5.78,14.119,7.486
		c12.254-8.022,24.638-13.486,37.146-16.395c3.854-0.819,6.224-1.609,7.105-2.369l2.561,4.738l-8.72,1.896
		c-5.242,1.264-9.507,2.464-12.792,3.602c-6.002,2.212-12.099,5.212-18.286,9.002c2.397,3.537,3.379,7.896,2.938,13.075
		c-0.442,4.929-1.896,8.466-4.359,10.614l2.56,18.856c0.821,7.832,3.189,15.792,7.105,23.878c0.947,1.958,5.907,6.98,14.876,15.066
		c9.035,8.086,13.963,12.949,14.783,14.593c2.336,1.39,4.644,3.632,6.917,6.729c2.022,2.843,2.971,4.737,2.843,5.686
		c-0.126,1.201-1.516,2.526-4.17,3.979c-2.589,1.451-5.623,2.589-9.097,3.41c-1.642,3.286-3.695,5.527-6.159,6.729
		c-5.812,2.78-12.287,6.729-19.425,11.845c-7.139,5.054-11.876,9.064-14.214,12.033c-2.4,3.095-4.706,7.296-6.916,12.604
		l-5.308,12.887c-4.294,9.348-10.233,14.057-17.813,14.119c-2.4,3.095-7.139,7.044-14.214,11.845
		c-7.58,5.115-12.446,7.296-14.593,6.537c-2.528-1.011-3.728-5.338-3.602-12.981c0.063-6.443,0.821-12.54,2.274-18.289
		c-0.694-2.525-1.011-5.494-0.947-8.904c0-3.224,0.348-6.285,1.042-9.192l-5.495,1.327c-2.086,0.759-3.664,1.547-4.737,2.368
		c-2.843,2.338-5.78,4.201-8.813,5.592c-4.864,2.211-8.874,2.589-12.033,1.136c-10.803,4.803-18.51,7.771-23.122,8.908
		c-4.423,1.073-6.57-0.442-6.444-4.55c0.126-6,1.738-12.729,4.834-20.183c2.968-7.265,6.096-12.287,9.379-15.066
		c-0.063-1.452,0.159-2.905,0.665-4.358c0.442-1.39,1.042-2.463,1.801-3.222c2.651-2.591,10.044-7.991,22.171-16.203
		c9.539-6.38,14.658-11.117,15.353-14.214c0.631-2.654-1.168-11.688-5.402-27.101l-7.011-24.543
		c-0.821-5.116-0.6-8.971,0.662-11.562C329.318,530.756,325.594,525.416,323.254,520.932"/>
	<path fill="#0D131A" d="M674.994,673.111c-1.645-0.821-3.665-0.127-6.065,2.084c-2.211,1.96-4.231,4.644-6.063,8.055
		c-2.4,4.612-3.601,8.622-3.601,12.035c0,1.958,0.505,3.221,1.517,3.79c2.084,1.137,5.432,3.347,10.044,6.633l0.379,0.189
		c10.803,7.58,16.52,11.339,17.151,11.275c0.82-0.063,1.642-1.706,2.463-4.929c0.821-3.283,1.231-6.507,1.231-9.664l-0.474-6.159
		C689.744,685.493,684.216,677.722,674.994,673.111 M749.378,619.668c-0.759-0.252-2.18,0.633-4.264,2.654
		c-2.717,2.652-5.117,5.937-7.201,9.854c-2.4,4.297-3.603,7.991-3.603,11.088l0.38,2.368c0.632,2.212,2.307,3.601,5.021,4.171
		l7.298,1.421l23.215,5.779c0.694,0.188,0.758-1.231,0.189-4.264c-0.632-3.223-1.736-6.791-3.317-10.709
		C762.485,631.165,756.579,623.71,749.378,619.668 M680.015,528.322c-2.021,4.802-4.421,9.729-7.2,14.781
		c-2.779,4.99-4.989,8.434-6.634,10.328l-4.832,4.737c-0.947,0.191-2.874-0.883-5.779-3.222c-4.863-3.979-11.309-7.958-19.33-11.939
		c-10.866-5.368-19.521-7.706-25.965-7.012c-3.916,0.443-8.181-0.632-12.792-3.221c-0.693,1.137,0.064,5.432,2.273,12.887
		c2.969,10.105,4.833,17.562,5.592,22.361c0.693,4.802,0.662,14.656-0.095,29.563c-0.57,9.539-0.79,16.3-0.664,20.278
		c0.127,4.929,0.759,8.938,1.896,12.035l14.499,19.141c8.906,11.434,13.738,19.805,14.495,25.109c0.761,4.612,2.4,8.813,4.93,12.604
		c3.854,5.812,9.443,9.916,16.771,12.318c-1.011-2.212-1.453-4.802-1.327-7.771c0.065-3.411,0.822-6.506,2.274-9.285
		c2.212-4.044,4.96-7.424,8.245-10.141c3.854-3.159,7.106-4.073,9.759-2.748c6.128,3.096,10.897,8.055,14.31,14.878l0.284-1.327
		c0.884-5.622,0.821-10.264-0.188-13.929c-0.759-2.465-2.653-6.192-5.687-11.182c-1.96-2.147-3.79-4.864-5.496-8.149
		c-3.474-6.569-4.611-12.571-3.41-18.004c1.642-7.646,2.969-7.991,3.979-1.041l0.947,8.337c0.441,2.907,1.357,5.654,2.748,8.245
		c3.979-0.57,9.887-0.098,17.719,1.422c5.686,1.073,13.457,2.937,23.313,5.589l4.166,1.138l9.95-0.567l-1.896-0.475
		c-1.704-0.507-3.22-1.454-4.547-2.843c-1.201-1.264-1.99-2.527-2.369-3.79c-1.011-3.538-0.224-8.214,2.369-14.024
		c2.337-5.181,5.18-9.443,8.527-12.793c1.517-1.516,3.284-2.652,5.307-3.409l2.273-0.76c-2.021-4.17-5.055-7.327-9.097-9.476
		c-3.79-2.021-10.521-4.137-20.184-6.349c-9.855-2.212-16.708-5.813-20.563-10.804c-3.539-4.484-6.444-12.666-8.719-24.542
		C686.143,546.2,682.857,533.882,680.015,528.322 M671.393,536.093c5.055-9.602,7.739-16.171,8.055-19.71l0.285-6.348
		c0-8.214-1.265-15.572-3.79-22.079c-3.729-9.539-9.888-16.298-18.479-20.279c-7.96-3.726-14.404-6.189-19.331-7.39l-12.604-0.379
		c-6.19,1.768-12.002,5.904-17.435,12.412c-3.223,3.791-7.266,9.949-12.13,18.479l-5.399,8.907c-1.832,2.651-3.538,4.58-5.117,5.779
		l1.042,6.254c1.516,4.864,4.201,9.287,8.055,13.266c4.926,5.055,10.012,7.265,15.255,6.634c7.013-0.757,16.646,1.675,28.901,7.297
		c10.991,5.054,18.226,9.603,21.699,13.645C662.676,551.063,666.34,545.568,671.393,536.093 M659.927,463.698
		c13.014,6.821,21.036,16.865,24.069,30.132c1.262,5.622,1.421,13.266,0.474,22.932l-1.611,5.97
		c4.044,6.823,8.055,19.805,12.034,38.946l2.084,12.033c0.76,4.232,1.707,7.518,2.844,9.855c2.969,6.189,9.729,10.453,20.277,12.792
		c10.17,2.273,17.245,4.39,21.228,6.348c4.862,2.4,8.876,6.065,12.033,10.991c1.138,1.77,1.896,3.634,2.273,5.592
		c5.117,4.421,9.128,9.159,12.033,14.213c3.602,6.065,5.971,13.141,7.106,21.228c0.38,2.969,0.284,4.832-0.282,5.591
		c-0.442,0.631-1.738,0.916-3.886,0.854l-9.667-1.896l-14.401-3.223c-4.801,2.526-8.907,4.011-12.318,4.452
		c-3.476,0.506-7.359,0.065-11.655-1.326c-6.38-2.464-12.949-4.453-19.709-5.969c-6.948-1.516-12.509-2.181-16.679-1.99l2.369,4.074
		c2.654,4.232,4.392,7.393,5.212,9.477c1.327,3.284,1.991,6.822,1.991,10.612c0,2.147-0.254,4.833-0.759,8.056l-0.475,4.072
		l-0.663,3.509l1.138,5.685l0.854,6.16c0,7.895-1.201,13.928-3.602,18.098c-1.138,1.958-3.032,2.306-5.687,1.042
		c-1.516-0.759-3.506-2.21-5.969-4.357c-9.099-7.96-14.909-12.161-17.436-12.604c-9.667-1.516-17.278-5.18-22.836-10.99
		c-4.992-5.182-8.023-11.594-9.1-19.236c-0.82-5.623-5.812-13.803-14.971-24.541c-9.729-11.371-15.035-18.415-15.92-21.132
		c-0.947-2.968-1.104-10.044-0.475-21.227l2.086-30.321c0.253-4.484-0.633-10.17-2.653-17.058l-4.645-14.021l-3.222-11.371
		c-0.504-2.969-0.157-4.864,1.044-5.687c-3.223-1.832-6.065-5.465-8.528-10.896c-2.465-5.496-3.38-10.297-2.748-14.403
		c-2.212-2.843-5.433-6.032-9.667-9.569c-8.401-7.075-17.529-12.318-27.383-15.729l0.853-4.264
		c13.582,3.79,26.595,12.381,39.041,25.771l3.125-3.979l5.022-7.771c4.486-7.706,8.056-13.296,10.708-16.771
		c-12.381-1.645-22.712-4.896-30.985-9.762c-6.316-3.728-11.243-8.18-14.782-13.359l2.558-2.463
		c3.159,4.927,7.929,9.096,14.312,12.507c8.401,4.549,19.107,7.486,32.121,8.813c5.496-6,11.593-9.949,18.289-11.845
		C633.175,453.21,645.02,455.864,659.927,463.698"/>
	<path fill="#0D131A" d="M178.561,333.028c-1.896-0.947-4.17-1.453-6.823-1.517l-6.349,0.947c-3.411,1.137-6.601,2.969-9.57,5.495
		c-2.59,2.148-4.391,4.201-5.401,6.159l-2.938-1.799c1.516-3.033,3.538-5.876,6.064-8.528c3.159-3.35,6.476-5.591,9.95-6.729
		c6.127-2.021,11.813-1.734,17.056,0.854c4.485,2.212,13.677,3.822,27.575,4.832c12.697,0.948,24.479,1.106,35.344,0.475
		c7.455,0.253,13.991,2.622,19.614,7.106c5.56,4.423,9.509,10.485,11.845,18.193c2.211,7.327,2.591,14.402,1.138,21.227
		c-1.516,6.885-4.518,11.971-9.002,15.256l-0.094,0.095h-0.191c-2.778,1.452-6.886,2.969-12.318,4.549l-16.392,4.453
		c-10.361,2.653-20.469,6.128-30.323,10.423c-9.097,4.042-16.456,6.76-22.079,8.149c-8.655,2.085-15.729,1.989-21.226-0.283
		c-5.054-2.086-9.034-6.95-11.939-14.594l4.075-1.611c2.022,5.117,5.18,8.563,9.476,10.328c4.865,2.023,11.245,2.116,19.141,0.285
		c5.686-1.326,12.603-3.821,20.752-7.486c5.306-2.337,15.667-5.496,31.08-9.475c14.276-3.603,23.469-6.444,27.576-8.528
		c2.463-1.832,4.39-4.516,5.78-8.054c1.39-3.539,2.084-7.455,2.084-11.75c0-3.854-0.568-7.738-1.705-11.654
		c-1.581-5.245-4.044-9.698-7.392-13.362c-5.117-5.623-11.75-8.591-19.899-8.905c-11.056,0.632-22.49,0.693-34.302,0.188
		C193.816,337.133,183.614,335.556,178.561,333.028"/>
	<path fill="#0D131A" d="M138.383,335.776c-4.611-6.316-8.623-10.454-12.033-12.412c-7.013-4.107-15.382-3.824-25.111,0.852
		l-1.137-5.307c9.349-4.547,17.973-5.084,25.869-1.61c6.76,2.969,12.413,8.561,16.962,16.771c1.895,3.474,6.412,7.549,13.55,12.225
		c6.759,4.423,11.402,6.664,13.93,6.728l-3.696-5.875c-1.137-1.451-1.548-2.273-1.232-2.463c0.316-0.126,1.105,0.349,2.369,1.422
		c8.465,7.644,13.519,17.688,15.161,30.132c1.769,13.709-2.116,24.319-11.655,31.837c-1.012,0.759-1.896,1.074-2.654,0.948
		c-0.821-0.189-0.631-0.915,0.569-2.18l5.022-5.591l-16.014,6.064l-12.413,4.832l-2.179-4.645
		c8.338-3.031,19.235-6.695,32.691-10.991c2.526-3.979,3.348-10.044,2.463-18.191c-0.885-8.15-3.096-15.004-6.633-20.563
		c-4.043-0.254-10.107-3.097-18.193-8.528C146.185,343.988,140.973,339.501,138.383,335.776"/>
	<path fill="#0D131A" d="M102.187,385.239l3.695,17.625l-3.506,1.421l-3.79-19.139L102.187,385.239"/>
	<path fill="#0D131A" d="M81.624,205.674c-10.676-7.265-20.657-9.349-29.944-6.254c-8.97,2.969-15.318,10.738-19.046,23.311
		c-3.664,12.571-3.569,25.964,0.284,40.178c2.337,8.527,6.602,15.761,12.792,21.7c3.665,3.6,9.571,7.801,17.72,12.602l10.329,6.823
		c3.221,2.589,5.496,5.243,6.822,7.96c3.222,6.822,7.613,19.582,13.171,38.28l-1.895,0.189l-1.895,0.189
		c-5.306-18.004-9.476-30.195-12.508-36.576c-1.01-2.21-3.158-4.486-6.443-6.822L61.156,301c-8.338-4.989-14.655-9.57-18.951-13.74
		c-7.012-6.82-11.75-14.845-14.214-24.065c-4.168-15.226-3.979-29.629,0.569-43.211c4.485-13.455,11.749-21.857,21.794-25.205
		c10.549-3.537,21.636-1.704,33.259,5.497c12.571,7.896,20.689,19.582,24.353,35.06c2.843,12.002,3.632,22.742,2.369,32.218
		c-0.632,4.991-2.463,11.624-5.496,19.898l-3.126,8.435c-0.948,3.157-1.327,6-1.138,8.528c0.568,7.073,2.274,16.96,5.117,29.657
		l-1.516,1.422l-1.231,1.706c-3.348-14.974-5.274-25.869-5.781-32.691c-0.252-3.032,0-6.224,0.759-9.569
		c0.505-2.086,1.453-5.086,2.843-9.002c2.653-7.393,4.231-13.678,4.738-18.856c1.011-8.971,0.126-19.205-2.654-30.702
		C99.753,223.424,92.678,213.192,81.624,205.674"/>
	<path fill="#0D131A" d="M119.243,387.419l4.264,15.161l-3.791-0.38l-3.79-13.646C117.063,387.862,118.168,387.482,119.243,387.419"
		/>
	<path fill="#0D131A" d="M106.355,446.548c-0.821-3.351-1.358-8.908-1.611-16.679l3.602-0.189
		c0.947,12.951,2.779,19.962,5.496,21.035c3.285,1.201,8.307,1.771,15.066,1.707c7.139-0.126,11.656-1.011,13.551-2.654l0.474-0.852
		c-0.316-1.454-1.043-3.002-2.18-4.645l-3.695-4.736l-6.822-9.002l3.79-0.854l6.917,8.243c3.854,4.801,5.97,8.088,6.349,9.855
		c0.505,2.021-0.094,3.728-1.801,5.116c-2.653,2.4-8.243,3.696-16.771,3.886c-7.644,0.128-13.266-0.475-16.867-1.802
		C109.198,453.969,107.366,451.159,106.355,446.548"/>
	<path fill="#0D131A" d="M75.275,350.178c2.463-1.01,6.159-1.704,11.087-2.083l15.255,0.475v4.357
		c-9.413-1.581-18.004-1.706-25.774-0.38l-3.032-0.379C72.495,351.665,73.317,351,75.275,350.178"/>
	<path fill="#0D131A" d="M59.83,347.242c0.378-4.042,3.127-8.214,8.244-12.507c3.916-3.352,8.938-6.57,15.066-9.667l1.611,5.401
		c-6.191,3.096-11.056,6.224-14.593,9.38c-3.538,3.159-5.464,6.064-5.78,8.72c-0.632,6.441-0.347,12.35,0.853,17.719
		c1.2,4.991,2.716,7.801,4.548,8.434l19.425,4.832l7.675,1.707l7.391,0.854c0.379,1.77,1.168,3.6,2.369,5.495
		c-4.548-0.568-11.307-1.958-20.277-4.171c-8.023-2.021-14.119-3.728-18.288-5.114c-3.602-1.201-6.096-4.897-7.486-11.088
		C59.325,361.741,59.072,355.074,59.83,347.242"/>
	<path fill="#0D131A" d="M86.74,398.504c4.422-4.169,9.034-7.326,13.835-9.476l1.326,4.455c-4.548,2.021-8.781,4.832-12.697,8.431
		c-4.485,4.17-6.729,7.866-6.729,11.088c0,3.159,0.379,5.939,1.137,8.338c1.2,3.916,3.254,5.876,6.159,5.876l18.383,0.283
		l24.637-0.283c2.653-0.189,4.927-1.357,6.823-3.508c1.705-2.021,2.81-4.452,3.316-7.295c0.315-1.707,0.188-3.506-0.379-5.4
		c-0.758-2.527-2.148-4.265-4.17-5.212c-3.474-1.58-10.044-2.116-19.709-1.611c-9.286,0.441-15.761,1.485-19.425,3.128
		c-2.211,1.011-3.474,1.265-3.791,0.757c-0.378-0.503,0.695-1.451,3.222-2.843c4.485-2.59,11.339-4.23,20.563-4.927
		c9.602-0.694,16.804,0.16,21.604,2.559c2.526,1.264,4.39,3.222,5.59,5.876c1.137,2.65,1.421,5.558,0.853,8.717
		c-0.632,3.729-2.179,6.887-4.644,9.476c-2.59,2.779-5.749,4.297-9.476,4.55c-3.538,0.254-11.687,0.095-24.447-0.475l-18.098-0.947
		c-3.854,0-6.886-1.485-9.097-4.454c-2.211-3.031-3.317-7.106-3.317-12.223C78.212,408.77,81.055,403.811,86.74,398.504"/>
	<path fill="#0D131A" d="M103.229,333.975c2.147-3.727,5.875-6.283,11.181-7.675l4.169-0.094c0.631,0.503-0.284,1.325-2.748,2.463
		c-4.233,1.896-7.076,4.17-8.528,6.822c-1.832,3.222-2.622,8.308-2.369,15.255c0.569,20.153,1.611,31.556,3.127,34.209
		c1.77,2.969,5.401,3.537,10.897,1.705c6.002-2.021,9.666-6.316,10.993-12.887c1.39-7.075,1.643-14.088,0.758-21.035
		c-0.568-4.36-1.39-7.897-2.463-10.614c-0.506-1.327-0.569-2.084-0.189-2.274c0.378-0.125,1.137,0.41,2.273,1.611
		c1.769,1.769,3.127,6.285,4.075,13.55c0.948,7.706,0.853,14.404-0.285,20.089c-1.705,8.401-6.38,13.584-14.024,15.541
		c-7.075,1.771-12.191,0.568-15.351-3.602c-1.579-2.084-2.969-14.088-4.169-36.008C100.133,343.514,101.018,337.829,103.229,333.975
		"/>
	<path fill="#0D131A" d="M429.667,437.734c-3.031,6.885-4.075,11.275-3.128,13.172c0.38,0.818,3.223,3.82,8.528,9.002
		c8.34,8.021,14.373,14.308,18.101,18.855c6.253,7.645,9.505,13.866,9.759,18.667c0.19,1.896,1.737,3.603,4.645,5.117
		c6.885,3.349,17.37,4.547,31.458,3.601c14.15-0.947,24.289-3.537,30.419-7.771c2.589-1.832,5.086-5.845,7.483-12.033l5.972-17.529
		c5.306-15.415,10.708-24.322,16.203-26.724c1.264-0.505,1.801-2.369,1.61-5.591c-0.253-4.548-2.021-11.497-5.308-20.847
		l-0.947-2.844c-0.314-1.072-1.548-2.179-3.694-3.315l-7.677-3.601v1.802c0,1.832-2.525,4.421-7.581,7.77
		c-5.686,3.728-12.602,6.98-20.75,9.761c-22.301,7.706-44.82,9.19-67.563,4.452c-4.232-0.82-6.822-2.463-7.771-4.927l-0.664-1.326
		C435.731,426.016,432.698,430.787,429.667,437.734 M512.959,225.573l2.369-5.021c15.414-6.191,30.385-8.499,44.915-6.918
		c13.455,1.391,25.015,5.907,34.681,13.551c7.517,5.874,13.519,12.918,18.004,21.131c4.232,7.708,6.002,14.149,5.308,19.33
		l-0.854,8.622c-0.506,4.991-1.294,9.382-2.369,13.173l2.274,1.801l0.948,1.608l-1.518,3.224c-3.41-2.338-7.264-4.801-11.562-7.393
		c-8.527-5.114-16.139-8.779-22.836-10.99c-4.802,2.463-8.813,6.442-12.033,11.938c-3.033,5.183-4.832,10.771-5.402,16.773
		c1.201,3.03,4.234,7.801,9.1,14.308c5.24,7.013,9.537,11.719,12.886,14.119c-2.274,1.896-4.043,3-5.307,3.315
		c-0.694,3.475-3.032,7.581-7.013,12.318c-3.79,4.61-7.991,8.528-12.604,11.751c-4.483,3.22-8.435,8.368-11.845,15.444
		c-3.475,7.264-5.749,15.317-6.821,24.163c3.6,0.759,6.821,2.114,9.664,4.075c2.653,1.829,4.455,3.789,5.401,5.873
		c3.601,7.393,5.716,14.688,6.35,21.89c0.567,6.823-0.252,10.803-2.464,11.939c-2.148,1.138-4.55,4.266-7.201,9.38
		c-2.339,4.424-4.58,9.697-6.729,15.825l-6.349,19.046c-2.591,6.57-5.435,10.93-8.528,13.077
		c-6.189,4.231-16.993,6.791-32.406,7.675c-15.668,0.884-27.354-0.566-35.06-4.357c-4.675-2.274-7.141-5.117-7.392-8.527
		c-0.381-7.267-8.908-18.984-25.585-35.156c-6.634-6.38-10.075-10.201-10.329-11.466c-0.568-2.525,0.602-7.17,3.508-13.929
		c3.283-7.646,7.169-13.297,11.652-16.962c-3.284-6.759-10.929-14.528-22.931-23.309l-13.077-3.129
		c-8.211-2.021-13.392-3.569-15.54-4.644c-2.272-1.137-4.864-4.104-7.77-8.905l-8.339-15.445l3.601-3.316l8.149,13.454
		c3.159,4.612,5.779,7.455,7.865,8.528c7.707,3.854,15.129,6.508,22.269,7.96c7.452,1.579,11.086,2.843,10.896,3.79
		c-0.063,0.441-0.885,0.728-2.463,0.854l8.905,7.581c6.13,6.19,10.646,12.792,13.551,19.805l5.687,2.083
		c13.771,4.804,32.532,4.107,56.286-2.083c9.477-2.399,17.466-5.212,23.973-8.435c6.57-3.222,9.854-5.97,9.854-8.243
		c0.129-10.548,1.863-19.645,5.212-27.29c3.349-7.581,8.561-14.466,15.636-20.658c9.096-7.832,15.13-15.189,18.098-22.076
		c-6.126,1.577-16.896,3.222-32.312,4.927l-34.869,2.086c-5.623-0.38-12.604-6.352-20.943-17.91
		c-7.073-9.729-11.117-16.71-12.128-20.94l3.696-0.947c0.947,3.979,4.958,10.453,12.033,19.426
		c7.706,9.854,13.551,14.781,17.529,14.781c10.804,0,21.068-0.285,30.796-0.854c15.351-0.822,27.194-2.273,35.534-4.357
		c-7.075-8.467-11.623-15.036-13.646-19.711c-0.126,1.2-0.063,3.158,0.189,5.876c0.252,2.021,0.126,3.063-0.379,3.126
		c-1.013,0.254-1.801-1.802-2.369-6.159c-1.074-7.201-0.189-14.309,2.652-21.32c3.286-8.086,8.813-14.75,16.582-19.993
		c1.073-0.822,2.843-1.832,5.308-3.031c2.591-1.326,4.643-2.212,6.159-2.653c0.948-0.252,1.674-0.095,2.18,0.474
		c0.567,0.568,0.505,1.106-0.188,1.61l-8.149,4.455c11.623,4.483,19.932,8.211,24.921,11.18c0.506-2.336,0.821-5.905,0.947-10.706
		c0.063-5.369,0.223-8.845,0.475-10.424c0.633-4.675-0.727-10.266-4.073-16.772c-3.665-7.073-8.782-13.17-15.354-18.286
		c-7.769-6.065-17.371-10.016-28.806-11.846C547.671,216.162,530.835,218.436,512.959,225.573"/>
	<path fill="#D7A400" d="M687.596,402.58l17.342,47.567c-5.813,5.813-15.54,8.085-29.187,6.822
		c-13.075-1.327-25.205-5.338-36.386-12.034c-10.803-6.507-19.68-14.561-26.628-24.163c-6.947-9.665-9.57-17.72-7.864-24.163
		c-2.907-3.854-4.737-6.76-5.496-8.718c-1.264-3.097-2.874-9.667-4.832-19.711c-1.453-7.264-4.579-16.486-9.382-27.668
		c-4.106-9.476-6.159-16.077-6.159-19.805c0-5.371,1.832-11.147,5.497-17.341c3.536-5.938,6.887-9.352,10.044-10.233l22.362-5.211
		l31.27,39.229L687.596,402.58"/>
	<path fill="#B08600" d="M687.596,402.58l17.342,47.567c-3.536,3.535-8.748,5.75-15.636,6.633l-21.509-1.042
		c-3.854-17.878-12.572-34.238-26.154-49.085c-12.76-13.897-28.048-24.731-45.86-32.5l-1.232-5.972
		c-1.199-5.685-2.906-11.434-5.117-17.243c7.013-6.762,11.183-15.7,12.51-26.817c1.198-10.74-0.444-21.289-4.93-31.649l19.899-4.547
		l31.27,39.229L687.596,402.58"/>
	<path fill="#A4725D" d="M662.107,427.405l4.072,3.602c1.771,1.453,3.633,2.526,5.592,3.222c5.686,1.834,14.468,0.853,26.344-2.938
		l2.65,21.037c-5.685,5.748-14.719,7.644-27.1,5.686c-11.245-1.706-22.679-6.063-34.302-13.077
		c-10.677-6.38-19.425-14.086-26.249-23.12c-6.947-9.224-9.821-17.058-8.622-23.499l14.876,10.99
		c3.98,2.719,9.541,5.339,16.679,7.866c1.137,0.377,4.927,2.053,11.371,5.021C652.347,424.469,657.241,426.204,662.107,427.405"/>
	<path fill="#815847" d="M647.42,422.193c4.927,2.274,9.821,4.011,14.688,5.212l4.072,3.602c1.771,1.453,3.634,2.526,5.591,3.222
		c5.687,1.834,14.469,0.853,26.345-2.938l2.65,21.037c-5.493,5.495-14.087,7.453-25.771,5.874
		c-10.614-1.39-21.637-5.306-33.071-11.75c0.822-9.854-1.167-19.614-5.97-29.278h0.096
		C637.186,417.55,640.976,419.227,647.42,422.193"/>
	<path fill="#C6DCDB" d="M641.07,179.237c12.004,11.624,19.679,26.217,23.025,43.777c2.844,15.287,2.084,29.438-2.273,42.45
		l-39.704,22.459c-8.843-2.78-16.803-7.139-23.878-13.077c-8.148-6.821-16.299-16.552-24.448-29.185
		c-8.463-13.142-11.496-28.271-9.096-45.389c2.337-16.804,8.813-28.429,19.425-34.872c6.885-4.169,14.436-5.779,22.646-4.832
		C618.14,161.897,629.573,168.119,641.07,179.237"/>
	<path fill="#A7BAB9" d="M649.409,188.712c8.466,11.435,13.646,24.699,15.541,39.798c1.642,13.393,0.6,25.71-3.128,36.955
		l-20.563,11.656c-4.105-2.528-7.834-4.358-11.183-5.497c-6.821-2.717-11.244-4.863-13.267-6.442
		c-3.602-2.717-6.158-6.854-7.675-12.413c-4.483-16.74-6.35-31.616-5.591-44.632c1.01-17.308,6.854-27.92,17.529-31.838
		c4.611-1.83,9.634-1.137,15.066,2.086L649.409,188.712"/>
	<path fill="#C6DCDB" d="M647.135,324.215l25.869-5.212c2.778,8.653,9.696,22.679,20.751,42.072l23.313,40.746
		c3.726,7.075,9.539,12.604,17.434,16.582c3.918,1.96,6.351,3.315,7.298,4.075c2.084,1.578,3.316,3.6,3.695,6.064
		c0.82,5.241-3.603,12.096-13.266,20.563c-8.972,7.832-16.614,12.478-22.934,13.929c-3.094,0.695-5.591-0.789-7.486-4.453
		c-1.577-3.157-2.776-8.022-3.6-14.593l-1.138-13.455c-0.506-5.687-1.325-10.36-2.464-14.025
		c-2.021-6.44-9.603-22.298-22.741-47.565C659.422,345.125,651.179,330.217,647.135,324.215"/>
	<path fill="#A7BAB9" d="M673.004,319.003c1.643,4.929,4.327,11.15,8.055,18.668c-8.339,1.39-15.697,3.79-22.078,7.201
		c-5.748-10.675-9.696-17.563-11.846-20.657L673.004,319.003"/>
	<path fill="#A7BAB9" d="M696.029,421.626l-1.422-5.118c-2.4-7.706-11.276-25.993-26.626-54.863
		c6.443-4.738,13.298-8.056,20.562-9.949l15.731,27.479l12.792,22.647c3.726,7.075,9.539,12.604,17.434,16.582
		c3.918,1.96,6.352,3.315,7.298,4.075c2.084,1.578,3.316,3.6,3.695,6.064c0.632,4.421-2.622,10.169-9.761,17.245
		c-6.443,6.318-13.234,11.276-20.372,14.876c8.273-12.065,12.918-19.866,13.929-23.404c2.337-8.022-1.61-13.739-11.845-17.15
		C711.19,418.594,704.052,419.098,696.029,421.626"/>
	<path fill="#D7A400" d="M701.432,339.85c-6.064,2.592-10.803,4.298-14.214,5.117c-2.147,0.505-5.117-3.663-8.907-12.508
		l-5.022-13.456c-14.15,5.183-23.721,8.339-28.71,9.477c-0.38,8.973-3.254,18.604-8.624,28.899
		c-4.927,9.539-9.822,15.731-14.688,18.574c-4.609,2.717-10.326,2.747-17.15,0.095c-6.567-2.589-11.213-6.38-13.929-11.371
		c-2.086-3.79-1.232-12.13,2.559-25.017c4.928-15.225,8.119-26.152,9.57-32.785c1.832-8.593,5.434-14.878,10.802-18.857
		c1.075-0.759,6.382-3.379,15.92-7.864l28.333-12.981c14.401-6.063,24.51-8.907,30.322-8.526
		c6.128,0.379,12.097,4.264,17.907,11.654c4.737,6,7.678,11.591,8.813,16.771c0.822,3.476-0.505,11.623-3.979,24.448
		C707.717,321.498,704.717,330.944,701.432,339.85"/>
	<path fill="#B08600" d="M714.412,287.071c0.822,3.476-0.505,11.623-3.979,24.447c-2.717,9.979-5.717,19.426-9.002,28.331
		c-6.064,2.592-10.803,4.298-14.214,5.117c-2.147,0.505-5.117-3.663-8.907-12.508l-5.022-13.456
		c-14.15,5.182-23.721,8.339-28.71,9.477c-0.38,8.973-3.254,18.604-8.624,28.899c-4.927,9.539-9.822,15.731-14.688,18.574
		c-4.23,2.464-9.508,2.621-15.823,0.474c-6.064-2.021-10.708-5.245-13.93-9.666c9.854-2.525,19.078-10.074,27.669-22.646
		l10.044-16.203c3.98-6.759,7.17-11.688,9.57-14.781c3.602-4.042,8.75-7.803,15.445-11.276c2.084-1.137,8.371-3.979,18.856-8.527
		c16.298-7.201,26.815-15.256,31.554-24.163c2.466,2.97,4.644,6.224,6.539,9.761C712.896,282.145,713.97,284.861,714.412,287.071"/>
	<path fill="#D7A400" d="M725.498,325.921c5.939-1.453,11.751-1.17,17.436,0.854c5.436,1.896,9.444,6.316,12.036,13.267
		c2.272,5.938,2.843,10.991,1.704,15.161c-2.717,10.612-8.021,22.203-15.918,34.775c-6.256,10.105-11.719,17.34-16.394,21.698
		c-5.623-8.275-9.793-15.319-12.509-21.13c-10.297,4.675-17.688,7.677-22.173,9.002c-8.907,16.741-19.331,25.11-31.271,25.11
		c-4.232,0.063-8.309-1.011-12.225-3.221c-3.223-1.77-5.496-3.695-6.821-5.781c-1.96-3.222,0.347-12.759,6.916-28.616
		c6.443-15.35,11.34-24.226,14.688-26.626l21.228-11.845c13.012-7.014,21.604-11.846,25.771-14.499
		C714.602,329.9,720.446,327.183,725.498,325.921"/>
	<path fill="#B08600" d="M745.493,328.005c4.548,2.591,7.864,7.077,9.95,13.456c1.768,5.434,2.178,10.013,1.229,13.74
		c-2.717,10.612-7.929,22.109-15.635,34.492c-6.19,9.916-11.591,17.055-16.203,21.414c-6.19-8.148-10.612-15.128-13.267-20.94
		l-11.561,5.4c-4.231,1.896-7.677,3.222-10.328,3.979c-5.118,9.602-10.835,16.487-17.15,20.657c-5.243,3.476-10.678,4.96-16.3,4.453
		c4.424-4.801,9.13-11.971,14.119-21.51c6.888-13.077,10.93-20.531,12.13-22.362c2.716-3.98,7.58-7.991,14.592-12.035
		c4.17-2.397,10.896-5.874,20.184-10.423C734.628,349.168,744.041,339.061,745.493,328.005"/>
	<path fill="#D7A400" d="M604.873,92.061c5.053-2.718,8.212-3.127,9.477-1.231c1.263,1.768,0.41,4.484-2.56,8.149l-49.748,62.159
		c-31.521,39.927-48.895,63.487-52.116,70.688c-3.283,7.329-2.432,18.478,2.561,33.45c2.776,8.401,6.538,17.118,11.275,26.151
		c2.905,5.561,3.854,9.413,2.844,11.563c-0.76,1.642-2.844,2.463-6.257,2.463c-44.851,2.148-72.456,4.074-82.815,5.78
		c-6.569,1.072-20.247,10.803-41.03,29.186c-11.876,10.55-22.931,20.941-33.165,31.174c-2.528,2.528-6.664,3.539-12.413,3.033
		c-5.56-0.442-10.36-2.021-14.404-4.737c-5.494-3.728-9.222-22.143-11.18-55.244c-0.38-6.128-7.107-12.351-20.185-18.666
		l-25.299-10.234c-4.233-1.896-6.665-3.442-7.298-4.645c-0.757-1.516,0.317-3.535,3.222-6.063l22.08-18.669
		c11.37-9.477,18.604-15.381,21.699-17.719c0.252-5.561,1.231-11.563,2.938-18.005c1.642-6.253,3.159-10.014,4.547-11.275
		c-1.136-6.57-7.073-27.858-17.813-63.866l-17.53-57.708c-1.453-4.547-1.579-7.58-0.379-9.096c1.137-1.518,3.032-0.948,5.686,1.706
		l86.135,87.649c17.245-5.432,33.639-6.35,49.18-2.748c7.769,1.832,13.803,4.169,18.098,7.013
		C544.545,123.677,596.029,96.923,604.873,92.061"/>
	<path fill="#B08600" d="M437.248,236.186c7.895-5.37,13.865-13.613,17.909-24.732l3.126-9.096c0.82-2.084,1.644-2.652,2.465-1.705
		c2.589,3.156,3.82,9.189,3.694,18.099c-0.188,10.423-3.096,18.54-8.718,24.353c-3.476,3.602-8.181,12.729-14.118,27.386
		c-4.928,12.003-9.855,18.414-14.782,19.235l-18.383,2.746c-6.191,1.073-10.866,2.465-14.023,4.17
		c-2.654,1.452-9.697,10.203-21.132,26.249c-10.675,15.035-16.394,22.205-17.15,21.51c-0.631-0.634,3.6-11.813,12.698-33.546
		c9.096-21.855,14.653-33.892,16.677-36.102c2.148-2.273,8.748-7.549,19.805-15.824C416.307,250.715,426.95,243.134,437.248,236.186
		"/>
	<path fill="#B08600" d="M347.702,131.195l36.196,37.335c-4.421,1.453-12.064,4.862-22.931,10.231
		c-1.199,0.634-6.411-7.736-15.635-25.109l-30.511-56.476L347.702,131.195"/>
	<path fill="#B08600" d="M374.234,340.797l7.865,2.18c5.179,1.581,7.61,2.875,7.296,3.886c-0.442,1.327-2.528,3.821-6.254,7.485
		c-4.044,3.979-7.738,6.981-11.088,9.002c1.958-4.041,2.906-9.002,2.843-14.875L374.234,340.797"/>
	<path fill="#B08600" d="M584.88,118.214c9.477-9.792,16.931-16.108,22.362-18.952c1.832-0.946,3.19-1.357,4.073-1.231
		c0.759,0.063,0.917,0.38,0.475,0.948l-49.748,62.159c-31.521,39.927-48.895,63.487-52.116,70.688
		c-3.221,7.203-2.464,18.065,2.274,32.597c-3.537-4.044-6.696-9.979-9.477-17.813c-3.097-8.973-4.39-17.216-3.885-24.732
		c0.505-6.948,12.192-23.373,35.062-49.274C545.903,159.085,562.896,140.956,584.88,118.214"/>
	<path fill="#FFFFFF" d="M345.145,268.499l-1.896,14.309c-1.073-0.38-2.369-1.011-3.887-1.896c-2.968-1.832-5.494-4.013-7.58-6.539
		c-1.451-1.83-2.336-5.337-2.652-10.518l-0.095-9.097L345.145,268.499"/>
	<path fill="#FFFFFF" d="M418.011,284.987c-2.843,1.324-8.652,2.242-17.434,2.746c-9.35,0.569-14.624-0.063-15.825-1.896
		c-1.073-1.642-1.61-3.157-1.61-4.548l0.283-1.611l5.212-6.633l39.515-16.583c0.188,5.117-0.854,10.867-3.128,17.247
		C422.749,280.153,420.413,283.914,418.011,284.987"/>
	<path fill="#DBDCDC" d="M345.333,267.457l-0.568,4.642c-4.675-4.104-9.949-8.211-15.825-12.317l0.285-6.063L345.333,267.457"/>
	<path fill="#DBDCDC" d="M428.151,256.463l0.379,2.561l-0.379,2.938l-21.32,8.528c-7.455,2.717-11.909,4.423-13.36,5.117
		l-5.686,3.409l-3.887,3.979c-0.503,0.633-0.726,0.126-0.662-1.516l0.188-2.749l5.212-5.686L428.151,256.463"/>
	<path fill="#D7A400" d="M379.825,335.585c5.62-0.251,11.528,0.349,17.719,1.801c6.823,1.579,13.077,4.044,18.763,7.393
		c4.863,2.969,13.393,12.225,25.584,27.764c15.098,19.396,25.647,32.154,31.649,38.282c13.896,14.277,30.479,23.025,49.748,26.248
		c15.098,2.59,28.741,1.674,40.935-2.748c1.517-0.505,2.433-0.349,2.748,0.474c0.379,0.757-0.031,1.675-1.231,2.749
		c-2.97,2.779-6.696,5.561-11.182,8.337l-5.78,3.316l12.414-1.23l16.771-2.653c-0.379,2.274-6.538,7.296-18.478,15.066l3.695,3.79
		c2.651,2.589,4.484,4.073,5.494,4.453c-1.199,1.642-3.441,3.159-6.728,4.549l-4.452,1.704l5.874,9.572
		c4.483,6.822,8.055,11.245,10.708,13.267c-2.843,0.631-7.991,0.251-15.446-1.139l-10.328-2.274l1.896,5.213
		c1.707,3.789,3.665,6.284,5.876,7.485c-3.159,1.013-6.918,1.391-11.276,1.138c-4.863-0.254-9.35-1.296-13.455-3.128
		c1.959,4.232,4.392,8.75,7.296,13.552c-4.042-0.063-9.254-1.232-15.635-3.508c-12.698-4.547-24.825-12.412-36.388-23.595
		c-8.4-8.212-16.267-18.761-23.596-31.646c-6.633-11.624-15.918-30.702-27.855-57.233c-9.729-21.668-20.784-37.903-33.165-48.706
		c-9.225-8.021-18.037-12.317-26.438-12.887L379.825,335.585"/>
	<path fill="#B08600" d="M563.369,484.45c4.483,6.822,8.055,11.245,10.708,13.267c-2.843,0.631-7.991,0.251-15.446-1.139
		l-10.328-2.274l3.316,6.159c2.591,4.423,4.991,7.232,7.203,8.435c-2.844,0.946-7.044,1.013-12.604,0.189
		c-5.56-0.759-10.518-2.117-14.877-4.075c1.959,4.232,5.308,9.065,10.044,14.499c-4.482-0.189-10.14-1.518-16.962-3.98
		c-13.645-4.863-26.246-12.887-37.809-24.068c-6.064-6-11.688-12.887-16.865-20.655c9.35,7.2,21.604,13.074,36.765,17.625
		c13.077,3.916,20.689,5.273,22.836,4.074c0.822-0.443-0.22-3.315-3.126-8.625c-2.717-4.862-3.222-7.136-1.516-6.82l9.191,1.609
		l12.032-0.474c1.073-0.252,0.886-2.526-0.567-6.822c-1.391-3.979-1.61-5.812-0.662-5.496c3.158,1.139,7.484,1.991,12.979,2.56
		l10.897,0.283c-1.201,1.58-3.411,3.097-6.634,4.55l-4.452,1.608L563.369,484.45"/>
	<path fill="#E4EEEE" d="M575.214,200.179c0.316-3.602,1.075-6.759,2.274-9.476c1.262-2.906,2.938-4.897,5.021-5.971
		c4.612-2.4,9.128-1.771,13.55,1.896c4.106,3.41,6.159,7.58,6.159,12.507c0,19.205-3.726,28.964-11.181,29.28
		c-5.245,0.19-9.446-3.063-12.604-9.759C575.656,212.718,574.583,206.559,575.214,200.179"/>
	<path fill="#D7A400" d="M386.363,177.341c1.451,1.958-0.125,4.612-4.737,7.96c-7.706,5.622-13.71,12.604-18.004,20.94
		c-2.905,5.56-5.245,12.353-7.013,20.373c-0.568,2.401-1.832,3.696-3.79,3.887c-1.832,0.188-3.855-0.537-6.064-2.181
		c-5.497-4.104-8.149-9.443-7.96-16.015c0.19-6.189,4.358-12.98,12.509-20.372c7.073-6.38,14.243-10.93,21.509-13.646
		C380.268,175.572,384.783,175.257,386.363,177.341"/>
	<path fill="#0D131A" d="M616.434,285.838l-5.021,5.496l-16.679,3.602c-3.664,1.074-7.201,4.358-10.612,9.854
		c-3.664,6.002-4.896,11.562-3.695,16.679c1.013,4.23,2.496,8.939,4.454,14.117c1.705,4.612,3.316,8.34,4.832,11.184
		c-0.947,2.21-1.421,4.675-1.421,7.392l-5.686-11.75c-3.159-7.013-5.213-13.868-6.159-20.563c-0.759-5.24,0.346-10.737,3.315-16.485
		c3.285-6.508,7.96-11.023,14.023-13.552C597.513,290.292,605.063,288.303,616.434,285.838"/>
	<path fill="#0D131A" d="M658.506,197.24c5.687,10.931,8.876,22.933,9.57,36.008c0.633,11.751-0.757,22.742-4.17,32.977
		l-4.168-1.421c3.221-9.728,4.357-20.342,3.411-31.839c-1.012-12.317-4.297-23.626-9.855-33.924
		c-7.706-14.339-17.781-24.699-30.228-31.079c-12.95-6.507-25.396-7.105-37.335-1.801c-9.854,4.422-15.729,15.415-17.624,32.975
		c-1.831,16.993,0.692,32.092,7.579,45.295c5.75,11.183,12.982,19.993,21.7,26.438c6.695,4.991,15.318,9.159,25.869,12.507
		l-4.265,3.791c-9.033-3.097-17.372-7.738-25.017-13.929c-9.032-7.393-16.329-16.395-21.889-27.006
		c-8.591-16.362-11.624-33.039-9.099-50.033c2.466-16.297,9.099-27.764,19.898-34.396c11.058-6.759,24.417-6.412,40.083,1.042
		C638.575,170.235,650.42,181.702,658.506,197.24"/>
	<path fill="#0D131A" d="M658.032,427.122l2.368-2.274c4.358,4.738,9.793,7.58,16.298,8.528c7.203,0.947,13.805-0.79,19.805-5.212
		l1.139,4.927c-5.118,3.664-11.562,5.056-19.331,4.17C670.097,436.25,663.338,432.87,658.032,427.122"/>
	<path fill="#0D131A" d="M675.088,318.34c2.149,6.444,6.316,15.51,12.508,27.195l-3.979,1.706
		c-6.316-11.623-10.549-20.815-12.697-27.574L675.088,318.34"/>
	<path fill="#0D131A" d="M695.176,440.197c-0.883-14.529-3.662-26.911-8.337-37.145l1.23-1.896l1.611-1.611
		c3.284,6.949,5.622,13.929,7.013,20.942c1.011,5.179,1.799,12.222,2.369,21.13c0.252,4.17,1.198,8.212,2.843,12.13
		c1.516,3.474,3.031,5.779,4.547,6.916c3.097,2.148,10.172-1.073,21.227-9.665c11.371-8.779,16.582-16.14,15.636-22.079
		c-0.254-1.769-1.073-3.253-2.463-4.452l-5.878-3.411c-3.725-1.832-6.946-3.918-9.663-6.254c-3.79-3.287-7.014-7.485-9.664-12.604
		l-5.497-10.897l3.411-1.706c3.663,8.592,7.105,14.847,10.328,18.763c2.969,3.602,7.106,6.695,12.412,9.287
		c3.477,1.703,5.813,3.063,7.014,4.072c2.212,1.771,3.536,4.044,3.979,6.824c1.075,6.885-3.38,14.563-13.361,23.024
		c-9.283,7.834-17.369,12.034-24.257,12.604c-3.728,0.38-6.569-0.474-8.528-2.56C697.861,458.139,695.872,451,695.176,440.197"/>
	<path fill="#0D131A" d="M666.466,354.538c-0.885,0.569-2.086,1.675-3.602,3.316c-8.843-16.866-14.688-27.418-17.53-31.647h5.023
		C653.579,331.133,658.948,340.577,666.466,354.538"/>
	<path fill="#0D131A" d="M706.927,267.834c4.611,6.381,7.58,12.479,8.907,18.289c0.885,4.104-0.157,12.444-3.128,25.016
		c-2.338,10.044-4.673,18.161-7.011,24.354l-6.351,3.602c3.349-9.033,6.381-18.636,9.098-28.807
		c3.284-12.067,4.58-19.647,3.886-22.742c-1.138-4.863-3.918-10.138-8.339-15.823c-5.433-6.949-10.897-10.583-16.395-10.896
		c-4.863-0.316-15.13,2.746-30.797,9.189c-9.916,4.042-19.487,8.308-28.71,12.794c-5.496,2.717-9.792,5.591-12.887,8.621
		c-3.918,3.79-7.519,9.098-10.803,15.92c-2.148,4.674-4.991,14.276-8.528,28.808c-3.854,15.854-5.117,25.015-3.79,27.479
		s3.411,4.705,6.254,6.729c2.843,2.084,5.907,3.57,9.19,4.453c5.116,1.452,9.317,1.201,12.604-0.757
		c4.044-2.341,8.782-9.193,14.214-20.563c5.307-11.181,7.991-19.552,8.055-25.111l0.188-3.126c0.19-0.633,0.57-0.946,1.138-0.946
		l11.467-1.327c3.158-0.693,6.569-1.832,10.233-3.411c8.843-3.728,15.033-7.169,18.572-10.328c2.717-2.338,4.138-3.223,4.264-2.654
		c0.126,0.505-0.694,1.896-2.463,4.17c-3.918,5.117-9.824,9.413-17.721,12.888c-7.266,3.158-14.34,4.864-21.228,5.117
		c-0.692,8.401-4.042,18.256-10.044,29.563c-5.558,10.549-10.423,17.026-14.593,19.425c-4.296,2.592-9.664,2.969-16.108,1.14
		c-3.915-1.075-7.483-2.938-10.706-5.592c-3.349-2.653-5.622-5.525-6.823-8.623c-1.896-4.929-0.822-15.289,3.222-31.081
		c2.4-9.284,5.181-18.319,8.34-27.101c4.17-11.876,12.538-20.972,25.11-27.29c14.656-7.137,24.826-11.938,30.512-14.402
		c16.045-7.013,26.724-10.328,32.028-9.949C694.545,255.295,700.926,259.623,706.927,267.834"/>
	<path fill="#0D131A" d="M743.599,323.458c6.695,2.4,11.339,7.327,13.93,14.782c2.273,6.443,2.622,12.761,1.042,18.951
		c-2.906,11.118-8.149,22.741-15.729,34.872c-5.874,9.537-11.117,16.422-15.729,20.654l-2.938-3.885
		c4.233-3.854,9.285-10.611,15.161-20.278c7.391-12.002,12.478-23.31,15.256-33.922c1.263-4.929,0.727-9.981-1.612-15.161
		c-2.399-5.371-6-8.906-10.801-10.613c-4.295-1.578-8.56-2.021-12.792-1.326c-5.117,0.82-11.655,3.379-19.616,7.677l-25.964,13.644
		c-13.834,7.393-21.352,11.624-22.551,12.697c-2.779,2.654-7.138,11.371-13.077,26.153c-6.128,15.351-8.434,24.258-6.916,26.722
		c1.136,1.896,3.22,3.662,6.254,5.307c3.728,2.021,7.58,2.938,11.561,2.748c4.865-0.128,10.646-3.382,17.341-9.762
		c6.254-5.874,9.508-10.392,9.759-13.548c0.128-1.139,1.738-2.369,4.834-3.696c1.896-0.82,5.654-2.211,11.275-4.17
		c12.129-4.801,20.974-10.771,26.531-17.908c2.717-3.475,4.139-4.737,4.265-3.79c0.128,0.82-0.409,2.399-1.61,4.737
		c-2.904,5.496-8.465,10.771-16.677,15.825c-7.644,4.801-15.857,8.369-24.637,10.706c-5.117,9.352-10.709,16.203-16.773,20.563
		c-4.738,3.474-9.602,5.307-14.591,5.494c-4.738,0.19-9.099-0.883-13.077-3.223c-3.285-1.895-5.749-4.201-7.393-6.916
		c-2.589-4.044-0.662-14.467,5.781-31.269c6.19-16.047,11.117-25.364,14.781-27.953c0.948-0.631,8.717-4.832,23.312-12.604
		l25.868-14.119C721.456,322.256,733.301,319.793,743.599,323.458"/>
	<path fill="#0D131A" d="M339.554,279.301l4.169,2.18l0.189,1.895l-5.117-2.368c-3.663-1.959-6.568-4.265-8.718-6.917
		c-1.326-1.643-2.115-5.811-2.368-12.509l-0.095-9.664l2.938,2.843l-0.191,7.96c0.063,5.561,0.6,8.938,1.612,10.139
		C333.868,275.195,336.395,277.343,339.554,279.301"/>
	<path fill="#0D131A" d="M426.636,256.561l4.643-1.896c0.189,5.179-1.073,11.274-3.79,18.287
		c-2.719,7.139-5.526,11.371-8.434,12.697c-4.17,1.959-10.771,2.938-19.805,2.938c-8.845,0.064-13.771-0.757-14.781-2.463
		c-0.822-1.391-1.296-2.684-1.422-3.885l0.189-1.612l1.421-0.852c-0.126,0.126-0.159,0.6-0.095,1.422
		c0.126,1.262,0.6,2.525,1.422,3.79c0.883,1.263,5.686,1.673,14.402,1.229c8.528-0.441,14.214-1.293,17.058-2.558
		c2.021-0.947,4.105-4.454,6.253-10.519C425.908,266.887,426.887,261.361,426.636,256.561"/>
	<path fill="#0D131A" d="M419.149,259.211c9.032-3.916,15.666-7.452,19.898-10.611c2.4-1.833,3.79-2.56,4.169-2.181
		c0.378,0.38-0.474,1.516-2.56,3.411c-5.181,4.801-14.529,10.013-28.048,15.635l-18.667,7.106c-3.602,1.707-6.35,3.887-8.245,6.539
		c-1.264,1.642-2.874,4.832-4.832,9.569c-13.518,31.271-21.161,48.518-22.931,51.738c-1.327,2.399-2.18,3.537-2.56,3.411
		c-0.379-0.128-0.031-1.453,1.042-3.98l21.417-52.493c2.717-6.509,4.895-10.834,6.536-12.983c1.327-1.704,3.442-3.251,6.351-4.644
		C401.081,266.446,410.557,262.939,419.149,259.211"/>
	<path fill="#0D131A" d="M345.901,267.171l1.896,1.801l0.19,2.369c-1.139,5.182-4.36,27.194-9.667,66.045
		c-0.505,3.159-0.947,4.484-1.326,3.981c-0.441-0.508-0.537-1.866-0.283-4.075l3.79-32.123l4.358-34.966l-11.465-10.233
		c-3.602-3.222-6.38-6.224-8.34-9.002l-1.989-3.222l1.989,1.61C330.486,254.791,337.438,260.727,345.901,267.171"/>
	<path fill="#0D131A" d="M336.616,357.95c-0.063-1.58,0.126-2.339,0.568-2.274l1.421,2.18l1.422,5.308
		c0.126,1.262-0.128,1.958-0.759,2.084c-0.694,0.063-1.201-0.411-1.516-1.422C337.119,362.18,336.742,360.222,336.616,357.95"/>
	<path fill="#0D131A" d="M351.113,365.531c0.19-2.021,0.759-3.916,1.706-5.687c1.453-2.717,2.053-2.591,1.801,0.377l-1.232,6.065
		c-0.38,1.012-0.885,1.421-1.516,1.231C351.24,367.392,350.987,366.73,351.113,365.531"/>
	<path fill="#0D131A" d="M340.216,263.193c1.138,1.136,1.642,2.463,1.516,3.979l-0.662,4.265c-0.442,1.327-0.885,1.959-1.327,1.896
		c-0.506,0-0.883-1.199-1.137-3.602c-0.316-2.272-0.41-4.265-0.285-5.969C338.448,262.245,339.079,262.054,340.216,263.193"/>
	<path fill="#0D131A" d="M395.934,271.056c0-0.631,0.82-1.229,2.464-1.801c1.58-0.567,2.368-0.474,2.368,0.285
		c0,3.223-0.284,5.845-0.853,7.866c-0.506,1.704-1.011,2.558-1.516,2.558c-0.634,0-1.17-0.759-1.61-2.273
		C396.217,276.047,395.934,273.836,395.934,271.056"/>
	<path fill="#0D131A" d="M376.129,341.936c-1.958-0.441-2.905-0.916-2.843-1.422c0-0.441,0.634-0.538,1.896-0.284l8.907,1.989
		c5.117,1.58,10.075,4.013,14.876,7.297c14.342,9.855,27.071,27.261,38.188,52.21c11.813,26.344,20.973,45.231,27.479,56.666
		c7.327,12.887,15.161,23.372,23.499,31.459c8.781,8.527,18.794,15.571,30.039,21.132c8.086,3.916,15.066,6.411,20.94,7.483
		c-4.611-4.229-7.865-8.401-9.762-12.508c-1.449-3.094-0.503-4.075,2.844-2.937l11.183,2.937c6.064,1.453,10.423,2.243,13.077,2.369
		c-5.117-4.737-8.528-9.224-10.234-13.454c-0.567-1.327-0.695-2.181-0.38-2.56l3.033-0.096c9.351,2.084,16.075,3.255,20.183,3.506
		c-2.969-3.347-5.717-6.947-8.243-10.802c-2.399-3.538-4.139-6.507-5.212-8.906c-0.693-1.706,0.979-3.159,5.021-4.358
		c3.727-1.073,5.244-1.991,4.549-2.748l-5.497-5.497c-2.209-2.463-2.684-4.105-1.421-4.927c4.297-2.589,8.813-5.813,13.551-9.666
		l-13.646,1.801l-9.19,0.759c-2.273,0-3.507-0.315-3.696-0.947c-0.188-0.632,0.663-1.706,2.559-3.223l6.064-3.695
		c3.475-2.021,6.508-4.169,9.097-6.442c-19.708,6.38-37.966,5.969-54.77-1.232c-19.836-8.527-41.25-27.542-64.246-57.042
		c-13.454-17.373-24.131-28.648-32.025-33.828c-7.203-4.738-17.626-7.802-31.27-9.191c-2.212-0.19-3.254-0.505-3.128-0.947
		c0.063-0.441,0.821-0.692,2.274-0.759c13.138-0.442,24.73,2.526,34.774,8.907c9.412,6.001,20.342,17.024,32.785,33.07
		c21.731,27.922,42.072,46.24,61.024,54.958c16.613,7.645,34.111,8.592,52.496,2.844c9.979-3.098,11.275-0.916,3.884,6.539
		c-2.777,2.778-4.991,4.675-6.633,5.685l14.593-1.611c3.285-0.441,5.212-0.254,5.78,0.568c0.567,0.821-0.063,2.243-1.896,4.264
		l-5.306,5.309l-8.435,6.159l6.538,6.158c2.084,1.771,3.065,3.126,2.938,4.074c-0.188,1.012-1.675,1.959-4.453,2.842l-8.434,2.182
		c1.579,2.715,4.231,6.38,7.96,10.99l7.96,9.002l3.41,3.031l-4.357,0.854l-12.415-1.042l-11.654-2.559
		c1.137,1.896,3.38,4.802,6.729,8.718c2.021,2.399,3.002,3.916,2.938,4.549c-0.126,0.567-1.355,0.948-3.696,1.137
		c-5.493,0.442-12.854-0.568-22.076-3.031c1.768,2.398,4.581,5.526,8.434,9.379c1.896,1.896,2.717,3.159,2.464,3.791l-7.298,0.38
		c-19.52-3.097-37.303-12.444-53.347-28.049c-8.402-8.213-16.301-18.95-23.689-32.217c-6.128-10.992-15.353-30.163-27.671-57.518
		C416.938,367.172,397.924,346.673,376.129,341.936"/>
	<path fill="#0D131A" d="M601.746,91.208c7.138-3.223,11.655-3.696,13.551-1.422c1.896,2.336,0.314,6.885-4.738,13.644
		l-50.601,64.152c-30.765,39.167-47.063,60.833-48.896,65.003c-2.337,5.18-1.831,14.055,1.518,26.626
		c3.031,11.499,7.138,21.859,12.318,31.081c3.476,6.065,4.325,10.486,2.558,13.267c-1.579,2.464-5.4,3.727-11.466,3.79
		l-42.735,1.802l-35.06,3.126c-5.371,0.946-17.371,9.761-36.009,26.438c-1.327-0.885-3.189-1.39-5.59-1.516
		c20.341-17.625,33.858-27.006,40.557-28.146l42.641-3.692l36.104-1.612c4.549,0.128,7.295-0.568,8.242-2.084
		c1.011-1.643,0.253-4.737-2.272-9.287c-3.854-6.886-7.232-14.308-10.141-22.268c-3.916-10.804-5.874-20.024-5.874-27.668
		c0-4.422,0.693-8.245,2.085-11.467c2.778-6.063,20.056-29.279,51.832-69.646l49.368-62.445c1.832-2.717,2.559-4.455,2.179-5.212
		l-5.4,0.38c-3.157,1.073-27.668,13.706-73.531,37.902c-45.609,24.067-72.08,38.313-79.406,42.735
		c4.17,3.662,6.477,6.315,6.918,7.96c0.441,1.705-2.053,0.348-7.485-4.075c-8.843-7.267-20.279-11.465-34.302-12.604
		c-12.636-1.011-24.953,0.475-36.955,4.455c-3.033,1.011-4.581,1.293-4.644,0.854c-0.065-0.443,1.294-1.358,4.073-2.748
		l-85.185-86.608c-1.644-1.39-2.495-1.231-2.56,0.475c0,1.198,0.316,2.779,0.947,4.737l15.541,50.602
		c9.665,31.9,15.761,53.127,18.289,63.676c2.526-3.348,5.622-6.412,9.285-9.19c2.779-2.086,6.697-4.518,11.75-7.298
		c3.476-1.895,5.212-2.589,5.212-2.084c0,0.442-1.516,1.736-4.549,3.886c-9.477,6.823-16.457,14.37-20.941,22.646
		c-4.61,8.466-6.887,18.099-6.821,28.901l-0.285,5.399c-0.189,0.379-0.728-0.411-1.61-2.369
		c-4.232,3.223-11.813,9.287-22.742,18.194l-21.889,18.004c-1.201,1.011-1.518,2.084-0.948,3.224c0.631,1.324,2.432,2.335,5.4,3.03
		c13.078,2.97,24.448,7.706,34.113,14.214c8.97,6.064,13.613,11.594,13.928,16.582c1.959,33.165,5.212,51.265,9.761,54.298
		c3.665,2.463,8.149,3.728,13.455,3.79c5.117,0.126,8.719-0.854,10.803-2.938c7.897-7.833,16.614-16.013,26.152-24.541l2.274,0.568
		c0.948,0.126,1.707,0.505,2.275,1.136l-15.92,14.973l-13.74,12.033c-2.652,2.086-6.916,3.033-12.792,2.843
		c-5.812-0.188-10.36-1.355-13.644-3.505c-5.876-3.854-9.824-22.995-11.845-57.423c-0.57-9.602-16.394-19.584-47.475-29.944
		c-4.358-1.642-6.696-3.315-7.01-5.021c-0.379-1.896,1.325-4.549,5.115-7.96l21.511-18.479l22.269-18.191
		c-0.568-4.738-0.442-9.635,0.379-14.688c0.822-5.748,2.432-10.803,4.832-15.161l-17.436-61.592l-15.161-52.97
		c-1.958-7.897-2.146-12.572-0.568-14.025c1.453-1.327,4.484-0.03,9.096,3.886c7.96,6.887,36.167,35.061,84.619,84.523
		c9.728-3.918,20.53-5.56,32.406-4.928c12.57,0.569,23.404,3.633,32.502,9.192l71.257-37.716
		C564.033,109.781,591.069,95.946,601.746,91.208"/>
	<path fill="#0D131A" d="M640.217,415.561l-0.567,3.224c-13.267-1.958-24.258-7.771-32.976-17.438
		c0.378,6.128,3.822,13.235,10.327,21.321c6.57,8.148,14.404,14.94,23.501,20.372c12.066,7.265,24.194,11.371,36.387,12.318
		c10.992,0.947,18.637-0.728,22.932-5.021l1.231,4.073c-4.169,4.17-12.098,6.002-23.783,5.497
		c-13.457-0.694-26.405-4.771-38.851-12.226c-23.563-14.149-35.504-30.955-35.819-50.409c-2.591-3.538-4.862-7.896-6.82-13.077
		c-2.021-5.496-3.128-10.582-3.316-15.255l5.021,3.03c1.579,11.245,7.107,21.227,16.583,29.942
		C622.529,409.686,631.248,414.233,640.217,415.561"/>
	<path fill="#D7A400" d="M330.834,333.408l0.475,7.675c-5.241,5.622-8.592,11.53-10.044,17.719
		c-1.453,6.381-2.433,15.92-2.938,28.618c-0.568,15.604-1.106,25.583-1.61,29.942c-2.339,19.141-7.771,36.86-16.299,53.158
		c-6.317,12.064-13.266,21.669-20.847,28.807c-6.822,6.508-14.149,11.34-21.983,14.499l-9.667,2.843l2.18-2.843
		c1.453-2.905,2.369-6.887,2.749-11.941c-16.677,6.002-29.312,7.17-37.903,3.509c3.979-2.908,8.749-5.78,14.308-8.623l7.201-3.508
		l-21.509-0.854l15.444-12.128l-7.295,0.38c-5.434,0.439-9.602,1.199-12.509,2.271l2.939-11.37c1.136-4.484,2.748-7.61,4.832-9.38
		l-15.067,1.042l-9.949,1.609c1.074-4.358,4.422-8.685,10.044-12.979l8.054-5.213l-10.328-5.116
		c6.95-3.031,14.718-4.201,23.311-3.505l21.32-0.854c9.855-1.578,17.972-4.455,24.352-8.622
		c7.834-5.117,15.129-14.721,21.888-28.806c4.864-10.107,8.782-20.912,11.75-32.408
		C308.093,350.906,317.128,339.598,330.834,333.408"/>
	<path fill="#B08600" d="M308.946,414.045c5.622-19.077,8.686-26.846,9.192-23.309c0.503,3.79,0.503,8.434,0,13.928l-1.422,12.697
		c-2.339,19.141-7.771,36.86-16.299,53.158c-6.317,12.064-13.266,21.669-20.847,28.807c-6.822,6.508-14.149,11.34-21.983,14.499
		l-9.667,2.843l2.18-2.843c1.453-2.905,2.369-6.887,2.749-11.941c-16.677,6.002-29.312,7.17-37.903,3.509
		c3.979-2.908,8.749-5.78,14.308-8.623l7.201-3.508l-21.509-0.854l15.444-12.128l-7.295,0.38c-5.434,0.44-9.602,1.199-12.509,2.271
		l2.939-11.37c1.136-4.484,2.748-7.61,4.832-9.38l-15.067,1.043l-9.949,1.608c0.379-1.326,4.011-3.474,10.897-6.44
		c7.012-2.97,12.192-4.455,15.541-4.455c3.916,0,6.444,0.602,7.581,1.801c1.453,1.644,1.358,4.77-0.285,9.381
		c-0.757,2.338,1.455,2.464,6.633,0.38l11.182-5.022c1.327-0.442,0.947,2.812-1.137,9.761c-2.085,7.011-2.243,10.327-0.474,9.95
		l11.56-3.888l8.908-0.378l1.801,8.623c0.631,4.044,1.325,6.064,2.084,6.064c1.39,0,5.874-4.297,13.455-12.89
		c8.339-9.476,13.614-17.275,15.826-23.403L308.946,414.045"/>
	<path fill="#0D131A" d="M332.067,333.596c0.759,0.442-0.633,1.579-4.17,3.411c-10.677,5.37-18.004,15.668-21.983,30.893
		c-2.779,10.36-6.224,20.088-10.329,29.185c-7.329,16.424-15.413,27.51-24.257,33.259c-7.646,5.055-17.404,8.213-29.28,9.477
		c-6.759,0.759-12.698,0.885-17.815,0.379c-6.442-0.567-12.318-0.031-17.624,1.612c2.906,0.82,5.022,1.642,6.35,2.463
		c1.77,1.073,2.526,1.958,2.272,2.651l-2.843,1.706c-2.904,1.138-5.716,2.813-8.433,5.023c-3.221,2.651-5.843,5.715-7.865,9.189
		l12.035-1.988l10.519-0.854l2.746,0.475c0.254,0.314,0.097,0.947-0.474,1.896c-2.021,3.223-3.537,6.033-4.547,8.435
		c-1.013,2.464-1.864,5.432-2.56,8.907l16.582-1.611l5.497,0.284c0.884,0.254,0.411,0.916-1.421,1.989l-6.633,4.645l-6.918,5.399
		l15.635,0.854c2.402,0.063,2.876,0.853,1.422,2.368c-3.6,3.602-9.602,7.232-18.004,10.896l16.867-0.662
		c6.948-1.139,12.034-2.495,15.256-4.075c2.78-1.327,4.295-1.927,4.549-1.801l-0.285,2.56l-2.083,6.821l-2.938,6.539
		c10.107-3.537,19.046-8.938,26.815-16.203c8.023-7.581,15.255-17.879,21.7-30.893c7.644-15.539,12.541-32.121,14.688-49.748
		c0.695-6.188,1.232-14.688,1.61-25.488c0.444-12.95,1.106-22.173,1.991-27.67c1.451-9.159,4.168-15.854,8.148-20.088
		c3.79-3.602,5.874-5.18,6.254-4.737c0.379,0.442-1.137,2.651-4.549,6.634c-3.411,3.661-5.652,10.013-6.728,19.046
		c-0.38,3.285-0.82,12.224-1.327,26.815l-0.188,13.36l-0.759,13.172c-2.652,21.731-8.78,41.282-18.382,58.653
		c-5.749,10.359-11.625,18.384-17.626,24.067c-5.685,5.434-14.023,10.17-25.014,14.215c-6.444,2.338-10.14,3.254-11.088,2.747
		c-0.694-0.379-0.157-2.526,1.612-6.442l2.369-6.917c-7.455,2.464-15.035,3.885-22.742,4.265
		c-6.633,0.316-11.341-0.128-14.119-1.327c-1.832-0.82-2.78-1.483-2.843-1.988c-0.065-0.568,0.757-1.169,2.463-1.802
		c6.822-2.464,12.318-5.307,16.488-8.527l-12.887-0.096l-8.339-0.664c-0.505-0.252,1.231-1.799,5.211-4.642l9.57-6.824
		c-5.054,0.38-9.159,1.076-12.318,2.086l-2.558,0.189c-0.252-0.252-0.348-1.233-0.285-2.938c0.126-3.284,0.884-6.539,2.274-9.761
		c1.01-2.399,2.621-5.338,4.833-8.812c-6.443,0-12.76,0.852-18.952,2.558l-3.791,0.474c-0.947-0.44-0.979-1.862-0.094-4.264
		c1.263-3.157,3.538-6.318,6.823-9.476c3.348-3.157,6.79-5.371,10.328-6.634l-9.76-3.315c-1.643-0.506-2.463-0.948-2.463-1.327
		c0.063-0.38,0.916-1.073,2.559-2.084c1.895-1.264,4.864-2.243,8.907-2.938l15.445-0.76l20.752-0.853
		c9.539-1.453,17.404-4.199,23.595-8.243c8.275-5.433,16.015-16.015,23.216-31.744c4.358-9.54,7.769-18.92,10.232-28.144
		c3.854-14.972,11.907-25.521,24.163-31.647C329.539,333.691,331.371,333.154,332.067,333.596"/>
</g>
</svg>
