<?xml version="1.0" encoding="utf-8"?>
<!-- Generator: Adobe Illustrator 16.0.0, SVG Export Plug-In . SVG Version: 6.00 Build 0)  -->
<!DOCTYPE svg PUBLIC "-//W3C//DTD SVG 1.1//EN" "http://www.w3.org/Graphics/SVG/1.1/DTD/svg11.dtd">
<svg version="1.1" id="Layer_1" xmlns="http://www.w3.org/2000/svg" xmlns:xlink="http://www.w3.org/1999/xlink" x="0px" y="0px"
	 width="800px" height="800px" viewBox="0 0 800 800" enable-background="new 0 0 800 800" xml:space="preserve">
<g>
	<path fill="#C8C9CA" d="M495.78,661.7l3.799,13.859l-10.063-0.093l-8.829-0.95c-0.507-0.758,0.791-2.436,3.891-5.03
		C487.615,667.018,491.35,664.422,495.78,661.7"/>
	<path fill="#D7A400" d="M575.723,561.63c2.596-2.215,5.254-3.006,7.977-2.374c1.583,0.38,4.777,1.993,9.59,4.842
		c5.063,3.039,8.229,5.352,9.494,6.933c1.141,1.455,0.729,4.337-1.234,8.641l-5.412,10.158c-0.885,1.771-1.104,5.001-0.664,9.684
		c0.379,4.813,0.031,8.419-1.043,10.823c-0.951,2.091-4.687,7.851-11.204,17.28c-6.014,8.735-9.21,13.957-9.589,15.665
		c-0.509,2.217-0.16,3.546,1.043,3.986l8.642,0.854l16.426-0.758l17.278,0.758c2.596,0.698,7.469,2.595,14.622,5.699
		c6.771,2.848,12.217,5.283,16.33,7.311c5,2.597,8.642,4.872,10.918,6.836c3.481,3.102,5.381,6.583,5.697,10.44
		c0.316,4.497-2.216,8.136-7.597,10.92c-5.569,2.785-10.318,2.499-14.242-0.854c1.076,4.304-0.253,8.324-3.988,12.057
		c-3.796,3.86-8.858,5.98-15.188,6.364c-5.507,0.314-10.032-1.175-13.576-4.464l-7.881-10.158
		c-2.406-3.167-7.025-5.855-13.861-8.071c-5.253-1.771-12.217-3.354-20.889-4.746l-20.982-2.09c-7.278,0-15.571,0.791-24.877,2.372
		c-8.606,1.521-14.685,1.141-18.227-1.137c-0.95-0.635-3.102-3.481-6.457-8.547c-1.836-2.784-2.057-5.793-0.664-9.02
		c0.886-2.023,2.722-4.589,5.506-7.689c1.456-1.519,5.443-2.246,11.963-2.183c7.089,0.063,11.711-0.509,13.861-1.712
		c11.015-9.559,13.989-18.543,8.926-26.964c-2.153-3.668-3.387-6.865-3.702-9.587c-0.38-3.039,0.284-5.981,1.994-8.829
		c1.139-2.027,2.087-5.636,2.848-10.825c0.633-4.873,1.424-7.881,2.373-9.021L575.723,561.63"/>
	<path fill="#B08600" d="M547.811,598.374c-5.254,11.771-6.74,23.765-4.461,35.983c1.012,7.277-1.015,13.574-6.078,18.892
		c-5.443,5.696-13.104,8.737-22.977,9.115c-4.938,0.188-7.088,2.47-6.457,6.836c0.253,2.026,1.68,5.854,4.273,11.488
		c-4.622-0.063-8.103-1.203-10.444-3.416l-4.842-7.219c-1.836-2.785-2.057-5.793-0.664-9.02c0.886-2.023,2.722-4.589,5.506-7.689
		c1.456-1.519,5.443-2.246,11.963-2.183c7.089,0.063,11.711-0.509,13.86-1.712c11.016-9.559,13.99-18.543,8.927-26.964
		c-2.153-3.668-3.388-6.865-3.702-9.587c-0.38-3.039,0.284-5.981,1.994-8.829c1.138-2.027,2.087-5.636,2.848-10.825
		c0.633-4.873,1.424-7.881,2.373-9.021l25.065-15.854l-9.115,14.904C552.334,589.101,549.647,594.132,547.811,598.374"/>
	<path fill="#B08600" d="M612.087,691.701c4.873,4.875,9.873,8.009,15.001,9.4l9.969,0.95c-3.798,2.975-8.291,4.589-13.48,4.842
		c-5.507,0.315-10.032-1.174-13.576-4.463l-7.881-10.158c-2.406-3.167-7.025-5.855-13.861-8.071
		c-5.253-1.771-12.217-3.354-20.889-4.746l-14.146-1.804c11.076-2.785,22.374-2.629,33.896,0.475
		C597.561,680.975,605.883,685.5,612.087,691.701"/>
	<path fill="#B08600" d="M641.52,676.89c8.354,3.8,16.047,4.309,23.072,1.52c0.316,4.497-2.216,8.136-7.597,10.92
		c-5.569,2.785-10.318,2.499-14.242-0.854c0.317,0.063,0.412-0.223,0.285-0.854c-0.315-1.266-1.486-2.974-3.512-5.127
		c-5.634-5.948-12.754-11.047-21.363-15.287c3.797,0.762,7.976,2.184,12.533,4.274L641.52,676.89"/>
	<path fill="#EEEEEF" d="M625.759,699.584c-0.886-3.799,0.317-7.185,3.608-10.159c3.29-2.978,6.676-3.86,10.159-2.658
		c3.1,1.076,6.075,4.59,8.924,10.537c2.596,5.38,4.179,10.667,4.747,15.854c0.063,0.571-0.126,0.888-0.568,0.95
		c-0.443,0.127-0.919-0.063-1.426-0.567C637.532,705.438,629.05,700.786,625.759,699.584"/>
	<path fill="#C8C9CA" d="M625.759,699.584c-0.441-1.965-0.253-3.958,0.569-5.982c9.56,4.619,17.089,10.602,22.598,17.945
		c-2.342-1.077-6.583-3.294-12.723-6.646C630.886,701.989,627.405,700.215,625.759,699.584"/>
	<path fill="#EEEEEF" d="M652.058,674.518c2.851-3.354,6.078-4.683,9.686-3.987c3.039,0.571,6.266,3.322,9.686,8.262
		c3.102,4.43,5.443,9.179,7.025,14.239c0.252,0.888,0.126,1.521-0.381,1.9l-2.089-0.285c-12.343-5.191-21.046-8.354-26.109-9.494
		C648.481,681.479,649.21,677.937,652.058,674.518"/>
	<path fill="#C8C9CA" d="M660.889,685.248l9.02,6.453c-10.632-3.795-17.313-5.981-20.033-6.55c-1.203-3.102-0.76-6.234,1.329-9.397
		C653.103,678.602,656.331,681.765,660.889,685.248"/>
	<path fill="#D7A400" d="M261.27,390.92c11.519,0.316,21.52,2.342,30.002,6.076l81.555,16.615L495.686,568.75
		c-15.57,29.813-37.122,51.016-64.657,63.614c-23.229,10.569-49.37,14.523-78.424,11.866c-24.558-2.153-47.819-8.45-69.783-18.896
		c-20.065-9.62-32.851-19.366-38.357-29.239c-3.672,7.341-10.855,14.367-21.552,21.075c-15.888,9.939-35.004,14.907-57.347,14.907
		c-24.497,0-43.041-9.906-55.637-29.719c-5.443-8.48-8.987-17.849-10.634-28.103c-1.582-10.063-1.14-19.685,1.329-28.862
		c14.304,11.771,26.9,18.229,37.789,19.366c6.329,0.635,12.595-0.757,18.799-4.177c-8.039-14.05-12.564-28.957-13.578-44.719
		c-1.456-22.025,4.083-44.719,16.615-68.074c13.989-26.142,35.541-43.517,64.658-52.125
		C236.933,392.06,249.054,390.477,261.27,390.92"/>
	<path fill="#B08600" d="M263.168,390.35c10.571,0.823,19.938,3.039,28.104,6.646l81.555,16.615L495.686,568.75
		c-15.57,29.813-37.122,51.016-64.657,63.614c-23.229,10.569-49.37,14.523-78.424,11.866c-24.558-2.153-47.819-8.45-69.783-18.896
		c-20.065-9.62-32.851-19.366-38.357-29.239c-3.672,7.341-10.855,14.367-21.552,21.075c-15.888,9.939-35.004,14.907-57.347,14.907
		c-18.988,0-34.75-6.424-47.283-19.274c-11.328-11.646-17.974-26.076-19.937-43.293c16.203,25.95,36.647,39.561,61.333,40.824
		c12.66,0.635,22.597-1.834,29.813-7.403c5.822-4.495,9.938-11.173,12.342-20.035c0.759-2.785,1.456-9.335,2.088-19.652
		c0.759-13.418,1.456-22.912,2.089-28.482c2.787-24.812,8.863-38.167,18.23-40.066c0.886,10.128,4.524,20.763,10.918,31.902
		c6.013,10.508,13.608,19.905,22.787,28.196c9.242,8.419,18.515,14.273,27.817,17.564c10.066,3.609,18.801,3.64,26.206,0.096
		c13.671-6.519,22.217-20.666,25.634-42.44c2.659-16.835,2.12-33.862-1.615-51.08c-4.177-19.177-12.754-35.729-25.729-49.652
		c-19.306-20.638-46.458-32.631-81.463-35.986C240.127,390.509,251.584,389.527,263.168,390.35"/>
	<path fill="#A4725D" d="M328.205,425.576c2.469,8.607,6.077,15.507,10.824,20.696c-20.572,9.18-37.028,21.458-49.372,36.837
		c-10.001,12.406-17.184,26.585-21.552,42.535c-5.191,19.369-5.254,39.751-0.189,61.146c2.532,10.76,5.569,19.557,9.113,26.392
		l-2.942,7.693l-18.704-12.438c-16.647-23.549-25.224-47.566-25.729-72.063c-0.444-21.014,5.031-41.301,16.424-60.857
		c9.812-16.9,22.692-31.205,38.643-42.914c14.811-10.889,28.514-16.996,41.11-18.325L328.205,425.576"/>
	<path fill="#815847" d="M270.763,597.897c2.152,6.393,4.24,11.488,6.266,15.284l-2.942,7.693l-18.704-12.438
		c-21.077-29.812-29.21-60.193-24.4-91.146c7.214,15.507,18.166,29.526,32.851,42.061
		C264.212,572.264,266.523,585.111,270.763,597.897"/>
	<path fill="#815847" d="M329.818,425.859c3.609,8.734,7.755,15.698,12.438,20.89c-2.976,0.44-5.824,1.266-8.545,2.467
		c-1.203,0.57-3.575,1.837-7.121,3.799c-2.848-5.697-6.203-10.951-10.064-15.762c-3.227-3.985-8.039-9.05-14.431-15.191
		c8.735-4.43,16.647-7.024,23.735-7.784L329.818,425.859"/>
	<path fill="#D7A400" d="M568.697,479.313c1.708,1.71,2.343,4.307,1.898,7.784c-0.442,3.23-1.677,6.362-3.704,9.401
		c-5.063,7.595-10.222,8.986-15.476,4.177c-2.277-2.088-3.954-4.558-5.031-7.405l-2.658-7.69
		c-2.848-6.898-10.443-13.734-22.785-20.507l27.342-20.89l9.021,17.565C561.988,470.547,565.786,476.399,568.697,479.313"/>
	<path fill="#B08600" d="M568.697,479.313c1.708,1.71,2.343,4.307,1.898,7.784c-0.442,3.23-1.677,6.362-3.704,9.401
		c-5.063,7.595-10.222,8.986-15.476,4.177c-2.277-2.088-3.954-4.558-5.031-7.405l-2.658-7.69
		c-2.848-6.898-10.443-13.734-22.785-20.507l27.342-20.89l9.021,17.565C561.988,470.547,565.786,476.399,568.697,479.313"/>
	<path fill="#A4725D" d="M488.375,363.481l19.844,0.855c11.709,1.139,21.489,3.228,29.338,6.267
		c6.772,2.658,11.044,5.949,12.817,9.874c1.771,3.797,2.436,11.014,1.994,21.649l-0.57,21.552
		c-0.443,8.798-1.457,15.888-3.039,21.268c-4.43,14.748-14.397,20.443-29.907,17.09c-8.291-1.836-15.477-8.07-21.551-18.704
		c-5.128-8.987-8.988-20.128-11.584-33.42c-2.344-11.836-3.227-22.533-2.658-32.091C483.628,368.324,485.4,363.544,488.375,363.481"
		/>
	<path fill="#815847" d="M506.13,363.861c-1.836,5.57,2.597,14.59,13.293,27.059c10.379,12.091,21.234,21.332,32.564,27.726
		c-0.508,15.442-2.501,26.457-5.981,33.04c-5.126,9.685-14.179,13.136-27.154,10.349c-8.291-1.836-15.477-8.07-21.551-18.704
		c-5.128-8.987-8.988-20.128-11.584-33.42c-2.344-11.836-3.227-22.533-2.658-32.091c0.569-9.494,2.343-14.274,5.316-14.337
		C495.654,363.355,501.572,363.481,506.13,363.861"/>
	<path fill="#D7A400" d="M675.699,403.263c3.166,1.455,5.888,3.704,8.165,6.743c3.039,4.113,4.271,8.703,3.704,13.766
		c-0.696,5.443-3.104,9.084-7.218,10.918c-3.67,1.646-8.229,1.71-13.673,0.189c-3.227,2.85-5.664,6.299-7.311,10.35
		c-1.582,3.926-1.932,6.964-1.043,9.115c0.694,1.773,4.272,2.278,10.729,1.52l13.292-2.184c2.278-0.316,4.905,0.283,7.881,1.802
		c1.646,0.889,3.987,2.471,7.024,4.749c2.47,1.835,4.146,5.948,5.033,12.343c1.012,7.217,0.158,13.988-2.563,20.316
		c-0.507,1.142-1.994,2.027-4.463,2.659l-8.26,0.38c-7.66-1.076-12.218-4.936-13.673-11.582c-3.228-0.381-5.759,0.822-7.596,3.607
		l-5.316,7.404c-3.925,3.102-9.558,5.476-16.899,7.121c-9.305,2.023-15.951,0.729-19.938-3.893
		c-6.269-1.584-16.33,0.126-30.192,5.126c-16.836,6.078-26.899,9.305-30.19,9.685c-3.926,0.508-7.405-0.633-10.444-3.418
		c-2.849-2.595-4.652-5.98-5.412-10.157c-0.822-4.307-0.253-8.324,1.71-12.061c2.215-4.304,5.885-7.467,11.013-9.494l20.509-8.165
		c9.051-3.798,15.412-7.023,19.083-9.684l0.476-0.476c-0.189-4.873-1.17-8.134-2.944-9.779c-2.277-2.15-4.304-4.493-6.073-7.025
		c-1.836-2.722-2.913-5.001-3.23-6.835c-1.138-6.204-0.188-11.046,2.85-14.527c2.09-2.341,5.411-4.208,9.971-5.601
		c3.796-1.141,7.784-0.917,11.963,0.664c4.432,1.646,6.581,4.178,6.455,7.595c-0.253,5-0.158,8.323,0.285,9.971
		c0.76,3.103,2.754,4.873,5.981,5.316c7.531-4.874,13.259-10.189,17.185-15.951c2.278-3.292,4.651-7.69,7.121-13.197
		c1.898-3.416,6.203-5.855,12.913-7.312C668.673,401.997,673.041,401.997,675.699,403.263"/>
	<path fill="#B08600" d="M599.935,437.158c3.163,3.86,5.031,7.248,5.603,10.158c0.885,4.685-0.032,8.767-2.754,12.249
		c-2.532,3.163-4.399,3.987-5.604,2.468l2.47-1.613l0.476-0.476c-0.189-4.874-1.17-8.134-2.944-9.779
		c-2.277-2.15-4.304-4.493-6.073-7.025c-1.837-2.722-2.913-5.001-3.23-6.835c-1.138-6.204-0.189-11.046,2.85-14.527
		c2.09-2.341,5.411-4.208,9.971-5.601l-1.046,5.695c-0.948,3.987-1.297,5.95-1.043,5.887
		C597.339,431.303,597.781,434.437,599.935,437.158"/>
	<path fill="#B08600" d="M657.185,430.134c1.646,2.086,4.464,4.018,8.451,5.79c-2.658,2.724-4.716,5.792-6.171,9.21
		c-1.456,3.354-1.931,6.14-1.426,8.354c-4.619-0.442-7.595-1.994-8.925-4.652c-1.013-3.29-0.948-6.867,0.19-10.728
		C650.636,433.485,653.261,430.828,657.185,430.134"/>
	<path fill="#B08600" d="M671.901,484.25c-2.595,0.063-4.747,1.455-6.455,4.177l-5.033,6.933c-3.925,3.102-9.557,5.476-16.899,7.121
		c-9.305,2.023-15.95,0.729-19.938-3.893c-6.269-1.584-16.33,0.126-30.192,5.126c-16.836,6.078-26.899,9.305-30.19,9.685
		c-3.735,0.444-7.06-0.568-9.971-3.039c-2.722-2.276-4.589-5.347-5.603-9.208c-2.404-9.305,0.635-16.395,9.115-21.268l0.665,5.981
		c0.38,3.227,2.183,5.568,5.413,7.023c2.403,1.141,8.893-0.538,19.463-5.03c10.949-4.558,18.987-6.142,24.115-4.749
		c10.381,7.026,19.272,9.779,26.679,8.262c4.177-0.888,11.141-4.842,20.889-11.866c2.785-2.027,7.848-4.116,15.19-6.269
		c7.532-2.217,10.822-2.372,9.874-0.476C675.415,477.638,673.041,481.465,671.901,484.25"/>
	<path fill="#EEEEEF" d="M608.669,426.24c-2.151,1.393-4.558,2.594-7.216,3.606c-5.38,2.091-9.462,2.279-12.249,0.57
		c-3.354-2.152-1.043-7.313,6.932-15.477c7.977-8.165,13.04-11.646,15.192-10.442c1.138,0.567,1.171,3.449,0.095,8.639
		L608.669,426.24"/>
	<path fill="#C8C9CA" d="M589.204,430.418c-2.213-1.456-1.646-4.559,1.712-9.305c3.101-4.369,7.151-8.356,12.152-11.963
		c-3.104,4.305-5.254,8.229-6.457,11.772l-2.47,10.634C592.117,431.558,590.471,431.177,589.204,430.418"/>
	<path fill="#EEEEEF" d="M667.344,422.727c1.772-1.519,5.223-1.803,10.351-0.854c5.38,1.077,8.321,2.975,8.829,5.696
		c0.507,2.785-1.234,6.646-5.223,11.583c-3.988,5.064-6.898,6.933-8.734,5.604l-3.322-13.292L667.344,422.727"/>
	<path fill="#C8C9CA" d="M673.229,421.493c1.329,3.606,1.772,7.563,1.329,11.866c-0.188,2.153-0.981,6.107-2.374,11.868
		c-0.127,0-0.283-0.536-0.474-1.612c-0.191-1.015-0.381-1.553-0.57-1.615l-2.088-12.057l-1.71-7.218
		C668.483,421.776,670.445,421.367,673.229,421.493"/>
	<path fill="#EEEEEF" d="M691.84,489.663c4.621,1.33,6.425,4.018,5.411,8.067c-1.329,5.507-6.17,10.352-14.526,14.527l-1.329-0.284
		c-0.379-0.381-0.505-0.824-0.379-1.329c1.075-4.494,1.394-9.053,0.948-13.671l-1.043-5.509
		C683.77,489.062,687.408,488.461,691.84,489.663"/>
	<path fill="#C8C9CA" d="M680.922,491.466c1.52-1.266,3.513-1.993,5.981-2.183c-1.584,7.721-3.323,13.545-5.224,17.47
		c0.57-3.671,0.603-7.313,0.097-10.918L680.922,491.466"/>
	<path fill="#D7A400" d="M567.654,576.915c-1.646,1.711-6.045,3.355-13.198,4.938c-8.102,1.771-14.241,1.646-18.418-0.379
		c-4.875-2.405-12.154-5.222-21.838-8.45c-10.127-3.418-17.534-5.475-22.217-6.171c-6.456-0.888-10.73-2.977-12.816-6.268
		l20.792-52.408c3.925,0,7.723,0.633,11.393,1.898c6.771,2.342,13.989,6.805,21.647,13.388l23.355,20.887
		c7.47,6.457,12.881,10.254,16.235,11.395c3.418,1.203,3.894,4.777,1.424,10.729C572.052,571.219,569.932,574.701,567.654,576.915"
		/>
	<path fill="#B08600" d="M552.936,582.139l-16.896-0.665c-4.875-2.405-12.154-5.222-21.838-8.45
		c-10.127-3.418-17.534-5.475-22.217-6.171c-6.456-0.888-10.73-2.977-12.816-6.268l11.677-29.434
		c1.141,10.318,9.464,18.99,24.97,26.016c4.305,1.963,10.949,4.684,19.938,8.167c7.786,3.227,13.642,6.266,17.564,9.112
		c2.85,2.216,7.343,3.261,13.482,3.133C563.633,579.417,559.014,580.936,552.936,582.139"/>
	<path fill="#A4725D" d="M523.503,398.705c0.888,3.927,3.134,12.597,6.743,26.015c2.658,12.281,2.688,20.479,0.095,24.591
		l-16.046,16.807c-10.255,10.443-16.74,18.104-19.463,22.976c-3.354,6.015-16.646,9.338-39.878,9.97
		c-22.405,0.636-38.641-1.203-48.706-5.507c-5.759-2.469-11.52-6.993-17.279-13.576c-5.634-6.519-12.722-11.52-21.268-15.003
		c-5.38-2.276-11.299-5.885-17.755-10.822c-6.518-5.063-11.33-9.811-14.431-14.241c-4.81-6.961-9.147-21.679-13.008-44.148
		c-1.012-6.33,5.95-15.477,20.889-27.439c12.468-10.064,25.54-18.578,39.211-25.541c12.215-6.266,28.229-8.102,48.042-5.506
		c22.026,2.912,40.794,10.823,56.302,23.736c13.862,11.457,24.115,21.172,30.762,29.148
		C521.005,394.148,522.936,396.996,523.503,398.705"/>
	<path fill="#815847" d="M420.301,336.327c16.771,0.759,32.472,4.779,47.093,12.058c-17.658,9.305-32.883,23.482-45.669,42.535
		c-5.508,7.342-6.581,18.167-3.228,32.471c3.101,13.355,7.214,21.047,12.342,23.072l18.039-0.475l21.838-3.8
		c12.469-0.819,22.218-0.791,29.243,0.098c12.531,1.582,18.799,5.821,18.799,12.723c0,2.341-0.443,4.366-1.329,6.076l-3.134,5.98
		c-9.875,9.241-16.362,16.582-19.463,22.025c-3.354,5.952-16.646,9.274-39.878,9.97c-22.405,0.635-38.641-1.203-48.706-5.507
		c-5.759-2.469-11.52-6.993-17.279-13.576c-5.634-6.519-12.722-11.52-21.268-15.003c-5.38-2.276-11.299-5.885-17.755-10.823
		c-6.518-5.063-11.33-9.81-14.431-14.24c-4.81-6.961-9.147-21.679-13.008-44.148c-1.012-6.33,5.95-15.477,20.889-27.439
		c12.468-10.064,25.54-18.578,39.211-25.541C392.228,337.847,404.792,335.694,420.301,336.327"/>
	<path fill="#A4725D" d="M279.973,374.115c-5.253-14.432-8.228-27.724-8.924-39.876c-0.381-7.026,4.019-14.052,13.196-21.078
		c6.268-4.81,13.577-8.957,21.933-12.438c4.431-1.899,12.691-0.633,24.78,3.797c6.394,2.279,14.178,5.317,23.356,9.114
		l28.673,44.814c2.025,12.216-1.203,23.862-9.685,34.94c-6.646,8.736-16.141,16.678-28.482,23.831
		c-3.354-1.645-8.324-3.197-14.908-4.652l-24.97-6.073C295.197,403.77,286.872,392.977,279.973,374.115"/>
	<path fill="#815847" d="M306.178,300.724l9.019-0.57c-6.139,2.342-12.089,7.089-17.848,14.242
		c-5.443,6.836-8.165,12.501-8.165,16.994c0.378,2.342,2.025,3.988,4.936,4.938l9.78,1.234c-1.266,2.912-0.223,4.716,3.132,5.412
		c4.242,0.823,6.678,2.088,7.311,3.797c1.393,3.545,2.532,8.387,3.418,14.527c1.077,7.152,1.171,12.532,0.286,16.14
		c-2.721,9.051-0.57,15.127,6.455,18.229c5.317,2.406,12.977,2.975,22.978,1.709c4.747-0.823,10.348-3.133,16.805-6.93
		c7.847-4.621,13.228-7.47,16.14-8.545c-2.913,6.583-7.5,13.07-13.768,19.463c-6.455,6.585-13.418,11.711-20.887,15.381
		c-3.229-1.646-8.354-3.133-15.381-4.461l-25.445-5.79c-9.746-2.725-18.071-13.516-24.97-32.378
		c-5.253-14.432-8.228-27.724-8.924-39.876c-0.381-7.026,4.019-14.052,13.196-21.078
		C290.513,308.351,297.822,304.205,306.178,300.724"/>
	<path fill="#D7A400" d="M285.385,273.379c2.151,1.457,3.893,3.861,5.222,7.216l3.702,9.779c2.469,4.938,9.938,15.096,22.408,30.477
		c1.645,2.025,1.645,4.525,0,7.5c-1.521,2.849-3.956,5.223-7.311,7.121c-3.609,2.026-7.122,2.786-10.54,2.279
		c-3.924-0.632-6.993-3.006-9.21-7.12c-2.785-5.254-6.108-10.317-9.969-15.191c-4.051-5.191-8.007-9.305-11.867-12.343
		c-7.216-5.57-11.362-8.925-12.438-10.064c-4.114-4.051-5.601-7.627-4.463-10.729L285.385,273.379"/>
	<path fill="#B08600" d="M267.821,303.097c-7.216-5.57-11.362-8.925-12.438-10.064c-4.114-4.051-5.601-7.627-4.463-10.729
		l30.761-7.975c0.381,3.481-0.759,6.994-3.417,10.539c-2.785,3.67-4.177,5.792-4.177,6.36c0.633,7.342,5.096,15.223,13.387,23.642
		c11.33,11.521,17.881,18.735,19.653,21.647c-3.355,1.393-6.487,1.709-9.399,0.949c-3.355-0.886-6.045-3.165-8.07-6.835
		c-2.785-5.254-6.108-10.317-9.969-15.191C275.637,310.249,271.681,306.135,267.821,303.097"/>
	<path fill="#D7A400" d="M299.248,188.975c-3.229,6.456-6.425,15.729-9.591,27.818c-3.354,12.786-4.747,21.838-4.177,27.154
		c1.014,9.684,1.424,15.856,1.235,18.515c-0.444,7.152-2.911,11.994-7.406,14.526c-8.924,5.063-14.495,7.849-16.71,8.354
		c-6.583,1.646-12.058-0.759-16.426-7.216c-4.43-6.519-6.93-16.362-7.5-29.527c-0.316-8.925,0.223-18.894,1.615-29.907l4.842-33.326
		l3.323-23.07l60.859,0.854c0.633,2.279-0.128,5.728-2.28,10.349L299.248,188.975"/>
	<path fill="#B08600" d="M295.924,162.96c-8.608,5.696-16.521,14.779-23.737,27.249c-6.329,11.077-11.456,23.577-15.381,37.503
		c-3.67,13.102-5.569,25.002-5.695,35.698c-0.191,11.077,1.55,18.483,5.222,22.217c-3.735-0.633-7.122-3.134-10.161-7.501
		c-4.43-6.519-6.93-16.362-7.5-29.527c-0.316-8.925,0.223-18.894,1.615-29.907l4.842-33.326l3.323-23.07L295.924,162.96"/>
	<path fill="#EEEEEF" d="M397.704,108.083c7.343,2.025,10.508,3.544,9.494,4.557c-1.519,1.52-9.749,4.779-24.686,9.779l0.57-17.659
		C386.564,105.203,391.437,106.31,397.704,108.083"/>
	<path fill="#C8C9CA" d="M382.891,110.361c4.558,2.786,10.476,4.621,17.755,5.507l-11.869,4.367l-6.266,2.183L382.891,110.361"/>
	<path fill="#D7A400" d="M385.835,115.298c0.189,5.95-1.582,10.033-5.317,12.248c-2.088,1.202-7.786,2.405-17.091,3.607
		c-10.064,1.266-16.33,2.375-18.799,3.323c-3.796,1.456-8.449,4.748-13.955,9.875c-4.938,4.558-8.895,8.957-11.868,13.197
		c-2.28,3.229-5.191,5.254-8.735,6.077l-11.963,1.709c-1.71,0.316-6.108,2.753-13.198,7.31c-5.443,3.545-10.792,4.494-16.045,2.849
		c-8.608-2.722-13.989-4.875-16.14-6.456c-4.43-3.229-8.292-9.305-11.583-18.229l99.027-44.624c2.341,1.013,5.349,0.981,9.019-0.095
		l9.78-4.083c3.544-1.709,7.912-2.563,13.101-2.563c5.571,0.063,9.052,1.266,10.445,3.608
		C384.538,106.405,385.647,110.488,385.835,115.298"/>
	<path fill="#B08600" d="M288.138,149.193c-3.166,4.937-5.096,9.431-5.792,13.482c-0.633,3.734-0.253,7.342,1.14,10.824
		c-4.81,2.849-9.684,3.513-14.622,1.994c-8.608-2.722-13.989-4.875-16.14-6.456c-4.43-3.229-8.292-9.305-11.583-18.229
		l88.012-39.686l-5.506,10.537c-2.151,3.734-4.431,6.678-6.835,8.83c-3.735,2.976-9.305,6.109-16.71,9.4
		C294.532,142.357,290.544,145.458,288.138,149.193"/>
	<path fill="#C6DCDB" d="M483.533,41.336c5.19,6.646,4.747,14.748-1.329,24.306c-7.343,11.52-21.489,20.539-42.438,27.059
		c-11.204,3.481-22.029,3.544-32.473,0.189l-11.299-3.512l-12.912,0.57c-13.862,3.797-43.991,16.267-90.387,37.407
		c-47.661,21.648-73.833,33.2-78.517,34.656c-4.812,1.519-8.514,1.456-11.109-0.19c-2.278-1.455-3.449-3.893-3.512-7.312
		c-0.063-3.228,0.822-6.551,2.658-9.969c1.962-3.544,4.461-6.234,7.5-8.07c5-2.974,12.659-5.854,22.976-8.639l30.287-8.166
		c13.356-4.177,35.478-12.184,66.368-24.021c33.103-12.723,50.16-20.064,51.174-22.026l9.875-19.559
		c4.936-8.039,11.298-14.052,19.084-18.04c12.848-6.456,26.614-9.272,41.3-8.45C465.969,28.393,476.888,32.982,483.533,41.336"/>
	<path fill="#A7BAB9" d="M480.306,68.396c-7.91,10.191-21.427,18.292-40.54,24.306c-11.204,3.481-22.029,3.544-32.473,0.189
		l-11.299-3.512l-12.912,0.57c-13.862,3.797-43.991,16.267-90.387,37.407c-47.661,21.647-73.833,33.199-78.517,34.655
		c-6.583,2.025-11.015,1.234-13.292-2.374c0.315-2.975,5.569-6.678,15.76-11.109c3.609-1.519,10.951-4.272,22.027-8.26
		c9.115-3.418,12.026-8.83,8.734-16.236l15.57-4.367l24.972-8.64c1.582,4.115,3.418,7.374,5.506,9.78l5.981-3.893
		c3.607-3.354,4.272-6.963,1.994-10.823l23.641-9.21c9.622-3.734,14.842-5.127,15.667-4.177c0.759,0.823,0.854,1.898,0.284,3.228
		l-1.14,3.798l24.496-10.539c13.734-5.443,23.039-7.848,27.914-7.215l17.851,3.513c7.848,1.013,16.232,0.159,25.158-2.564
		c12.531-3.797,22.913-8.45,31.142-13.956c10.255-6.963,16.615-15.001,19.085-24.116C488.501,52.192,486.763,60.041,480.306,68.396"
		/>
	<path fill="#D7A400" d="M339.217,109.127c-1.834,7.278-3.48,11.899-4.936,13.861c-2.343,3.102-6.489,5.095-12.438,5.982
		c-6.709,1.013-10.601-1.266-11.677-6.836c-1.077-5.253-1.077-9.589,0-13.007l1.899-3.513l-4.558-2.278l-17.186,6.835l-5.125-10.729
		c1.012-4.684,1.962-8.514,2.848-11.488c1.645-5.444,3.767-8.988,6.36-10.634c3.988-2.595,7.976-4.463,11.963-5.602
		c5.19-1.583,9.241-1.487,12.152,0.285c3.735,2.279,8.482,6.171,14.243,11.678c6.202,5.95,9.24,9.905,9.113,11.868
		C341.687,98.271,340.801,102.797,339.217,109.127"/>
	<path fill="#D7A400" d="M287.379,105.044c3.925,8.228,5.824,13.671,5.696,16.33c-0.189,2.659-0.98,6.552-2.373,11.678
		c-1.582,5.824-3.134,9.875-4.652,12.153c-1.647,2.469-4.02,4.115-7.122,4.938l-8.354-0.475c-3.735-1.709-5.887-2.975-6.457-3.798
		c-1.519-2.405-1.234-6.835,0.854-13.292c-1.075-2.216-2.562-4.051-4.461-5.507c-1.646-1.139-2.753-2.879-3.323-5.221l-18.229,4.462
		c1.201-7.532,2.341-13.767,3.418-18.704c2.088-9.241,4.747-15.033,7.975-17.375c4.811-3.48,9.019-5.632,12.626-6.456
		c4.875-1.139,9.084-0.126,12.628,3.038C279.214,90.043,283.139,96.12,287.379,105.044"/>
	<path fill="#B08600" d="M285.196,99.443c1.012-4.684,1.962-8.514,2.848-11.488c1.645-5.444,3.767-8.988,6.36-10.634
		c0.57-0.379,0.982,0.348,1.234,2.183c0.318,2.659,1.393,4.716,3.229,6.172l12.342,8.45c5.761,4.051,8.64,7.057,8.64,9.02
		c0,1.583-1.519,6.108-4.556,13.577c-1.836,7.025-0.16,11.171,5.031,12.438c-5.761,0.443-9.147-1.899-10.159-7.026
		c-1.077-5.253-1.077-9.589,0-13.007l1.899-3.513l-4.558-2.278l-17.185,6.834L285.196,99.443"/>
	<path fill="#B08600" d="M250.351,90.232c0.316-0.189,1.012,1.962,2.089,6.457c1.962,5.886,5,11.266,9.113,16.14
		c4.747,5.76,7.786,10.127,9.115,13.103c1.012,2.342,1.298,4.937,0.854,7.785c-0.252,1.773-0.759,3.798-1.519,6.076
		c-0.507,1.836-0.349,3.545,0.476,5.127c0.633,1.519,1.708,2.753,3.227,3.703c1.014,0.569,2.469,1.139,4.368,1.709
		c-2.848,0.506-5.349,0.285-7.5-0.665c-3.735-1.709-5.887-2.975-6.457-3.798c-1.519-2.405-1.234-6.835,0.854-13.292l-4.272-4.178
		c-1.645-1.646-2.816-3.829-3.512-6.55l-18.229,4.462c1.201-7.532,2.341-13.767,3.418-18.704
		C244.464,98.367,247.123,92.575,250.351,90.232"/>
	<path fill="#D7A400" d="M403.589,497.73c0-1.96,0.572-4.08,1.71-6.359l1.613-2.944l20.604-8.543
		c15.129-5.824,26.143-9.147,33.042-9.97c13.418,3.86,21.678,6.614,24.779,8.262c7.47,4.051,11.771,10.125,12.911,18.227
		c1.456,10.192,2.025,21.017,1.71,32.473c-0.442,12.533-1.899,20.033-4.368,22.503c-3.354,3.353-9.431,7.437-18.229,12.247
		c-10.571,5.761-20.604,9.841-30.098,12.247c-10.382,2.596-19.938,2.755-28.674,0.476c-8.42-2.153-14.969-6.268-19.655-12.342
		L403.589,497.73"/>
	<path fill="#B08600" d="M398.937,564.005l4.652-66.273c0-1.96,0.572-4.08,1.71-6.359l1.613-2.944l8.831-3.796
		c0.381,17.85,1.328,30.919,2.849,39.211c2.596,14.369,7.5,24.75,14.717,31.142c2.784,2.469,13.133,2.978,31.048,1.521
		c7.15-0.634,11.897-0.663,14.239-0.095c3.355,0.759,3.734,2.722,1.14,5.887c-11.582,6.581-22.405,11.106-32.47,13.576
		c-10.382,2.596-19.938,2.755-28.674,0.476C410.172,574.192,403.623,570.079,398.937,564.005"/>
	<path fill="#D7A400" d="M418.782,576.536c5.315,0,12.309-1.806,20.982-5.412l23.354-9.778c1.393,4.178-1.043,10.443-7.311,18.799
		c-6.455,8.606-12.405,12.912-17.85,12.912c-4.684,0-9.272-2.753-13.768-8.26L418.782,576.536"/>
	<path fill="#B08600" d="M461.79,569.985c-3.227-2.217-7.814-0.316-13.766,5.695c-4.495,4.43-8.83,10.096-13.009,16.994
		c-4.052-1.076-7.977-4.082-11.771-9.019l-4.462-7.121c5.315,0,12.309-1.806,20.982-5.412l23.354-9.778
		C463.817,563.181,463.374,566.062,461.79,569.985"/>
	<path fill="#ED8599" d="M445.365,498.018l7.12,2.471l-5.41,8.543c-3.608,5.949-5.287,9.591-5.032,10.92l2.851,6.74
		c1.519,3.417,2.12,6.107,1.803,8.069c-0.507,2.849-1.487,6.234-2.943,10.159c-1.583,4.366-2.912,6.995-3.986,7.881l-5.697-0.284
		l-2.375-0.761c4.18-7.343,6.426-13.007,6.743-16.995c0.063-0.887-0.824-3.007-2.658-6.359c-1.963-3.42-2.978-5.763-3.039-7.026
		c0-2.025,1.55-6.013,4.652-11.963C440.557,503.271,443.214,499.474,445.365,498.018"/>
	<path fill="#ED8599" d="M466.918,495.738l6.646,2.373l-4.842,7.027c-3.165,4.999-4.652,8.103-4.464,9.305l2.659,6.267
		c1.393,3.228,1.932,5.76,1.614,7.595c-0.443,2.595-1.329,5.792-2.658,9.59c-1.455,4.053-2.69,6.487-3.703,7.313l-5.316-0.191
		l-2.185-0.76c3.86-6.898,5.95-12.215,6.267-15.95c0.127-0.886-0.695-2.88-2.47-5.98c-1.834-3.228-2.751-5.412-2.751-6.551
		c-0.063-1.838,1.267-5.254,3.987-10.256C462.488,500.391,464.894,497.13,466.918,495.738"/>
	<path fill="#ED8599" d="M478.405,539.603l-1.993-0.664c3.482-6.521,5.351-11.52,5.604-15.001c0.126-0.823-0.603-2.69-2.185-5.603
		c-1.646-3.037-2.469-5.094-2.469-6.171c-0.063-1.771,1.014-4.747,3.227-8.924c2.344-4.307,4.433-7.091,6.269-8.356l5.885,2.184
		l-3.985,5.89c-2.658,4.114-3.894,6.739-3.703,7.879l2.373,5.98c1.266,3.037,1.74,5.412,1.425,7.121l-2.372,9.021
		c-1.329,3.798-2.439,6.106-3.323,6.932L478.405,539.603"/>
	<path fill="#D7A400" d="M322.318,536.943c1.71-6.329,4.337-10.443,7.881-12.342c2.215-1.14,9.305-3.86,21.268-8.165
		c11.646-4.179,19.495-7.437,23.545-9.778c7.214-5.128,12.531-8.516,15.951-10.159c5.885-2.785,10.887-2.185,15,1.805
		c5.127,4.999,8.322,9.746,9.589,14.239c1.455,5.128,1.108,11.934-1.044,20.414l-4.842,19.179c-1.519,4.304-4.21,7.755-8.07,10.349
		l-13.103,7.786c-6.076,3.354-11.267,6.488-15.57,9.399l-12.344,9.969c-5.95,3.925-10.411,3.988-13.387,0.189l-26.963-37.313
		C320.419,546.502,321.115,541.311,322.318,536.943"/>
	<path fill="#B08600" d="M320.23,552.517c0.315-9.179,1.708-16.3,4.177-21.364c2.848,12.597,9.336,19.719,19.463,21.364
		c8.039,1.139,19.4,0,34.085-3.42c15.191-3.544,26.427-4.937,33.706-4.177c-1.14,4.873-2.279,8.388-3.42,10.537
		c-1.392,2.659-3.606,5.002-6.646,7.026l-13.103,7.786c-6.076,3.354-11.267,6.488-15.57,9.399l-12.344,9.969
		c-5.95,3.925-10.411,3.988-13.387,0.189L320.23,552.517"/>
	<path fill="#EEEEEF" d="M386.12,743.163c2.469,3.479,4.146,8.988,5.033,16.519c0.822,7.66,0.158,12.123-1.994,13.39
		c-1.836,1.01-5.824-0.729-11.963-5.225l-8.64-7.024L386.12,743.163"/>
	<path fill="#C8C9CA" d="M379.949,749.427c0.822,8.231,3.861,14.972,9.115,20.226l-1.045,2.09l-1.14,2.275
		c-4.051-1.961-8.323-4.744-12.817-8.354l-5.506-4.842L379.949,749.427"/>
	<path fill="#D7A400" d="M310.83,554.89c2.911-2.28,7.658-3.197,14.241-2.754c6.013,0.381,11.805,1.71,17.375,3.986
		c4.305,1.773,6.362,5.603,6.171,11.488c-0.063,3.292-0.728,8.165-1.994,14.62c-0.126,1.646,0.824,5.855,2.85,12.628
		c1.897,6.395,2.373,13.326,1.424,20.794c-0.759,6.078-4.051,15.57-9.875,28.48c-5.38,11.711-7.944,20.447-7.689,26.206
		c0.252,6.836,2.341,15.16,6.266,24.97c2.025,4.875,3.988,9.082,5.887,12.628l11.772,4.938c8.798,3.861,15.604,7.277,20.414,10.252
		c5.317,3.356,8.449,7.28,9.399,11.773c0.822,3.546,0.315,7.944-1.521,13.195c-1.582,4.496-6.14,8.324-13.671,11.491
		c-6.898,2.848-12.722,3.987-17.469,3.416c-5.317-0.694-12.565-4.081-21.741-10.159c-10.825-7.214-16.489-10.92-16.996-11.107
		c-3.798-1.582-10.348-2.311-19.653-2.185l-24.686,0.571c-7.658,0-19.939,1.582-36.838,4.746
		c-16.395,3.037-29.622,6.141-39.686,9.305c-9.812,3.101-17.375,2.343-22.692-2.28c-5.443-4.682-7.405-12.435-5.887-23.262
		c1.392-9.873,6.297-16.203,14.716-18.988c6.013-2.022,14.969-2.372,26.869-1.043c10.634,1.203,18.736,0.854,24.305-1.044
		c2.787-0.95,4.526-2.026,5.222-3.229l-21.836-6.075c-3.546-0.887-5.54-3.07-5.981-6.553c-0.38-3.102,0.379-9.208,2.278-18.324
		c1.647-7.912,6.171-13.544,13.577-16.897c5.571-2.531,12.186-3.579,19.844-3.134c5.064,0.253,11.583,3.29,19.558,9.115
		c3.988,2.975,7.469,5.886,10.445,8.732c-0.126-13.166-0.602-26.426-1.424-39.78c-0.507-8.229,2.562-16.615,9.208-25.158
		c7.849-8.482,12.882-14.465,15.097-17.945c2.215-3.482,4.589-9.875,7.122-19.18C307.381,560.901,309.248,556.155,310.83,554.89"/>
	<path fill="#B08600" d="M298.107,588.31c2.215-3.481,4.589-9.875,7.122-19.18c2.152-8.229,4.019-12.975,5.601-14.24
		c1.266-0.951,2.879-1.679,4.842-2.184c-1.645,5.442-3.355,13.766-5.128,24.97c-2.088,10.063-5.601,18.292-10.537,24.685
		c-8.672,9.622-12.596,23.262-11.774,40.921c0.444,8.926,3.007,23.548,7.691,43.865c-3.102-0.824-6.772-3.164-11.015-7.025
		l-9.683-9.494c0-9.557-0.476-22.631-1.424-39.213c-0.507-8.228,2.562-16.615,9.208-25.158
		C290.86,597.771,295.893,591.79,298.107,588.31"/>
	<path fill="#B08600" d="M172.117,751.896c-5.443-4.683-7.405-12.436-5.887-23.263c0.443-2.592,1.108-4.998,1.994-7.214
		c1.519-4.051,3.323-6.171,5.412-6.36c3.672-0.315,8.451,1.393,14.336,5.128c7.027,4.492,10.318,9.684,9.875,15.567
		c-0.252,2.911,4.273,4.147,13.579,3.706l33.799-3.517c37.345-4.24,63.2-3.066,77.569,3.517l25.729,11.105
		c12.344,4.938,20.667,7.692,24.97,8.262c-3.354,1.519-6.804,2.69-10.348,3.512l-8.735,0.665
		c-5.317-0.694-12.565-4.081-21.741-10.159c-10.825-7.214-16.489-10.92-16.996-11.107c-3.798-1.582-10.348-2.311-19.653-2.185
		l-24.686,0.571c-7.658,0-19.939,1.582-36.838,4.746c-16.395,3.037-29.622,6.141-39.686,9.305
		C184.998,757.275,177.434,756.519,172.117,751.896"/>
	<path fill="#B08600" d="M211.803,673.377c1.077-4.871,2.627-8.64,4.652-11.298s4.874-4.652,8.545-5.981
		c-1.392,7.659-1.868,14.621-1.424,20.89c0.442,7.15,2.057,11.202,4.842,12.151c4.366,1.456,9.652,4.114,15.856,7.977
		c8.165,4.938,14.115,9.937,17.848,15.001l-16.33,1.043c-9.241-0.505-16.678-1.864-22.311-4.081
		c4.81-0.378,8.575-1.266,11.297-2.658l2.563-2.09c-7.468-2.34-13.64-4.114-18.513-5.317c-3.925-1.01-6.457-3.322-7.597-6.929
		C209.904,687.97,210.095,681.731,211.803,673.377"/>
	<path fill="#EEEEEF" d="M224.906,659.896c3.923,2.722,4.43,7.373,1.519,13.956c-2.785,6.204-5.475,9.432-8.07,9.685
		c-5.064,0.383-11.015,1.9-17.85,4.56c-6.583,2.597-10.443,3.893-11.583,3.893c-0.76-13.293,4.146-23.039,14.716-29.244
		c3.924-2.275,8.07-3.668,12.437-4.177C220.063,658.125,223.007,658.566,224.906,659.896"/>
	<path fill="#EEEEEF" d="M165.09,752.468c-7.151,3.987-11.33,6.107-12.531,6.36c-0.444-12.216,2.659-21.836,9.305-28.865
		c5.696-6.011,11.044-8.038,16.044-6.074c4.558,1.771,7.248,5.443,8.072,11.014c0.823,5.189,0.095,8.165-2.185,8.926
		C178.984,745.346,172.751,748.228,165.09,752.468"/>
	<path fill="#C8C9CA" d="M204.968,675.182c6.52-2.722,13.894-3.734,22.122-3.036c-1.013,2.784-2.469,5.38-4.368,7.785
		c-1.834,2.276-3.292,3.479-4.366,3.605c-5.064,0.383-11.015,1.964-17.85,4.749c-6.646,2.658-10.506,3.987-11.583,3.987
		l-0.189-1.993l-0.097-1.806C192.878,682.396,198.321,677.967,204.968,675.182"/>
	<path fill="#C8C9CA" d="M165.09,752.468c-7.151,3.987-11.33,6.107-12.531,6.36c0.252-5.948,1.329-11.552,3.227-16.806
		c7.913-7.786,17.123-12.375,27.63-13.769c1.962,2.722,2.879,5.919,2.753,9.591c-0.063,3.479-0.854,5.474-2.375,5.981
		C178.984,745.346,172.751,748.228,165.09,752.468"/>
	<path fill="#D7A400" d="M499.198,294.172l14.146,23.547c9.115,16.204,12.852,25.445,11.203,27.723
		c-1.074,1.52-7.656,4.368-19.747,8.546c-11.521,3.924-17.657,7.279-18.42,10.063c-0.379,2.342-0.095,10.634,0.854,24.875
		c0.824,12.153,0.285,19.464-1.613,21.933c-2.596,3.481-5.317,6.36-8.165,8.642c-3.103,2.405-5.697,3.605-7.784,3.605
		c-2.152,0-6.142-2.088-11.964-6.266c-5.697-3.987-9.146-7.024-10.35-9.115l-5.508-21.646c-3.605-12.913-7.784-20.16-12.531-21.742
		c-5.002-1.709-18.294-3.734-39.877-6.076l-37.408-3.419c-11.583-0.569-8.766-19.747,8.451-57.535
		c-9.431-13.355-21.108-33.8-35.034-61.333c-14.559-28.799-20.033-43.2-16.426-43.2c3.229,0,20.002,8.039,50.32,24.116
		l58.298,31.617c10.063-2.532,20.981-2.468,32.756,0.19c5.885,1.329,10.761,2.911,14.622,4.747l32.373-25.161
		c17.786-13.292,26.331-18.229,25.636-14.811C522.334,217.141,514.391,244.042,499.198,294.172"/>
	<path fill="#B08600" d="M441.662,386.173c-3.797-12.913-8.068-20.191-12.817-21.837c-5.128-1.836-18.387-3.893-39.781-6.172
		l-37.029-3.323c-5.38-0.252-7.847-3.956-7.406-11.108c0.633-9.241,6.013-24.716,16.141-46.427
		c-7.595-10.824-17.438-27.661-29.527-50.51c-12.596-23.736-20.097-40.004-22.502-48.802c6.203,12.596,21.014,27.186,44.433,43.77
		l22.881,16.614c6.772,5.57,10.508,10.16,11.204,13.768c-0.823,4.684-4.463,16.646-10.918,35.888
		c-5.191,17.723-6.045,28.071-2.564,31.046c3.418,2.912,13.989,7.121,31.712,12.627c19.43,6.077,29.78,9.431,31.046,10.064
		c2.722,1.392,7.153,8.83,13.291,22.312c6.078,13.482,10.286,20.825,12.627,22.027c5.572,2.849,9.147,4.305,10.731,4.366
		c4.303,0.129,9.112-2.974,14.43-9.305l-0.854,5.223c-0.381,2.532-0.76,4.021-1.14,4.463c-2.596,3.481-5.317,6.36-8.165,8.642
		c-3.103,2.404-5.697,3.605-7.784,3.605c-2.152,0-6.142-2.088-11.964-6.266c-5.697-3.987-9.146-7.024-10.35-9.115L441.662,386.173"
		/>
	<path fill="#B08600" d="M490.181,279.741c-2.28-3.608-0.761-9.589,4.556-17.944c4.749-7.533,11.584-15.54,20.51-24.021
		l-15.383,54.782l-5.22-5.98L490.181,279.741"/>
	<path fill="#FFFFFF" d="M491.983,317.813c1.075,1.076,2.31,2.975,3.702,5.697c1.582,3.101,2.373,5.633,2.373,7.596l-11.963,8.924
		l-6.173,4.368c0.317-3.608,1.521-7.754,3.609-12.438C485.686,327.15,488.501,322.434,491.983,317.813"/>
	<path fill="#DBDCDC" d="M491.983,317.813l2.942,4.083c-3.354,2.088-8.134,8.418-14.338,18.989
		C482.109,332.276,485.905,324.586,491.983,317.813"/>
	<path fill="#FFFFFF" d="M405.774,308.034c7.278,3.102,15.284,8.671,24.021,16.709c8.291,7.786,13.734,14.496,16.33,20.129
		c-18.925-5.887-33.387-10.887-43.39-15.001c-1.012-2.849-0.822-7.342,0.569-13.481L405.774,308.034"/>
	<path fill="#DBDCDC" d="M405.109,309.743l0.76-1.709c7.849,3.607,15.951,9.272,24.305,16.995
		c8.103,7.469,13.419,13.988,15.951,19.559l-4.747-1.33c-10.634-14.431-23.26-23.989-37.882-28.673L405.109,309.743"/>
	<path fill="#ED8599" d="M455.145,276.608l6.554,9.874l9.968,3.893l-4.462,4.938l3.323,12.152l-12.152-6.076l-11.488,8.26
		l0.475-11.013c-1.836-2.216-4.938-4.78-9.305-7.691l11.963-4.272L455.145,276.608"/>
	<path fill="#D7A400" d="M442.423,361.962l3.037,10.159c-26.33,16.71-48.483,44.529-66.46,83.457
		c-6.331,13.798-11.456,27.502-15.381,41.109c-3.292,11.456-4.844,19.24-4.652,23.356c-3.354-8.987-4.684-20.286-3.988-33.896
		l1.994-17.754l-3.893,4.271c-3.166,3.671-5.982,7.596-8.451,11.771c2.85-29.748,17.501-57.534,43.96-83.359
		C404.413,385.698,422.358,372.66,442.423,361.962"/>
	<path fill="#B08600" d="M353.364,461.369c0.128,1.14,2.312-0.032,6.552-3.514c4.051-3.229,5.855-4.209,5.412-2.941
		c-4.747,14.178-7.279,26.202-7.595,36.079c-0.126,5.946,0.094,15.567,0.665,28.859c-3.544-8.479-4.842-19.621-3.893-33.42
		l2.469-18.038l-3.987,3.988c-3.103,3.544-5.761,7.438-7.976,11.677c1.14-11.646,4.019-22.786,8.64-33.42
		c4.051-9.305,9.683-18.735,16.899-28.293c-3.165,5.443-6.835,12.88-11.013,22.312C355.358,454.216,353.301,459.787,353.364,461.369
		"/>
	<path fill="#D7A400" d="M486.381,365l1.427-2.658c20.254,7.848,37.786,19.906,52.597,36.173
		c17.028,18.672,24.78,37.566,23.263,56.683c-1.14-3.481-3.039-8.103-5.697-13.862l-2.753-5.982
		c0.887,2.659,1.298,7.06,1.234,13.198c-0.191,9.494-2.089,17.66-5.697,24.496c-2.658-18.988-7.531-35.826-14.622-50.511
		c-11.392-23.864-27.849-40.922-49.368-51.175L486.381,365"/>
	<path fill="#B08600" d="M561.576,433.74c2.026,7.152,2.722,14.305,2.09,21.458c-1.14-3.481-3.039-8.103-5.697-13.862l-3.606-7.69
		l2.089,10.918c0.569,9.18-1.298,18.517-5.602,28.01c-2.596-13.481-4.844-23.356-6.742-29.622
		c-4.492-14.812-10.664-27.661-18.514-38.549c4.114,4.367,9.463,11.995,16.045,22.885c6.077,10.125,9.305,15.314,9.685,15.567
		c0.886,0.571,1.107-1.582,0.665-6.455l-1.139-12.151l5.221,4.936L561.576,433.74"/>
	<path fill="#E4EEEE" d="M404.352,54.914c-0.57-0.887-0.729-1.931-0.477-3.133c0.315-1.521,1.141-3.102,2.469-4.748
		c1.33-1.646,2.976-3.07,4.938-4.272c2.913-1.836,5.793-2.912,8.641-3.228c2.784-0.253,4.685,0.379,5.697,1.899
		c0.568,0.823,0.694,1.867,0.379,3.133c-0.253,1.519-1.044,3.102-2.373,4.747l-5.032,4.273c-2.849,1.835-5.697,2.912-8.546,3.228
		C407.263,57.065,405.364,56.434,404.352,54.914"/>
	<path fill="#0D131A" d="M481.539,669.2c3.102-3.102,7.786-6.521,14.052-10.255l0.284,4.749l-8.829,5.413
		c-2.849,1.896-4.209,3.29-4.083,4.177c0.128,0.632,2.723,0.918,7.784,0.854l9.021-0.097l0.476,3.609h-15.951
		C477.202,677.272,476.285,674.454,481.539,669.2"/>
	<path fill="#0D131A" d="M538.506,583.087l3.987,0.76c-0.507,0.696-1.108,1.994-1.804,3.894c-0.635,1.963-1.076,3.732-1.328,5.316
		c-0.635,5.508-1.68,9.464-3.135,11.868c-1.455,2.468-2.026,5-1.709,7.597c0.254,2.593,1.393,5.601,3.418,9.021
		c2.405,3.921,3.008,8.291,1.805,13.099c-1.456,6.078-5.729,11.744-12.817,16.998l-7.121,4.367
		c-1.456,0.505-1.298-0.412,0.476-2.756c-10.508-0.188-16.268,0.253-17.28,1.33c-2.784,3.104-4.589,5.666-5.411,7.688
		c-0.886,2.405-0.633,4.652,0.759,6.742l1.615,2.659c1.835,3.228,3.767,5.283,5.791,6.171c3.165,1.393,8.321,1.455,15.476,0.188
		c9.367-1.646,17.725-2.47,25.064-2.47l21.364,2.092c8.924,1.455,16.014,3.069,21.268,4.842c7.151,2.343,12.024,5.254,14.62,8.736
		l2.277,3.13c2.658,3.925,4.875,6.52,6.646,7.786c2.913,2.152,6.583,3.134,11.016,2.943c3.354-0.188,6.425-0.979,9.21-2.372
		l2.848,1.611c-12.216,8.482-23.135,5.854-32.756-7.879l-2.184-3.134c-2.217-2.976-6.807-5.569-13.769-7.786
		c-4.873-1.52-11.456-2.976-19.749-4.367l-20.885-1.993c-7.027-0.063-15.16,0.729-24.402,2.372
		c-8.354,1.456-14.462,1.426-18.323-0.093c-2.722-1.015-5.063-3.23-7.025-6.646c-1.52-2.09-2.754-4.651-3.704-7.688
		c-0.631-2.09-0.315-4.622,0.95-7.598c1.141-2.531,2.722-4.903,4.747-7.121c1.963-2.152,7.217-3.162,15.762-3.036l6.836-0.098
		c2.341-0.188,4.146-0.631,5.41-1.329c7.025-6.073,10.541-11.866,10.541-17.373c0-2.469-0.696-4.875-2.09-7.218l-3.799-5.695
		c-1.14-1.835-1.707-3.513-1.707-5.031c0-3.48,0.602-6.268,1.803-8.354c2.722-4.623,4.271-8.514,4.652-11.68
		C536.543,587.645,537.432,584.479,538.506,583.087"/>
	<path fill="#0D131A" d="M643.893,687.146c3.229,2.783,6.33,3.672,9.306,2.657c1.455-0.505,2.658-1.329,3.607-2.469l5.128,1.236
		c-1.329,1.519-2.913,2.751-4.749,3.7l-11.963-0.379l-0.947-2.943L643.893,687.146"/>
	<path fill="#0D131A" d="M584.743,556.408c1.71,0.378,4.97,2.119,9.777,5.222c5.002,3.166,8.229,5.635,9.686,7.406
		c0.696,1.013,1.046,2.118,1.046,3.321c0,3.164-1.805,8.009-5.414,14.525l-2.087,3.704c-0.506,1.074-0.761,2.563-0.761,4.463
		l0.188,3.987l0.477,2.942l0.475,2.943c0,3.037-0.379,5.41-1.14,7.12c-1.141,2.467-4.842,7.438-11.107,14.905
		c-4.305,5.002-7.376,9.591-9.21,13.768c-0.95,2.087-1.455,3.702-1.519,4.842l4.937,0.568l3.323,0.286l12.058-0.568l11.3-0.57
		l10.729,1.14c2.722,0.761,7.943,2.722,15.667,5.889c7.529,3.037,13.229,5.536,17.089,7.5c6.328,3.163,11.077,6.991,14.241,11.488
		l-2.754-0.383l-2.658-0.189c-2.151-2.405-6.107-5.063-11.868-7.976c-4.114-1.96-9.494-4.366-16.141-7.214
		c-7.214-3.102-12.059-5.001-14.525-5.696c-2.658-0.697-6.015-1.047-10.064-1.047l-10.635,0.665l-12.626,0.476l-8.546-0.665
		l-0.095,1.329l-0.854,1.994c-0.82,0.635-1.485-0.379-1.994-3.037c-0.567-2.975-0.094-6.142,1.426-9.494
		c1.203-2.47,4.43-7.5,9.684-15.097c5.507-7.85,8.829-12.976,9.971-15.38c1.014-2.217,1.266-5.634,0.759-10.255
		c-0.38-4.812-0.063-8.261,0.949-10.349l2.09-3.894c4.113-7.405,5.695-11.709,4.747-12.912c-1.141-1.455-4.146-3.642-9.021-6.551
		c-4.619-2.723-7.658-4.272-9.113-4.652c-1.836-0.507-4.651,0.919-8.45,4.271l-0.284-4.937
		C578.288,556.945,581.704,555.647,584.743,556.408"/>
	<path fill="#0D131A" d="M579.617,656.286c-0.698-0.631-0.889-1.169-0.571-1.611c0.317-0.444,0.887-0.444,1.709,0l10.254,2.659
		l13.769,0.946c2.405-0.505,6.268,1.014,11.582,4.56l11.015,8.068l10.159,7.692c2.848,1.834,4.811,3.388,5.885,4.652
		c1.396,1.582,1.994,3.416,1.805,5.506l-3.702,0.094c0.128-1.519-0.537-3.037-1.992-4.557c-1.142-1.202-3.037-2.628-5.696-4.272
		l-8.736-6.36c-11.076-8.673-18.229-12.69-21.457-12.061l-13.386-0.757C585.061,659.58,581.515,658.062,579.617,656.286"/>
	<path fill="#0D131A" d="M630.411,690.564c-2.533,2.34-3.607,4.968-3.228,7.879l12.909,7.312c6.964,4.113,10.697,6.074,11.206,5.885
		c1.075-0.631,0.063-4.365-3.039-11.201c-3.229-7.089-6.299-11.14-9.21-12.152S633.259,688.032,630.411,690.564 M627.941,689.042
		c1.772-1.645,3.767-2.848,5.98-3.604l6.171-0.189c3.294,1.136,6.269,4.177,8.927,9.111c2.47,4.56,4.113,9.688,4.938,15.383
		c0.316,2.911,0.221,4.652-0.285,5.221c-0.76,0.761-2.406,0.223-4.938-1.611l-10.635-6.363c-4.113-2.149-7.753-3.828-10.916-5.031
		l-1.141,0.097c-0.887-0.126-1.519-0.856-1.898-2.187c-0.443-1.646-0.381-3.416,0.188-5.313
		C625.03,692.399,626.233,690.564,627.941,689.042"/>
	<path fill="#0D131A" d="M671.807,682.778c-4.304-6.646-7.753-10.223-10.349-10.73l-4.273,0.572
		c-1.455,0.631-2.753,1.611-3.891,2.939c-1.646,2.027-2.47,4.114-2.47,6.269l0.379,1.994c1.14,0.252,5.792,2.09,13.957,5.506
		c7.405,3.101,11.33,4.493,11.773,4.178C677.63,692.812,675.921,689.235,671.807,682.778 M650.35,674.328
		c1.581-1.897,3.417-3.356,5.507-4.366c2.217-1.077,4.272-1.426,6.171-1.048c3.229,0.636,6.361,2.979,9.4,7.029
		c2.658,3.542,4.968,7.976,6.932,13.292c1.771,4.178,2.15,6.579,1.138,7.215c-0.759,0.44-2.751-0.063-5.981-1.52
		c-7.657-3.546-15.253-6.142-22.786-7.786c-1.013,0.632-1.803,0.159-2.372-1.426c-0.506-1.519-0.665-3.261-0.477-5.221
		C648.133,678.029,648.957,675.973,650.35,674.328"/>
	<path fill="#0D131A" d="M292.031,396.427l2.183,4.177c-8.735-3.86-18.83-6.17-30.287-6.932
		c-12.407-0.822-24.591,0.317-36.554,3.418c-29.37,7.598-51.206,24.781-65.51,51.556c-12.154,22.66-17.027,45.858-14.622,69.595
		c2.025,19.18,8.259,36.333,18.704,51.46c3.67,5.38,5.506,8.641,5.506,9.779c0,1.013-1.361,0.029-4.083-2.943l-7.122-8.451
		l-3.323-4.366c-5.95,3.291-12.786,4.558-20.507,3.798c-10.825-1.14-21.047-6.456-30.667-15.95l-3.228-2.658
		c-0.696,0.063-1.235,1.898-1.613,5.507c-0.951,8.354-0.476,16.521,1.424,24.494c1.834,7.724,4.873,14.748,9.113,21.079
		c5.254,7.849,11.52,14.306,18.799,19.366c10.444,7.28,22.216,10.92,35.32,10.92c21.331,0,39.654-4.492,54.972-13.481
		c10.886-6.394,18.04-13.07,21.457-20.031c-13.481-12.788-21.583-31.301-24.305-55.543c-2.911-25.572,1.519-48.58,13.292-69.023
		c2.341-4.051,3.893-5.981,4.652-5.793c0.823,0.128-0.191,2.755-3.039,7.88c-4.621,8.42-7.975,18.421-10.064,30.005
		c-2.595,14.493-2.627,29.21-0.095,44.146c2.469,14.812,8.419,28.293,17.85,40.445c8.544,11.077,19.685,20.729,33.419,28.957
		l-1.328,4.842c-10.381-7.214-19.781-14.967-28.2-23.258c-6.836,10.632-16.677,18.925-29.527,24.873
		c-13.861,6.395-30.224,9.558-49.085,9.494c-22.787-0.126-40.794-8.796-54.024-26.013c-12.468-16.268-17.278-35.193-14.431-56.777
		c0.823-6.202,1.836-9.306,3.038-9.306c0.887,0,4.179,2.532,9.875,7.596c7.279,6.521,15.73,10.604,25.35,12.249
		c8.228,1.393,14.685,0.821,19.369-1.71c-8.671-15.696-13.103-33.039-13.292-52.027c-0.253-21.268,4.968-41.871,15.665-61.81
		c13.04-24.307,33.644-41.175,61.81-50.605C245.636,386.395,270.004,386.743,292.031,396.427"/>
	<path fill="#0D131A" d="M340.833,646.225c1.393-1.834,1.866-3.481,1.424-4.938c31.078,4.434,59.34,1.236,84.784-9.587
		c28.991-12.346,51.365-33.609,67.127-63.805l3.134,1.615c-17.026,32.598-39.877,55.16-68.551,67.695
		C403.37,648.281,374.062,651.289,340.833,646.225"/>
	<path fill="#0D131A" d="M278.644,434.405c16.647-12.724,32.344-19.874,47.092-21.457l0.286,2.657
		c-14.115,1.455-29.243,8.703-45.383,21.741c-17.47,14.117-30.604,30.922-39.402,50.415c-7.658,16.838-11.044,34.055-10.159,51.65
		c1.075,23.166,9.526,45.923,25.351,68.264c-3.229-1.646-5.254-3.101-6.077-4.367c-14.18-21.897-21.711-44.273-22.597-67.124
		c-0.696-17.914,2.595-34.938,9.875-51.081C246.49,465.422,260.161,448.52,278.644,434.405"/>
	<path fill="#0D131A" d="M339.788,444.658l3.704,2.375c-11.9,3.229-23.706,9.874-35.415,19.937
		c-13.292,11.396-23.674,25.066-31.143,41.019c-6.709,14.113-10.442,28.926-11.202,44.433c-1.077,20.316,3.069,40.89,12.437,61.714
		l-2.373,1.043c-9.559-21.329-14.021-42.185-13.387-62.567c0.568-15.95,4.177-30.981,10.823-45.098
		c7.721-16.456,18.071-30.51,31.046-42.155C316.052,454.851,327.887,447.95,339.788,444.658"/>
	<path fill="#0D131A" d="M560.818,465.072c2.149,4.43,4.271,7.879,6.359,10.349l-1.426,0.854c-0.758,0.317-1.264,0.603-1.519,0.855
		l-3.797-5.508l-2.375-5.222l-2.848-5.696l1.424-5.79L560.818,465.072"/>
	<path fill="#0D131A" d="M546.765,489.566l0.763,2.658l-1.427,4.084l-2.184-5.889c-2.722-8.859-11.74-17.499-27.062-25.918
		l1.521-2.375c10.063,5.507,17.122,10.35,21.173,14.526C542.714,480.01,545.12,484.313,546.765,489.566"/>
	<path fill="#0D131A" d="M550.469,376.679c2.595,3.038,4.177,7.595,4.747,13.671c0.633,5.95,0.412,14.623-0.665,26.016
		c-2.024-3.229-3.417-5.128-4.177-5.696c0.886-8.8,0.948-15.984,0.188-21.554c-0.633-4.811-1.805-8.102-3.513-9.875
		c-3.925-4.114-10.317-7.342-19.18-9.684c-9.113-2.405-19.937-3.671-32.472-3.798c-3.67-1.583-5.916-2.753-6.738-3.513
		c17.658,0.507,31.393,1.899,41.203,4.178C539.74,368.703,546.607,372.121,550.469,376.679"/>
	<path fill="#0D131A" d="M538.316,457.762c2.593-1.962,4.81-4.968,6.644-9.019l1.615,6.073c-1.455,2.279-3.101,4.114-4.938,5.507
		c-2.785,2.091-6.201,3.45-10.252,4.085l-12.914-0.665l2.945-3.514l9.777,0.854C533.6,460.704,535.977,459.596,538.316,457.762"/>
	<path fill="#0D131A" d="M676.459,401.648c3.48,1.584,6.457,4.082,8.924,7.502c3.292,4.431,4.589,9.366,3.895,14.813
		c-0.316,3.037-1.298,5.536-2.943,7.5l-0.854-6.552l0.285-1.329c0.569-4.559-0.538-8.703-3.322-12.438
		c-2.09-2.848-4.59-4.937-7.5-6.266c-2.344-1.077-6.331-1.014-11.963,0.188c-6.205,1.267-10.129,3.387-11.774,6.36l-2.372,4.749
		c-3.166,6.52-6.807,11.837-10.92,15.95c-4.873,4.874-8.796,7.722-11.772,8.544c-3.229,1.014-5.696,0-7.404-3.037
		c-0.95-1.582-1.489-3.576-1.615-5.981l0.097-6.268l0.093-1.044c0.128-1.52-0.6-2.91-2.184-4.177
		c-1.329-1.077-3.196-1.867-5.601-2.374l2.185-3.229c2.213,0.698,4.081,1.615,5.6,2.755c2.406,1.897,3.609,4.178,3.609,6.836
		l-0.188,5.507c0,3.101,0.566,5.38,1.708,6.836c1.014,1.328,2.057,1.804,3.134,1.424l2.848-1.994
		c3.039-2.404,5.95-5.223,8.736-8.449c3.101-3.546,5.442-6.868,7.024-9.969l4.747-9.401c2.088-3.858,6.614-6.297,13.576-7.31
		C668.515,399.845,673.167,400.13,676.459,401.648"/>
	<path fill="#0D131A" d="M608.953,403.738c3.988-1.394,5.604,0.063,4.842,4.365l-3.323,16.615l0.856,0.381
		c0.252,0.507-0.351,1.298-1.805,2.374c-2.977,2.152-6.014,3.767-9.113,4.842c-4.813,1.582-8.8,1.361-11.964-0.664
		c-1.709-1.202-2.312-2.943-1.805-5.223c0.634-3.039,3.135-6.993,7.5-11.868C599.081,409.055,604.017,405.448,608.953,403.738
		 M609.808,414.372c1.203-5.19,1.583-7.816,1.141-7.879c-2.278-0.51-6.267,1.993-11.963,7.5c-5.634,5.442-8.799,9.81-9.494,13.102
		l-0.096,0.759c0,0.635,0.222,1.046,0.664,1.234c1.964,1.267,4.938,1.298,8.926,0.095c2.848-0.885,5.634-2.183,8.354-3.891
		L609.808,414.372"/>
	<path fill="#0D131A" d="M685.004,427.853c-0.317-1.455-1.867-2.688-4.652-3.701l-6.551-1.141l-4.651,0.57l2.088,11.394
		c1.076,5.948,1.772,8.987,2.089,9.115c1.455,0.315,3.83-1.71,7.121-6.078C683.864,433.583,685.383,430.196,685.004,427.853
		 M673.422,420.543c2.53-0.063,5.063,0.349,7.595,1.233c3.733,1.268,5.79,3.197,6.171,5.792c0.382,2.152-0.349,4.843-2.184,8.07
		c-1.897,3.481-4.305,6.171-7.216,8.07c-2.658,1.772-4.43,2.501-5.316,2.184c-0.76-0.253-1.36-1.646-1.805-4.178l-3.607-17.563
		l-1.993-0.285c-0.126-0.379,0.442-0.917,1.71-1.613C668.547,421.176,670.763,420.605,673.422,420.543"/>
	<path fill="#0D131A" d="M693.55,492.036c-1.457-0.95-3.292-1.394-5.508-1.329c-2.152,0.063-3.957,0.568-5.412,1.519
		c0.317,3.165,0.254,7.248-0.188,12.249c-0.317,3.987-0.35,6.074-0.096,6.267c0.761,0.442,2.975-0.948,6.646-4.18
		c3.858-3.416,6.14-6.455,6.835-9.112c0.315-1.394,0.315-2.438,0-3.134C695.575,493.555,694.813,492.796,693.55,492.036
		 M679.972,490.421c2.405-1.52,4.971-2.373,7.691-2.563c2.784-0.253,5.285,0.284,7.5,1.613c2.911,1.836,3.956,4.62,3.134,8.355
		c-0.95,4.683-4.97,9.208-12.058,13.576c-2.471,1.52-4.116,2.089-4.938,1.71c-0.821-0.381-1.14-1.9-0.949-4.561l-0.284-10.727
		l-0.57-5.888l-0.474-0.381C678.897,491.245,679.212,490.864,679.972,490.421"/>
	<path fill="#0D131A" d="M562.526,547.578c4.365,3.418,7.911,5.568,10.634,6.457c2.089,0.758,3.418,2.246,3.988,4.461
		c0.631,2.787-0.286,6.614-2.756,11.489c-1.896,3.733-3.701,6.486-5.409,8.259c-2.092,2.026-6.836,3.831-14.243,5.413l-19.463-0.57
		c-4.493-2.151-11.774-4.811-21.836-7.976c-10.192-3.229-17.692-5.188-22.503-5.888c-6.076-0.885-10.506-3.417-13.292-7.595
		l2.941-1.994c1.901,2.785,5.792,4.621,11.68,5.507c4.811,0.696,12.374,2.786,22.691,6.267c9.557,3.229,16.867,6.045,21.934,8.449
		c3.732,1.837,9.524,1.868,17.371,0.097c6.71-1.456,10.762-2.88,12.153-4.272c1.329-1.329,2.881-3.702,4.652-7.121
		c2.152-4.178,3.007-7.276,2.564-9.305c-0.19-0.822-0.762-1.424-1.71-1.805c-2.596-0.885-6.299-3.29-11.106-7.215l-15.098-13.007
		c-12.216-10.57-21.868-17.882-28.956-21.933c-6.143-3.546-11.743-5.317-16.807-5.317v-3.607c6.583,0,13.007,1.614,19.271,4.842
		c8.42,4.368,18.039,12.154,28.863,23.358C553.222,539.763,558.032,544.096,562.526,547.578"/>
	<path fill="#0D131A" d="M336.939,438.866c3.166,4.56,8.133,9.367,14.906,14.433c-0.063,1.519-0.475,3.008-1.234,4.463
		c-8.039-5.317-13.766-10.411-17.184-15.286c-1.583-2.279-3.418-7.217-5.508-14.812c-2.404-8.734-4.051-14.114-4.937-16.141
		c-0.633-1.393,0.158-1.836,2.375-1.329c2.152,0.506,3.481,1.741,3.988,3.701l3.132,13.391
		C333.806,432.666,335.293,436.524,336.939,438.866"/>
	<path fill="#0D131A" d="M391.247,479.789c2.341,2.784,4.272,4.842,5.792,6.171c2.53,2.15,5.506,3.987,8.924,5.506l-1.233,1.899
		c-7.153-3.229-12.565-6.963-16.235-11.204l-5.506-5.979c-2.406-2.217-5.191-4.21-8.356-5.98l-0.284-4.18
		c3.988,2.088,7.469,4.432,10.443,7.026L391.247,479.789"/>
	<path fill="#0D131A" d="M526.068,405.448c7.848,22.278,9.082,37.69,3.701,46.236l-16.615,17.564
		c-10.126,10.317-15.887,16.615-17.279,18.894l-1.043-2.277c0.822-1.141,5.792-6.553,14.905-16.237
		c9.179-9.746,14.938-16.298,17.28-19.652c2.848-4.177,3.83-9.524,2.941-16.044c-0.568-4.179-3.323-15.795-8.26-34.847l2.089,2.756
		L526.068,405.448"/>
	<path fill="#0D131A" d="M276.934,374.78c-6.139-15.064-9.494-28.104-10.064-39.117c-0.315-6.076,3.609-12.817,11.774-20.223
		l2.373,2.753c-5.443,5.253-8.165,10.349-8.165,15.286v0.665c0.633,12.152,3.641,25.413,9.021,39.781
		c6.646,18.04,14.494,28.326,23.546,30.858l24.116,5.601c8.48,1.773,13.576,3.103,15.286,3.988c0.949,0.507,3.354-0.505,7.214-3.037
		c4.305-2.785,8.545-6.269,12.723-10.445c11.584-11.583,17.28-23.072,17.091-34.465l-0.854-9.02l3.702,0.759
		c2.595,15.508-3.449,30.509-18.134,45.006c-5,4.935-10.285,9.082-15.856,12.437c-4.937,2.977-7.69,4.114-8.26,3.418
		c-0.315-0.314-0.189-0.854,0.381-1.614c-2.596-0.948-7.279-2.12-14.052-3.514c-8.23-1.581-16.332-3.479-24.307-5.694
		C293.962,405.29,284.784,394.148,276.934,374.78"/>
	<path fill="#0D131A" d="M306.842,302.338l-3.607,1.519l-1.899-3.038l4.083-1.804c3.861-1.583,10.064-1.203,18.609,1.139
		c5.569,1.52,12.88,4.146,21.931,7.88l5.697,1.709l4.272,0.95l-2.088,4.747l-10.159-3.988c-8.861-3.671-15.57-6.172-20.128-7.501
		C315.64,301.546,310.071,301.009,306.842,302.338"/>
	<path fill="#0D131A" d="M287.093,337.372c-1.138,2.152-1.392,3.988-0.759,5.507l4.747,7.595c1.71,3.608,2.627,7.69,2.755,12.248
		c0.063,3.734-0.318,6.552-1.14,8.45c-0.633,1.457-1.14,2.089-1.519,1.899c-0.317-0.127-0.444-0.823-0.38-2.088
		c0.315-8.229-0.633-14.781-2.848-19.654l-4.938-8.735c-0.949-2.279-0.633-4.778,0.95-7.5c0.759-1.457,2.247-3.292,4.461-5.507
		c0.38,1.266,1.077,2.374,2.09,3.323C289.12,334.365,287.98,335.853,287.093,337.372"/>
	<path fill="#0D131A" d="M324.123,314.395c-1.077-0.633-2.312-0.854-3.704-0.665c-1.33,0.252-3.733,1.298-7.216,3.133
		c-0.379-1.392-0.759-2.31-1.138-2.753c3.607-1.646,6.203-2.659,7.784-3.038c2.913-0.57,5.95,0.696,9.116,3.797l7.786,7.596
		c1.962,1.266,2.848,2.088,2.659,2.468c-0.254,0.316-1.361-0.032-3.323-1.044l-4.843-3.323l-3.227-3.038L324.123,314.395"/>
	<path fill="#0D131A" d="M283.866,274.614l1.897-3.988c2.913,1.962,5.414,6.044,7.502,12.248l2.659,6.741
		c1.456,2.848,5.125,8.165,11.013,15.95l11.204,14.147c1.962,2.341,2.184,5.189,0.665,8.544c-1.393,2.975-3.386,5.507-5.982,7.596
		c-3.039,2.405-6.362,3.671-9.969,3.797c-2.911,0.126-5.696-0.538-8.354-1.994c-2.85-1.455-5.001-3.512-6.457-6.171
		c-2.911-5.38-6.299-10.539-10.159-15.477c-3.861-4.873-7.597-8.703-11.204-11.488l-3.134-2.374
		c-5.822-3.797-9.841-7.089-12.058-9.874c-2.785-3.545-3.512-7.059-2.183-10.54l3.323,1.235c-0.823,2.215,0.252,4.905,3.228,8.07
		c1.708,1.835,5,4.589,9.875,8.26l3.132,2.375c3.861,2.974,7.786,6.993,11.774,12.058c3.987,5,7.532,10.348,10.634,16.045
		c2.341,4.368,5.696,6.456,10.064,6.266c2.911-0.063,5.791-1.076,8.64-3.038c2.658-1.835,4.493-3.892,5.506-6.171
		c1.012-1.962,0.949-3.576-0.189-4.842c-12.344-15.191-19.875-25.445-22.597-30.762l-2.848-7.215
		C288.328,279.52,286.334,276.386,283.866,274.614"/>
	<path fill="#0D131A" d="M281.681,274.708l1.994-0.379c0.317,1.899-0.41,4.462-2.183,7.69c-2.026,3.545-4.495,6.108-7.406,7.69
		c-2.341,1.266-4.905,1.677-7.689,1.234c-3.483-0.507-6.806-2.279-9.969-5.317c0.696-0.316,1.361-0.665,1.994-1.044
		c4.493,4.43,9.24,5.284,14.241,2.563c2.658-1.392,4.937-3.607,6.835-6.646C281.208,277.905,281.936,275.975,281.681,274.708"/>
	<path fill="#0D131A" d="M297.632,188.121l3.893-7.786l4.842-9.874c1.203-3.038,1.615-5.317,1.234-6.835l3.418-0.95
		c0.57,2.152,0.223,4.905-1.043,8.26l-5.222,11.108l-3.988,7.691c-3.039,6.329-6.14,15.444-9.305,27.344
		c-3.292,12.722-4.684,21.616-4.177,26.679l0.379,3.608c0.887,8.039,1.077,13.925,0.57,17.659
		c-0.822,6.457-3.513,10.982-8.07,13.577l-3.417,1.994c-6.772,4.051-12.026,6.33-15.76,6.835c-6.52,0.886-11.963-1.867-16.332-8.26
		c-4.43-6.583-7.216-15.918-8.354-28.008c-0.888-10.001-0.602-20.698,0.854-32.091l9.494-56.776l3.893,3.703l-8.451,52.882
		c-1.771,13.546-2.151,25.35-1.138,35.415c0.948,10.064,3.195,17.691,6.741,22.881c3.544,5.254,7.847,7.533,12.912,6.836
		c3.103-0.442,7.881-2.595,14.336-6.456l3.418-2.09c3.672-2.088,5.824-6.012,6.457-11.772c0.317-3.292,0.063-8.609-0.759-15.95
		l-0.38-3.608c-0.505-5.443,0.919-14.685,4.273-27.724C291.177,204.198,294.404,194.766,297.632,188.121"/>
	<path fill="#0D131A" d="M407.009,109.507c2.216,0.949,3.388,1.709,3.514,2.279c0.063,0.633-0.791,1.55-2.564,2.753
		c-2.276,1.52-10.602,4.621-24.969,9.305l1.897-4.652l13.673-4.178c4.367-1.33,6.551-2.247,6.551-2.753
		c0-0.885-3.103-2.057-9.304-3.512c-5.191-1.266-9.494-2.09-12.914-2.469l0.381-2.942l9.494,1.994
		C399.475,106.911,404.225,108.304,407.009,109.507"/>
	<path fill="#0D131A" d="M348.998,104.284l9.21-3.892c3.796-1.836,8.449-2.721,13.955-2.658c6.141,0.063,10.098,1.55,11.869,4.462
		c1.456,2.342,2.563,5.032,3.323,8.07c1.014,3.924,1.14,7.437,0.381,10.539c-0.951,4.114-2.659,6.899-5.127,8.355
		c-1.14,0.696-7.279,1.93-18.418,3.703c-11.647,1.835-18.609,3.228-20.889,4.177c-4.556,1.962-9.368,6.171-14.43,12.628
		l-6.268,9.114c-1.96,2.849-4.779,4.843-8.449,5.982l-9.875,1.614l-5.887,0.759c-2.088,0.379-5.157,1.962-9.208,4.747
		c-8.609,6.203-16.489,8.165-23.643,5.887l-3.132-0.95c-6.646-2.025-11.647-4.652-15.002-7.881
		c-4.24-4.051-6.898-9.905-7.975-17.564l3.417-1.234c2.913,7.975,6.205,13.514,9.875,16.615c2.406,2.025,6.932,4.051,13.576,6.076
		l3.134,0.95c3.354,1.076,6.583,1.044,9.686-0.095l7.973-4.652c2.217-1.583,3.893-2.69,5.033-3.323
		c1.962-1.077,3.83-1.773,5.601-2.089l6.173-0.855l7.595-1.424c2.215-0.886,4.177-2.5,5.887-4.843
		c8.735-12.469,16.551-20.001,23.451-22.596c1.962-0.696,5.063-1.488,9.305-2.374l11.488-1.899l10.634-1.519l7.405-2.184
		c1.962-1.139,3.26-3.039,3.891-5.697c0.633-2.595,0.633-5.602,0-9.02c-0.568-2.975-1.424-5.38-2.562-7.215
		c-1.077-1.773-4.114-2.69-9.116-2.754c-4.873,0-8.956,0.792-12.247,2.374l-10.255,4.273c-3.922,1.076-7.214,1.044-9.873-0.095
		l1.329-3.229L348.998,104.284"/>
	<path fill="#0D131A" d="M263.738,138.654l-0.286,3.892c-28.293,12.85-45.098,20.098-50.415,21.743
		c-7.976,2.531-13.072,1.265-15.287-3.798c-0.696-1.709-1.043-3.449-1.043-5.222c0-3.67,0.949-7.469,2.848-11.393
		c2.088-4.24,4.684-7.31,7.784-9.209c3.609-2.151,8.608-4.146,15.002-5.981l18.039-4.557l16.9-4.558l1.613,3.038l-17.657,4.747
		l-16.899,4.652c-5.634,1.836-10.222,3.797-13.768,5.887c-2.785,1.709-5.063,4.208-6.836,7.5c-1.645,3.038-2.469,5.981-2.469,8.83
		c0,1.519,0.223,2.753,0.665,3.702c1.583,3.608,5.508,4.431,11.774,2.469C218.893,158.751,235.572,151.503,263.738,138.654"/>
	<path fill="#0D131A" d="M309.595,121.564l-16.805,7.5l0.095-3.703l16.994-7.69C309.69,119.001,309.595,120.298,309.595,121.564"/>
	<path fill="#0D131A" d="M487.046,38.678c3.924,4.937,4.778,10.982,2.563,18.135c-1.962,6.203-6.076,12.343-12.344,18.419
		c-9.052,8.607-21.203,15.317-36.458,20.128c-7.976,2.468-15.508,3.481-22.598,3.038c-4.937-0.316-10.189-1.457-15.76-3.419
		l-8.83-3.417c-3.292-0.949-6.646-0.949-10.066,0c-4.493,1.266-10.981,3.64-19.463,7.122l-25.633,10.823l1.045-4.842
		c20.128-8.545,34.495-14.02,43.104-16.426l12.058-0.759c2.469,0.38,5.919,1.329,10.351,2.849
		c5.821,1.961,10.537,3.102,14.146,3.418c6.014,0.569,12.691-0.316,20.033-2.659c15.001-4.684,26.554-10.792,34.655-18.324
		c5.254-4.874,8.67-9.874,10.254-15.001c0.885-2.975,1.171-5.791,0.854-8.45c-0.316-2.659-1.233-4.937-2.753-6.835
		c-6.205-7.849-16.52-12.28-30.951-13.292c-14.369-1.013-28.041,1.772-41.018,8.355c-6.074,3.038-11.583,8.165-16.52,15.381
		c-0.633,0.95-3.323,5.634-8.07,14.052l-3.515,6.361c-1.266,1.709-3.132,3.229-5.601,4.558c-5,2.722-17.469,7.975-37.408,15.761
		l-1.424-3.134l25.54-9.874c6.646-2.595,10.95-4.526,12.912-5.792c1.899-1.202,3.419-3.291,4.558-6.266l2.659-7.405
		c2.28-4.938,4.558-8.988,6.835-12.153c4.621-6.33,10.192-11.14,16.71-14.432c13.04-6.582,27.599-9.779,43.676-9.589
		C467.933,25.259,480.084,29.817,487.046,38.678"/>
	<path fill="#0D131A" d="M288.708,108.936l19.083-7.025l1.521,3.038l-19.655,7.216L288.708,108.936"/>
	<path fill="#0D131A" d="M332.857,81.688c7.151,6.772,10.634,11.425,10.443,13.957c-0.189,3.354-0.822,8.039-1.897,14.052
		c-1.457,7.723-2.976,12.659-4.558,14.812c-1.455,1.961-4.368,3.734-8.734,5.317c-4.684,1.646-8.672,2.183-11.963,1.613
		c-3.354-0.632-5.792-2.342-7.311-5.127c-1.203-2.279-1.931-5.602-2.183-9.969c-0.191-2.974,0.917-6.393,3.323-10.253
		c-5.064-3.165-7.976-5.57-8.735-7.216c-0.507-1.202-0.633-2.374-0.38-3.512c0.252-1.203,0.822-1.045,1.709,0.474
		c1.393,2.216,4.811,5.032,10.253,8.45c0.949,0.633,1.298,1.235,1.043,1.805l-0.759,0.665l-1.613,3.323
		c-0.886,3.101-0.854,7.026,0.095,11.773c0.633,3.101,2.375,4.969,5.222,5.602c2.659,0.632,5.855,0.221,9.589-1.235
		c3.354-1.266,5.569-2.627,6.646-4.083c1.393-1.836,2.879-6.172,4.463-13.007c1.33-5.887,2.089-10.254,2.278-13.102
		c0.063-1.457-2.69-5.064-8.26-10.824c-5.634-5.76-10.222-9.748-13.768-11.962c-2.532-1.583-6.266-1.583-11.202,0
		c-3.798,1.139-7.565,2.911-11.298,5.317c-1.899,1.202-3.893,5.095-5.982,11.677c-1.077,3.355-1.962,6.552-2.658,9.59l-2.088-4.272
		l2.658-11.488c1.456-4.747,3.386-7.88,5.791-9.399c3.229-2.088,6.741-3.766,10.539-5.032c6.266-2.088,11.204-2.057,14.811,0.095
		C321.938,71.941,326.781,75.929,332.857,81.688"/>
	<path fill="#0D131A" d="M261.364,81.783c6.077-1.583,11.109-0.569,15.097,3.038c3.859,3.418,8.07,9.938,12.626,19.559
		c4.368,8.988,6.457,14.906,6.268,17.754c-0.189,3.039-0.823,6.962-1.899,11.773c-1.392,6.013-2.879,10.222-4.463,12.627
		c-1.899,2.849-4.303,4.874-7.214,6.077l-10.064,0.38c-3.609-1.077-6.236-2.532-7.881-4.368c-1.456-1.773-2.185-4.051-2.185-6.836
		c0-2.215,0.57-5.221,1.71-9.02l-3.607-3.703c-2.153-2.342-3.924-5.982-5.317-10.918c-0.443-1.646-0.254-3.134,0.57-4.463
		c0.822-1.329,1.455-0.854,1.897,1.425c0.381,1.898,1.836,4.842,4.369,8.83l5.031,7.976c0.824,1.456,0.888,2.531,0.191,3.228
		l-1.235,0.665l-0.189,5.033c0.568,3.67,2.627,6.171,6.171,7.5c3.796,1.456,6.741,1.709,8.829,0.759
		c1.456-0.57,3.039-2.152,4.747-4.747c1.393-2.152,2.848-6.013,4.369-11.583c1.392-5.063,2.183-8.893,2.373-11.488
		c0.126-2.342-1.582-7.343-5.128-15.001c-3.923-8.418-7.658-14.209-11.202-17.375c-6.077-5.38-14.052-4.557-23.927,2.469
		c-2.341,1.709-4.715,7.848-7.121,18.419c-1.202,5.315-2.153,10.442-2.849,15.38l-3.798,0.759c0.57-5.38,1.395-10.982,2.469-16.805
		c2.28-11.646,4.81-18.451,7.597-20.413C252.535,85.169,257.124,82.859,261.364,81.783"/>
	<path fill="#0D131A" d="M401.027,467.825c-6.646,2.468-10.952,3.418-12.915,2.849c-2.152-0.634-3.639-2.69-4.461-6.171
		c-0.317-1.71-0.286-2.816,0.095-3.323c0.442-0.507,0.949,0.126,1.519,1.899c0.57,1.896,1.108,3.195,1.613,3.891l1.899,1.521
		c1.836,0.507,7.027-1.046,15.573-4.652c6.457-2.784,11.739-5.285,15.854-7.502c2.153-1.201,3.165-1.582,3.039-1.138l-2.563,2.276
		C414.858,461.59,408.306,465.039,401.027,467.825"/>
	<path fill="#0D131A" d="M488.375,439.438c16.458-0.255,25.634,3.163,27.535,10.253l0.281,2.09l-1.519-2.185
		c-2.911-4.749-10.411-7.407-22.501-7.976c-9.746-0.507-20.096,0.283-31.048,2.373l-3.037,0.285
		c-0.126-0.188,0.822-0.634,2.849-1.329C467.015,440.859,476.159,439.689,488.375,439.438"/>
	<path fill="#0D131A" d="M403.116,488.999c-0.129-0.191,0.031-0.477,0.473-0.855l0.665-0.474c3.42-1.456,10.477-4.114,21.173-7.977
		c14.622-5.254,25.478-8.607,32.566-10.065l7.881-1.422l4.366,0.188c1.456,0.568,0.063,1.268-4.177,2.089
		c11.33,3.165,18.768,5.79,22.312,7.882c6.646,3.925,10.539,9.843,11.677,17.753c1.458,10.38,2.154,20.983,2.092,31.808
		c-0.126,13.355-1.646,21.487-4.559,24.399c-2.596,2.596-7.152,5.823-13.673,9.686c-7.404,4.43-14.904,8.131-22.501,11.107
		c1.14-1.899,1.805-3.544,1.994-4.938c6.394-2.848,12.531-6.234,18.42-10.159c5.063-3.293,8.732-6.106,11.013-8.45
		c1.394-1.328,2.627-4.43,3.702-9.305c1.141-5.254,1.709-10.982,1.709-17.184c0-9.18-0.602-17.979-1.804-26.396
		c-0.949-6.962-4.369-12.278-10.254-15.951c-3.672-2.276-10.634-4.81-20.887-7.595l-4.938-1.424
		c-10.129,1.329-27.567,7.374-52.316,18.134c-1.771,2.976-2.657,5.603-2.657,7.879l-2.277-0.757c0-2.217,0.221-4.051,0.664-5.509
		l0.665-1.709C403.749,489.63,403.306,489.378,403.116,488.999"/>
	<path fill="#0D131A" d="M421.82,578.908c1.834,3.167,3.827,5.825,5.98,7.976c3.289,3.167,6.679,4.749,10.158,4.749
		c2.343,0,5.096-1.203,8.263-3.609c3.101-2.404,6.106-5.601,9.019-9.589c2.025-2.784,3.639-5.57,4.842-8.354
		c1.203-2.723,1.834-4.938,1.899-6.646c-3.481,1.268-8.07,3.167-13.769,5.697l-11.869,5.602
		C431.663,576.694,426.821,578.088,421.82,578.908 M397.513,565.048l2.85-2.184c2.531,3.29,5.632,6.075,9.304,8.354
		c3.988,2.47,7.723,3.704,11.202,3.704c4.938,0,12.152-2.215,21.646-6.646c9.434-4.306,15.35-6.838,17.756-7.595l3.798-0.951
		c1.203,0.127,1.679,1.299,1.424,3.514c-0.633,5.316-3.102,10.982-7.405,16.994c-3.165,4.368-6.33,7.976-9.494,10.824
		c-4.177,3.797-7.816,5.698-10.92,5.698c-4.303,0-8.479-2.344-12.53-7.027c-2.596-3.039-4.875-6.613-6.835-10.729
		C407.547,576.409,400.615,571.757,397.513,565.048"/>
	<path fill="#0D131A" d="M450.684,501.055l-4.938-1.708c-2.027,1.52-4.525,5.157-7.5,10.918c-2.85,5.571-4.272,9.242-4.272,11.016
		v0.095c0,1.138,0.979,3.354,2.943,6.645c1.834,3.293,2.751,5.478,2.751,6.555v0.282c-0.314,3.607-2.403,9.021-6.266,16.235
		l5.792,0.57c0.886-0.949,2.024-3.388,3.418-7.313l2.848-9.777l0.098-1.046c0-2.024-0.95-4.937-2.851-8.733
		c-1.075-2.28-1.677-3.83-1.803-4.652l-0.097-0.379C440.809,517.292,444.101,511.058,450.684,501.055 M444.417,497.639l4.08,0.093
		l4.464,1.71c0.888,0.317,0.95,1.108,0.188,2.375l-1.896,2.47l-3.704,6.264l-3.32,6.173c-0.889,1.773-1.236,3.165-1.047,4.177
		l2.755,5.603c1.645,3.734,2.277,6.583,1.896,8.545l-3.132,10.54c-1.963,5.315-3.606,8.133-4.937,8.45l-5.033,0.188
		c-2.277-0.314-3.575-1.077-3.894-2.279c-0.126-0.567,0.791-2.752,2.755-6.55c2.214-4.306,3.449-7.881,3.702-10.729l-2.849-6.171
		c-1.898-3.925-2.848-6.298-2.848-7.12c-0.063-0.822,0.379-2.563,1.328-5.224c1.14-2.974,2.85-6.394,5.127-10.255
		C440.65,501.593,442.771,498.84,444.417,497.639"/>
	<path fill="#0D131A" d="M463.119,514.633v-0.38c0-2.404,2.85-7.595,8.546-15.57c-2.342-0.951-3.83-1.489-4.462-1.615
		c-1.836,1.455-4.051,4.561-6.646,9.306c-2.471,4.622-3.704,7.723-3.704,9.305v0.097c0.063,1.074,0.981,3.133,2.753,6.171
		c1.71,3.163,2.563,5.255,2.563,6.267v0.19c-0.255,3.163-2.184,8.229-5.791,15.189l5.222,0.475c0.823-0.949,1.898-3.228,3.229-6.835
		l2.563-9.114l0.095-0.951c0-1.896-0.886-4.618-2.658-8.164L463.119,514.633 M474.039,496.975c0.886,0.379,1.043,1.043,0.477,1.993
		l-1.615,2.184l-4.463,6.739c-2.278,3.672-3.354,5.981-3.228,6.933l2.658,5.507c1.582,3.672,2.215,6.394,1.897,8.165l-3.416,11.107
		l-1.806,4.747c-0.888,1.458-2.278,2.152-4.177,2.089l-4.368-0.379c-2.215-0.507-3.006-1.329-2.375-2.469
		c3.799-6.772,5.855-11.9,6.171-15.381l-2.657-5.791c-1.771-3.672-2.658-5.889-2.658-6.646l0.096-1.141
		c0.442-2.405,2.215-6.141,5.317-11.203c3.037-4.874,5.189-7.69,6.457-8.449C467.17,494.537,469.735,495.199,474.039,496.975"/>
	<path fill="#0D131A" d="M487.144,496.213c-1.647,1.329-3.516,3.988-5.604,7.976c-2.024,3.8-3.037,6.427-3.037,7.881
		c0,0.887,0.82,2.849,2.468,5.888c1.521,2.785,2.277,4.747,2.277,5.886v0.19c-0.252,2.91-1.96,7.657-5.126,14.24l4.369,0.477
		c0.757-0.889,1.739-3.039,2.942-6.457c1.138-3.291,1.897-6.141,2.276-8.543v-0.856c0-1.836-0.791-4.396-2.372-7.69l-1.519-4.08
		v-0.381c0-2.342,2.372-6.709,7.119-13.103L487.144,496.213 M486.002,494.409l3.228,0.38l3.134,1.14
		c0.951,0.57,1.361,1.139,1.234,1.71l-1.234,1.994c-4.684,6.772-6.93,10.664-6.74,11.678l2.469,5.506
		c1.52,3.547,2.151,5.981,1.899,7.312l-2.848,9.684c-1.268,3.735-2.439,5.981-3.516,6.743l-4.271,0.189l-3.988-1.235
		c-0.252-0.38,0-1.297,0.76-2.753l1.52-3.134c1.962-4.177,3.039-7.438,3.229-9.779l-2.373-5.41c-1.584-3.481-2.374-5.57-2.374-6.268
		c-0.063-2.279,1.267-5.759,3.987-10.444l2.942-4.366C484.45,495.517,485.434,494.537,486.002,494.409"/>
	<path fill="#0D131A" d="M322.034,552.608l-3.609-0.093c0.317-8.229,0.791-13.957,1.424-17.188c1.33-6.265,3.83-10.379,7.502-12.343
		c1.455-0.759,4.051-1.805,7.784-3.134l10.918-3.796l9.875-3.418l0.57,3.891l-8.07,2.851c-9.242,3.292-15.032,5.57-17.375,6.836
		C325.546,529.129,322.539,537.925,322.034,552.608"/>
	<path fill="#0D131A" d="M374.157,505.043l6.646-4.367c5.887-4.051,10.287-6.456,13.198-7.216c4.937-1.394,9.336-0.221,13.198,3.515
		c5.254,5.188,8.577,10.125,9.97,14.812c1.646,5.568,1.329,12.754-0.951,21.55l-2.183,9.4c-1.456,6.267-2.69,10.509-3.702,12.722
		c-1.582,3.355-4.146,6.205-7.69,8.548l-12.248,7.214l-8.64,6.269l-9.875,7.311l-4.463,3.607l-7.311,5.507
		c-2.531,1.329-5.158,1.897-7.879,1.709c-1.014-0.126-1.868-0.569-2.564-1.329l-1.994-2.658l0.949-2.944
		c1.014,1.329,2.217,2.027,3.609,2.091c1.962,0.188,4.461-0.729,7.5-2.756l7.405-5.98l4.747-3.891
		c4.747-3.166,10.348-6.521,16.805-10.066c4.81-2.658,8.798-5.031,11.963-7.119c2.977-1.963,5.128-4.335,6.457-7.12
		c0.886-1.964,2.024-5.952,3.418-11.963l2.278-9.401c2.088-8.165,2.437-14.685,1.045-19.558c-1.203-4.178-4.274-8.641-9.211-13.388
		c-2.849-2.784-6.077-3.67-9.686-2.658c-2.53,0.696-6.55,2.944-12.058,6.742l-6.93,4.557c-3.481,1.962-8.354,4.146-14.622,6.551
		l0.475-4.271C367.384,508.429,371.498,506.626,374.157,505.043"/>
	<path fill="#0D131A" d="M387.26,740.79c2.532,3.542,4.334,7.438,5.412,11.678c1.203,4.809,1.329,9.746,0.38,14.812
		c-0.887,4.493-2.28,7.024-4.179,7.593c-1.771,0.509-4.493-0.505-8.165-3.037c-2.467-1.708-5.791-3.828-9.969-6.36l-5.317-3.227
		l3.798-2.755c10.634,8.354,16.584,12.313,17.85,11.867c2.151-0.821,3.1-4.46,2.848-10.917c-0.252-6.772-1.899-12.216-4.937-16.329
		L387.26,740.79"/>
	<path fill="#0D131A" d="M168.508,726.261l-2.848,1.237l-1.804,0.093c1.836-12.784,8.451-20.158,19.844-22.122
		c3.862-0.631,8.451-0.665,13.768-0.093l10.538,1.422c11.647,1.329,20.097,0.761,25.35-1.708l-18.323-5.128
		c-2.28-0.566-4.146-2.943-5.601-7.121c-1.014-2.911-1.521-5.063-1.521-6.457l4.747-1.708c0.128,3.672,0.856,6.617,2.185,8.83
		c1.201,1.964,2.785,3.196,4.747,3.705c5.885,1.455,13.133,3.605,21.741,6.453c11.33,3.672,18.452,6.554,21.363,8.64
		c5.127,3.674,4.303,4.337-2.469,1.994c-9.305-3.604-16.805-6.264-22.5-7.976c-2.913,2.722-5.254,4.308-7.027,4.749l-23.071-0.664
		l-25.92,0.95C174.618,713.634,170.218,718.605,168.508,726.261"/>
	<path fill="#0D131A" d="M325.071,553.938c-6.203-0.44-10.571,0.351-13.102,2.375c-1.329,1.074-3.007,5.443-5.033,13.102
		l-3.037,10.443c-1.33,3.862-2.755,6.996-4.274,9.4l-7.689,9.306c-5.443,5.948-9.242,10.729-11.393,14.337
		c-3.672,6.2-5.317,12.342-4.938,18.417l1.899,38.927l6.932,5.51l12.342,10.44c3.735,3.229,5.443,5.19,5.127,5.889
		c-0.317,0.694-2.563-0.126-6.741-2.469l-23.925-18.896c-12.912-10.188-21.615-15.379-26.11-15.567
		c-8.608-0.51-15.761,0.917-21.457,4.271l-3.798-1.33l-4.083-1.14c3.861-2.592,8.798-4.492,14.811-5.695l12.817-1.141
		c4.242,0.192,9.717,2.438,16.426,6.743c4.621,2.911,9.145,6.297,13.577,10.158l-1.14-15.854l-1.708-21.554l-0.095-1.994
		c0-6.143,2.151-12.09,6.455-17.85l12.344-13.578l7.311-8.829c2.215-3.418,4.524-9.715,6.93-18.894l2.469-9.97
		c0.949-3.291,1.994-5.411,3.132-6.36c3.292-2.658,8.735-3.605,16.332-2.85c6.203,0.697,12.184,2.217,17.945,4.56
		c4.684,1.897,7.025,6.201,7.025,12.91l-1.994,16.521c0,1.647,0.917,6.046,2.753,13.198c1.773,6.835,2.532,11.678,2.28,14.525
		c-0.696,8.61-4.495,20.161-11.393,34.656c-5.698,12.025-7.723,22.312-6.078,30.854c0.887,4.558,2.5,9.845,4.843,15.854
		c2.467,6.457,4.842,11.299,7.12,14.528c15.572,6.139,26.364,11.075,32.377,14.812c3.797,2.47,6.487,5.191,8.07,8.165
		c1.393,2.532,2.088,5.41,2.088,8.641c0,3.861-0.665,7.247-1.994,10.158c-2.976,6.269-7.786,10.949-14.432,14.05
		c-6.013,2.788-12.153,3.77-18.418,2.944c-7.09-0.888-16.679-5.506-28.768-13.86c-5.761-4.56-9.336-7.121-10.729-7.688
		c-5.254-2.153-15.73-2.979-31.427-2.47l-13.387,0.281c-7.469,0-20.349,1.901-38.643,5.7c-16.71,3.416-30.35,6.772-40.92,10.062
		c-5.126,1.646-9.906,1.554-14.336-0.284c-3.292-1.394-6.108-3.543-8.451-6.453l3.704-2.566c2.596,2.153,5.664,3.673,9.208,4.561
		l12.344-0.476c9.938-3.168,23.165-6.268,39.686-9.305c17.027-3.168,29.496-4.749,37.408-4.749l13.198-0.379
		c8.228-0.315,14.241-0.379,18.039-0.189c6.013,0.189,10.601,0.95,13.766,2.279l10.729,6.646c6.013,4.179,10.571,7.151,13.673,8.924
		c5.57,3.229,10.19,5.063,13.861,5.506c5.38,0.697,10.823-0.189,16.332-2.658c5.95-2.659,9.746-6.327,11.393-11.013
		c2.025-5.886,2.595-10.571,1.708-14.051c-0.886-3.355-3.323-6.301-7.311-8.829c-4.684-2.914-10.001-5.666-15.951-8.262
		l-11.297-4.651c-4.179-1.582-6.995-2.785-8.451-3.609c-2.595-1.329-2.375-2.31,0.665-2.944c-1.962-2.783-3.893-6.962-5.792-12.53
		c-2.659-7.598-4.114-15.034-4.367-22.313c-0.317-7.849,2.183-17.565,7.5-29.146c6.139-13.481,9.525-22.06,10.159-25.73
		c0.822-5,0.854-9.684,0.094-14.05l-2.563-9.212c-1.393-4.305-1.992-7.658-1.803-10.063l0.854-6.362
		c0.949-5.254,1.266-9.05,0.949-11.394c-0.505-3.163-2.183-5.348-5.031-6.551C336.37,555.617,330.832,554.318,325.071,553.938"/>
	<path fill="#0D131A" d="M223.956,661.132c-1.33-0.95-3.26-1.393-5.791-1.329c-2.722,0-5.508,0.603-8.356,1.802
		c-12.026,5.063-18.641,14.654-19.844,28.769c0.317,0.319,4.147-0.884,11.49-3.605c8.165-3.041,13.766-4.651,16.805-4.842
		c0.885-0.192,2.215-1.521,3.988-3.987c2.025-2.914,3.354-5.793,3.987-8.641l0.379-2.755
		C226.614,664.199,225.729,662.398,223.956,661.132 M195.663,667.303c3.67-4.239,7.563-7.218,11.677-8.926
		c3.483-1.519,7.09-2.184,10.825-1.994c3.29,0.189,5.822,0.917,7.595,2.185c3.798,2.531,4.937,6.646,3.418,12.342
		c-0.886,3.355-2.438,6.616-4.652,9.78c-2.215,3.167-4.146,4.812-5.792,4.938c-6.392,0.441-13.481,2.246-21.266,5.409
		c-4.684,1.9-7.691,2.596-9.021,2.091c-1.392-0.568-1.899-2.722-1.519-6.457C187.751,679.393,190.664,672.937,195.663,667.303"/>
	<path fill="#0D131A" d="M159.584,734.998c-2.341,3.861-3.988,8.45-4.936,13.764c-0.823,4.749-0.888,7.312-0.191,7.693
		c0.38,0.126,4.084-1.805,11.109-5.792c7.912-4.493,13.831-7.281,17.755-8.354l0.759-1.328l0.473-3.514
		c0-2.469-0.537-4.749-1.613-6.839c-1.266-2.528-3.134-4.271-5.601-5.221c-2.406-0.95-5.38-0.477-8.926,1.426
		C164.807,728.73,161.864,731.452,159.584,734.998 M158.255,757.877c-3.166,1.964-5.191,2.629-6.076,1.994
		c-0.823-0.631-1.171-2.878-1.043-6.739c0.315-6.771,2.057-12.816,5.22-18.134c2.722-4.497,6.299-8.198,10.729-11.109
		c3.861-2.405,7.691-2.881,11.488-1.426c3.229,1.267,5.666,3.513,7.311,6.743c1.392,2.721,2.025,5.632,1.899,8.732
		c-0.126,4.181-1.298,6.646-3.512,7.406C176.042,748.004,167.37,752.182,158.255,757.877"/>
	<path fill="#0D131A" d="M493.502,286.577c-1.013-1.583-1.455-2.658-1.329-3.229c0.063-0.57,0.539-0.379,1.425,0.57l5.032,6.55
		c15.506-49.181,23.039-74.658,22.597-76.43c-0.508-2.088-18.324,11.108-53.454,39.591l1.805,1.899
		c1.14,1.393,1.708,2.374,1.708,2.943c0,0.569-0.632,0.475-1.896-0.285l-5.129-3.134c-4.239-2.405-10.695-4.303-19.365-5.696
		c-12.407-1.962-23.296-1.045-32.663,2.753c-3.354,1.393-4.59,1.298-3.702-0.285l2.28-2.279l1.708-1.139
		c-34.308-18.736-58.708-31.933-73.205-39.592c-18.989-9.998-28.8-14.68-29.434-14.048c-1.012,0.95,5.159,14.716,18.515,41.301
		c13.862,27.723,24.78,47.282,32.756,58.675c0.57-0.95,1.235-1.931,1.994-2.944c1.455-2.088,2.658-3.386,3.607-3.893
		c0.951-0.506,1.014,0,0.191,1.52l-4.938,8.355c-3.988,6.771-7.721,15.792-11.202,27.059c-2.976,9.748-4.463,16.172-4.463,19.273
		c0,2.659,0.412,4.747,1.235,6.267c1.012,1.709,2.532,2.595,4.558,2.659l36.552,3.703c21.268,2.532,34.498,4.652,39.686,6.361
		c1.584,0.506,3.104,1.551,4.561,3.133l-0.571,1.329l-0.854,0.665l-1.804-1.898l-1.896-1.52c-4.875-1.646-18.009-3.544-39.403-5.697
		l-36.649-3.133l-3.893-0.38c-1.012-0.379-1.899-1.203-2.658-2.469c-1.075-1.898-1.613-4.336-1.613-7.31
		c0-5.381,1.203-12.026,3.607-19.938c2.722-8.861,6.583-18.103,11.583-27.724c-12.722-18.482-25.159-40.762-37.312-66.84
		c-11.144-23.863-15.954-36.839-14.435-38.928c1.773-2.594,14.653,2.405,38.643,15.001c14.241,7.533,37.755,20.761,70.542,39.687
		c10.004-2.723,20.445-3.07,31.332-1.044c5.888,1.076,11.616,2.848,17.187,5.316c35.572-29.622,55.319-42.914,59.243-39.876
		c0.698,0.57-1.612,10.032-6.931,28.388l-15.854,54.023c8.102,12.722,13.799,22.186,17.09,28.388
		c6.266,11.521,8.925,19.147,7.976,22.882c-0.315,1.329-2.153,2.722-5.506,4.177l-12.06,4.462c-13.798,5-21.015,8.64-21.646,10.919
		l0.762,15.381l0.854,17.659c0,7.281-0.951,12.187-2.849,14.717c-2.344,3.165-5.032,5.792-8.071,7.881
		c-3.29,2.217-6.298,3.323-9.02,3.323c-2.47,0-6.521-2.057-12.152-6.171c-5.38-3.988-8.736-7.122-10.065-9.401
		c-1.074-1.896-1.994-5.126-2.752-9.685l-1.709-8.734c-0.76-2.911-2.312-6.899-4.651-11.962l2.276-1.52
		c3.294,6.899,5.666,14.653,7.122,23.262c0.569,3.545,1.297,6.014,2.184,7.407c1.014,1.771,4.239,4.62,9.686,8.543
		c5.569,3.925,9.239,5.889,11.015,5.889c1.708,0,3.924-1.076,6.646-3.229c2.723-2.15,5.348-4.905,7.88-8.261
		c1.203-1.582,1.805-5.602,1.805-12.059c-0.635-21.141-0.854-32.28-0.664-33.419c0.567-2.216,2.879-4.399,6.931-6.551
		c2.913-1.519,8.102-3.64,15.569-6.361l9.494-3.607c3.229-1.393,5.128-2.5,5.698-3.323l0.188-0.76
		C523.219,337.72,513.314,318.667,493.502,286.577"/>
	<path fill="#0D131A" d="M337.983,230.655c-1.264-1.266-1.645-1.868-1.138-1.805c0.507,0,1.708,0.728,3.607,2.185l26.585,20.223
		c15.633,12.469,22.913,19.906,21.836,22.312c-2.594,5.569-5.317,10.095-8.165,13.576c-1.266,1.52-2.088,2.153-2.467,1.899
		c-0.38-0.19-0.097-1.076,0.854-2.659l7.12-13.102c0.633-1.392-6.899-8.608-22.595-21.647L337.983,230.655"/>
	<path fill="#0D131A" d="M488.187,275.848c-0.315-2.722,1.359-7.152,5.03-13.292c3.419-5.823,6.583-9.938,9.494-12.343
		c2.532-2.088,3.861-3.007,3.987-2.753l-2.848,3.703c-4.366,5-7.851,9.874-10.444,14.621c-2.404,4.431-3.576,7.881-3.513,10.349
		c0.063,1.456-0.158,2.215-0.665,2.279C488.725,278.412,488.375,277.558,488.187,275.848"/>
	<path fill="#0D131A" d="M404.352,308.224l2.183,0.95c-1.14,2.659-1.993,6.076-2.563,10.254c-0.57,4.24-0.634,7.816-0.189,10.729
		l-2.85-1.425c-0.506-3.165-0.348-6.804,0.476-10.918C402.039,314.395,403.022,311.199,404.352,308.224"/>
	<path fill="#0D131A" d="M478.691,344.303c0.188-3.545,1.645-8.166,4.366-13.861c2.975-6.394,6.361-11.362,10.158-14.907
		l2.374-1.994l-1.612,2.468l-1.141,1.521c0.887,0.759,1.867,2.185,2.942,4.272c1.329,2.531,2.312,5.19,2.941,7.975
		c0.824-0.506,1.329-0.633,1.521-0.38l-1.899,1.994c-5.885,4.684-11.803,9.336-17.755,13.958c-0.253,0.949-0.819,8.355-1.708,22.216
		l-1.614,20.033C476.95,387.597,477.425,373.166,478.691,344.303 M486.191,328.447c-2.279,4.747-3.83,9.209-4.652,13.387
		l15.381-11.109c-0.126-1.835-0.854-4.208-2.185-7.121l-2.752-5.032C489.895,321.421,487.963,324.712,486.191,328.447"/>
	<path fill="#0D131A" d="M426.092,337.847l19.083,6.266c1.839,0.507,2.47,0.918,1.9,1.235l-3.039,0.094
		c-3.039-0.569-10.35-2.974-21.931-7.215c-11.647-4.241-19.847-7.533-24.593-9.875c-1.771-0.822-2.53-1.392-2.278-1.708l2.943,0.665
		C406.472,330.662,415.775,334.176,426.092,337.847"/>
	<path fill="#0D131A" d="M464.448,396.617c0.507,2.721,0.572,3.893,0.191,3.513l-1.329-3.323l-9.399-32.281
		c-2.785-8.924-5.128-14.874-7.025-17.849c-6.141-9.685-13.515-18.04-22.122-25.064c-8.291-6.772-17.978-12.532-29.053-17.279
		c-1.203-0.507-1.868-1.014-1.994-1.52l2.373,0.095c11.521,4.052,21.901,9.812,31.144,17.28
		c8.987,7.279,16.332,15.761,22.026,25.445c2.406,4.051,5.255,11.836,8.543,23.356C460.652,378.988,462.867,388.198,464.448,396.617
		"/>
	<path fill="#0D131A" d="M463.784,409.244c1.14-2.087,2.374-3.289,3.703-3.606c1.646-0.508,1.836-0.032,0.57,1.424l-1.52,2.184
		l-1.71,1.329l-1.138-0.189C463.5,410.132,463.531,409.751,463.784,409.244"/>
	<path fill="#0D131A" d="M476.792,405.921c-0.38-1.581,0.032-1.867,1.234-0.854l1.425,1.615c0.506,0.822,0.759,1.55,0.759,2.184
		l-0.286,1.141c-0.126,0.063-0.409-0.097-0.854-0.476C478.06,408.77,477.299,407.567,476.792,405.921"/>
	<path fill="#0D131A" d="M458.467,283.158c-1.771-2.848-2.783-4.146-3.036-3.892l-2.28,4.177l-2.277,4.273l-5.697,1.803
		c-3.29,0.95-4.744,1.583-4.366,1.899l7.501,6.456l0.285,0.38l-0.476,4.651c-0.253,3.038-0.253,4.495,0,4.368l10.158-7.311
		c6.394,3.608,9.875,5.349,10.444,5.222c0.505-0.126-0.443-3.512-2.849-10.159l3.702-4.178c0.315-0.317-2.563-1.456-8.641-3.418
		L458.467,283.158 M437.392,291.893l-1.33-1.708c0.129-0.317,0.729-0.696,1.805-1.139l5.223-1.614l5.981-1.424l2.278-4.747
		l2.657-5.032c0.443-0.823,0.917-1.171,1.425-1.045l1.614,1.425l5.506,8.925c7.277,2.341,10.981,3.797,11.107,4.367l-2.183,2.849
		l-2.943,2.849c3.164,9.051,4.462,13.767,3.892,14.146c-0.379,0.252-2.657-0.759-6.836-3.038l-7.023-3.893
		c-8.039,6.393-12.375,9.462-13.007,9.209c-0.445-0.126-0.476-2.215-0.098-6.266l0.665-6.741L437.392,291.893"/>
	<path fill="#0D131A" d="M441.759,361.487c1.52-0.759,2.372-0.854,2.563-0.285c0.188,0.507-0.441,1.108-1.897,1.805
		c-3.607,1.646-9.052,4.905-16.331,9.779c-10.632,7.152-20.571,15.033-29.813,23.642c-28.167,26.078-44.654,53.645-49.464,82.697
		c1.962-2.912,4.019-5.697,6.171-8.355l3.037-3.322l1.71-3.228c1.012-1.329,1.234,0.157,0.665,4.461
		c-1.33,9.431-1.994,18.516-1.994,27.249c-0.063,9.177,0.633,16.299,2.089,21.363c1.329-22.155,10.539-48.549,27.628-79.184
		c18.42-33.104,38.043-55.322,58.866-66.652c1.71-0.95,2.629-1.203,2.755-0.759c0.063,0.443-0.635,1.107-2.091,1.994
		c-20.19,12.406-38.894,34.466-56.112,66.175c-14.685,27.218-24.084,52.505-28.198,75.86c-0.759,4.369-1.487,6.679-2.183,6.932
		c-0.823,0.314-2.025-1.994-3.607-6.932c-1.266-4.051-1.931-10.569-1.994-19.558c-0.063-8.419,0.347-15.825,1.234-22.219
		l-6.551,8.355c-2.343,3.544-3.798,5.033-4.369,4.461c-0.441-0.44-0.378-2.594,0.191-6.455c3.607-24.37,14.811-47.409,33.61-69.118
		C395.077,390.129,416.439,373.893,441.759,361.487"/>
	<path fill="#0D131A" d="M487.808,363.386l0.854-1.14c21.898,8.356,40.286,20.92,55.161,37.693
		c16.141,18.293,23.229,36.744,21.267,55.354c-0.188,2.024-0.568,3.007-1.139,2.943c-0.507-0.127-1.045-1.014-1.613-2.658
		l-4.558-11.203c0.695,9.367-0.793,18.134-4.463,26.299c-1.455,3.291-2.438,4.778-2.942,4.463c-0.443-0.19-0.95-2.312-1.52-6.362
		c-2.47-17.217-7.438-33.261-14.907-48.135c-11.328-22.662-26.963-38.739-46.901-48.232l-0.854-2.468
		c22.026,10.57,38.958,27.913,50.796,52.031c7.721,15.696,12.499,31.994,14.335,48.896c2.024-6.646,3.322-14.242,3.894-22.786
		l-0.476-6.457c-0.441-3.039-1.013-5.506-1.708-7.407c-2.975-8.479-2.09-8.543,2.657-0.189c2.911,5.569,5.477,11.553,7.69,17.945
		c-0.76-18.42-9.399-36.584-25.921-54.498C522.46,381.141,505.907,369.779,487.808,363.386"/>
	<path fill="#0D131A" d="M420.585,330.156c0,2.025-0.254,3.544-0.759,4.557l-1.329,1.235c-1.329,0-1.994-1.994-1.994-5.982
		c0-2.088,0.253-3.956,0.76-5.602c0.443-1.519,0.92-2.278,1.425-2.278c0.507,0,0.95,0.791,1.329,2.374L420.585,330.156"/>
	<path fill="#0D131A" d="M488.187,335.948c0,2.342-0.412,3.512-1.234,3.512c-0.949,0-1.424-1.17-1.424-3.512l0.378-3.513
		c0.255-0.95,0.572-1.425,0.951-1.425s0.696,0.475,0.95,1.425L488.187,335.948"/>
	<path fill="#0D131A" d="M652.532,421.396c0.127-0.188,0.507-0.093,1.141,0.286l2.658,2.849c1.14,1.393,1.931,2.596,2.372,3.608
		c0.572,1.52,1.646,2.753,3.229,3.702c1.771,1.076,4.398,1.931,7.879,2.563l0.57,2.849l-3.039-0.381
		c-2.341,2.217-4.24,4.844-5.695,7.883c-1.267,2.659-1.898,5-1.898,7.024c0,0.822,0.095,1.455,0.283,1.899
		c0.762,1.329,6.71,0.948,17.851-1.141l4.177-0.664c2.532-0.381,5.762,0.538,9.687,2.753c3.606,2.024,6.392,4.24,8.354,6.646
		c3.039,3.798,4.146,10.223,3.323,19.273c-0.76,8.925-2.815,15.001-6.172,18.229v-2.274l-0.188-2.374l0.947-1.899
		c2.532-5.948,3.609-11.899,3.229-17.849c-0.253-4.938-1.234-8.419-2.942-10.444c-1.772-2.278-4.179-4.43-7.216-6.457
		c-3.545-2.341-6.396-3.353-8.546-3.037l-12.247,1.897c-8.291,0.95-12.817,0.509-13.578-1.327c-1.012-2.343-0.694-5.349,0.95-9.021
		c1.519-3.481,3.861-6.806,7.023-9.971c-4.051-0.821-6.771-2.941-8.164-6.359c-1.014-2.597-2.245-5.001-3.701-7.217L652.532,421.396
		"/>
	<path fill="#0D131A" d="M671.996,486.055c-1.394,0-2.532,0.412-3.418,1.234c-0.696,0.633-1.55,1.866-2.563,3.704
		c-1.646,2.783-3.132,4.682-4.461,5.694c-4.369,3.544-10.225,6.234-17.563,8.07c-9.494,2.404-16.489,1.298-20.984-3.323
		c-7.658-1.772-19.811,0.477-36.457,6.741c-11.837,4.303-20.033,6.772-24.592,7.405c-3.987,0.507-7.468-0.475-10.442-2.942
		c-2.913-2.47-4.938-5.98-6.078-10.539c-1.329-5.063-0.948-9.813,1.141-14.241c2.344-5.002,6.615-8.734,12.816-11.203l4.652-1.804
		c3.609-1.393,9.875-3.704,18.799-6.933c7.851-2.975,13.262-5.537,16.237-7.689l-0.856-5.127c-0.568-2.217-1.171-3.639-1.803-4.273
		c-2.343-2.151-4.398-4.43-6.171-6.835c-2.027-2.849-3.229-5.38-3.608-7.596c-0.507-2.722-0.695-4.873-0.569-6.455
		c0.19-1.838,0.854-3.42,1.994-4.749l0.095,2.563c0.126,0.696,0.475,1.521,1.043,2.47c-0.126,1.836,0,3.733,0.383,5.695
		c0.315,1.773,1.201,3.894,2.658,6.362c1.582,2.596,3.416,4.873,5.506,6.836c0.821,0.821,1.456,1.897,1.897,3.228
		c0.569,1.71,1.014,4.304,1.329,7.784c0.188,2.47,0.159,4.306-0.095,5.507c-0.317,1.141-0.634,1.268-0.949,0.381l-0.476-3.229
		c-3.354,2.343-8.608,5.063-15.761,8.165l-18.324,7.218l-4.652,1.803c-5.127,2.025-8.64,5.19-10.537,9.494
		c-1.584,3.544-1.866,7.279-0.854,11.203c0.822,3.292,2.374,5.982,4.652,8.07c2.595,2.341,5.57,3.292,8.924,2.848
		c4.177-0.507,11.646-2.784,22.408-6.835c7.911-2.977,13.797-5,17.657-6.076c6.457-1.836,11.869-2.659,16.237-2.47l-5.033-5.506
		l-7.595-6.457c-2.848-2.658-4.463-5.885-4.842-9.685c-0.191-2.343,0.028-3.479,0.664-3.418c0.567,0.063,1.012,1.172,1.33,3.323
		c0.252,1.899,1.2,3.859,2.848,5.887c1.329,1.708,3.479,3.798,6.457,6.267l5.313,4.651l8.167,7.691l0.189,0.094
		c3.987,2.977,9.81,3.482,17.47,1.521c6.076-1.583,10.665-3.642,13.769-6.172c2.341-1.771,3.986-3.514,4.935-5.222
		c1.202-2.152,2.313-3.639,3.323-4.463c1.52-1.456,3.451-2.184,5.792-2.184c0.063-1.203,0.476-2.406,1.234-3.609l2.563-3.322
		c1.771-2.531,2.659-5.188,2.659-7.976c0-0.949,0.221-1.582,0.664-1.897c0.443-0.442,0.854-0.063,1.233,1.141l0.665,4.271
		c-0.063,1.71-0.76,3.514-2.089,5.412c-2.469,3.608-3.513,6.804-3.134,9.589c0.379,2.658,1.899,4.525,4.558,5.602l-0.189,1.71
		l0.38,1.71C676.11,492.89,673.262,489.853,671.996,486.055"/>
</g>
</svg>
